<ttFont>
    <TTGlyph name=".notdef" xMin="68" yMin="0" xMax="612" yMax="1365">
      <contour>
        <pt x="68" y="0" on="1"/>
        <pt x="68" y="1365" on="1"/>
        <pt x="612" y="1365" on="1"/>
        <pt x="612" y="0" on="1"/>
      </contour>
      <contour>
        <pt x="136" y="68" on="1"/>
        <pt x="544" y="68" on="1"/>
        <pt x="544" y="1297" on="1"/>
        <pt x="136" y="1297" on="1"/>
      </contour>
    </TTGlyph>
    <TTGlyph name="A" xMin="130" yMin="0" xMax="1531" yMax="1421">
      <contour>
        <pt x="693" y="1421" on="1"/>
        <pt x="969" y="1421" on="1"/>
        <pt x="1531" y="0" on="1"/>
        <pt x="1272" y="0" on="1"/>
        <pt x="1113" y="372" on="1"/>
        <pt x="533" y="372" on="1"/>
        <pt x="374" y="0" on="1"/>
        <pt x="130" y="0" on="1"/>
      </contour>
      <contour>
        <pt x="1025" y="603" on="1"/>
        <pt x="823" y="1130" on="1"/>
        <pt x="620" y="603" on="1"/>
      </contour>
    </TTGlyph>
    <TTGlyph name="AE" xMin="130" yMin="0" xMax="1938" yMax="1421">
      <contour>
        <pt x="905" y="1189" on="1"/>
        <pt x="647" y="603" on="1"/>
        <pt x="1027" y="603" on="1"/>
        <pt x="1027" y="1189" on="1"/>
      </contour>
      <contour>
        <pt x="740" y="1421" on="1"/>
        <pt x="1938" y="1421" on="1"/>
        <pt x="1938" y="1189" on="1"/>
        <pt x="1295" y="1189" on="1"/>
        <pt x="1295" y="848" on="1"/>
        <pt x="1883" y="848" on="1"/>
        <pt x="1883" y="616" on="1"/>
        <pt x="1295" y="616" on="1"/>
        <pt x="1295" y="232" on="1"/>
        <pt x="1938" y="232" on="1"/>
        <pt x="1938" y="0" on="1"/>
        <pt x="1027" y="0" on="1"/>
        <pt x="1027" y="373" on="1"/>
        <pt x="551" y="373" on="1"/>
        <pt x="380" y="0" on="1"/>
        <pt x="130" y="0" on="1"/>
      </contour>
    </TTGlyph>
    <TTGlyph name="Aacute" xMin="130" yMin="0" xMax="1531" yMax="1945">
      <contour>
        <pt x="693" y="1421" on="1"/>
        <pt x="969" y="1421" on="1"/>
        <pt x="1531" y="0" on="1"/>
        <pt x="1272" y="0" on="1"/>
        <pt x="1113" y="372" on="1"/>
        <pt x="533" y="372" on="1"/>
        <pt x="374" y="0" on="1"/>
        <pt x="130" y="0" on="1"/>
      </contour>
      <contour>
        <pt x="1025" y="603" on="1"/>
        <pt x="823" y="1130" on="1"/>
        <pt x="620" y="603" on="1"/>
      </contour>
      <contour>
        <pt x="1070" y="1945" on="1"/>
        <pt x="1193" y="1750" on="1"/>
        <pt x="551" y="1414" on="1"/>
        <pt x="439" y="1592" on="1"/>
      </contour>
    </TTGlyph>
    <TTGlyph name="Abreve" xMin="130" yMin="0" xMax="1531" yMax="1897">
      <contour>
        <pt x="365" y="1794" on="1"/>
        <pt x="577" y="1897" on="1"/>
        <pt x="597" y="1859" on="1"/>
        <pt x="608" y="1838" on="0"/>
        <pt x="639" y="1796" on="0"/>
        <pt x="697" y="1734" on="0"/>
        <pt x="785" y="1695" on="0"/>
        <pt x="834" y="1695" on="1"/>
        <pt x="912" y="1695" on="0"/>
        <pt x="1066" y="1797" on="0"/>
        <pt x="1123" y="1866" on="1"/>
        <pt x="1149" y="1897" on="1"/>
        <pt x="1341" y="1774" on="1"/>
        <pt x="1315" y="1739" on="1"/>
        <pt x="1224" y="1625" on="0"/>
        <pt x="959" y="1475" on="0"/>
        <pt x="816" y="1475" on="1"/>
        <pt x="656" y="1475" on="0"/>
        <pt x="425" y="1644" on="0"/>
        <pt x="378" y="1761" on="1"/>
      </contour>
      <contour>
        <pt x="1025" y="603" on="1"/>
        <pt x="823" y="1130" on="1"/>
        <pt x="620" y="603" on="1"/>
      </contour>
      <contour>
        <pt x="693" y="1421" on="1"/>
        <pt x="969" y="1421" on="1"/>
        <pt x="1531" y="0" on="1"/>
        <pt x="1272" y="0" on="1"/>
        <pt x="1113" y="372" on="1"/>
        <pt x="533" y="372" on="1"/>
        <pt x="374" y="0" on="1"/>
        <pt x="130" y="0" on="1"/>
      </contour>
    </TTGlyph>
    <TTGlyph name="Acircumflex" xMin="130" yMin="0" xMax="1531" yMax="1943">
      <contour>
        <pt x="693" y="1421" on="1"/>
        <pt x="969" y="1421" on="1"/>
        <pt x="1531" y="0" on="1"/>
        <pt x="1272" y="0" on="1"/>
        <pt x="1113" y="372" on="1"/>
        <pt x="533" y="372" on="1"/>
        <pt x="374" y="0" on="1"/>
        <pt x="130" y="0" on="1"/>
      </contour>
      <contour>
        <pt x="1025" y="603" on="1"/>
        <pt x="823" y="1130" on="1"/>
        <pt x="620" y="603" on="1"/>
      </contour>
      <contour>
        <pt x="854" y="1943" on="1"/>
        <pt x="1197" y="1595" on="1"/>
        <pt x="1030" y="1450" on="1"/>
        <pt x="838" y="1644" on="1"/>
        <pt x="642" y="1453" on="1"/>
        <pt x="477" y="1586" on="1"/>
      </contour>
    </TTGlyph>
    <TTGlyph name="Adieresis" xMin="130" yMin="0" xMax="1531" yMax="1897">
      <contour>
        <pt x="693" y="1421" on="1"/>
        <pt x="969" y="1421" on="1"/>
        <pt x="1531" y="0" on="1"/>
        <pt x="1272" y="0" on="1"/>
        <pt x="1113" y="372" on="1"/>
        <pt x="533" y="372" on="1"/>
        <pt x="374" y="0" on="1"/>
        <pt x="130" y="0" on="1"/>
      </contour>
      <contour>
        <pt x="1025" y="603" on="1"/>
        <pt x="823" y="1130" on="1"/>
        <pt x="620" y="603" on="1"/>
      </contour>
      <contour>
        <pt x="439" y="1897" on="1"/>
        <pt x="733" y="1897" on="1"/>
        <pt x="733" y="1630" on="1"/>
        <pt x="439" y="1630" on="1"/>
      </contour>
      <contour>
        <pt x="932" y="1897" on="1"/>
        <pt x="1226" y="1897" on="1"/>
        <pt x="1226" y="1630" on="1"/>
        <pt x="932" y="1630" on="1"/>
      </contour>
    </TTGlyph>
    <TTGlyph name="Agrave" xMin="130" yMin="0" xMax="1531" yMax="1945">
      <contour>
        <pt x="693" y="1421" on="1"/>
        <pt x="969" y="1421" on="1"/>
        <pt x="1531" y="0" on="1"/>
        <pt x="1272" y="0" on="1"/>
        <pt x="1113" y="372" on="1"/>
        <pt x="533" y="372" on="1"/>
        <pt x="374" y="0" on="1"/>
        <pt x="130" y="0" on="1"/>
      </contour>
      <contour>
        <pt x="1025" y="603" on="1"/>
        <pt x="823" y="1130" on="1"/>
        <pt x="620" y="603" on="1"/>
      </contour>
      <contour>
        <pt x="589" y="1945" on="1"/>
        <pt x="1221" y="1592" on="1"/>
        <pt x="1108" y="1414" on="1"/>
        <pt x="467" y="1750" on="1"/>
      </contour>
    </TTGlyph>
    <TTGlyph name="Amacron" xMin="130" yMin="0" xMax="1531" yMax="1697">
      <contour>
        <pt x="693" y="1421" on="1"/>
        <pt x="969" y="1421" on="1"/>
        <pt x="1531" y="0" on="1"/>
        <pt x="1272" y="0" on="1"/>
        <pt x="1113" y="372" on="1"/>
        <pt x="533" y="372" on="1"/>
        <pt x="374" y="0" on="1"/>
        <pt x="130" y="0" on="1"/>
      </contour>
      <contour>
        <pt x="1025" y="603" on="1"/>
        <pt x="823" y="1130" on="1"/>
        <pt x="620" y="603" on="1"/>
      </contour>
      <contour>
        <pt x="382" y="1697" on="1"/>
        <pt x="1285" y="1697" on="1"/>
        <pt x="1285" y="1486" on="1"/>
        <pt x="382" y="1486" on="1"/>
      </contour>
    </TTGlyph>
    <TTGlyph name="Aogonek" xMin="130" yMin="-544" xMax="1613" yMax="1421">
      <contour>
        <pt x="130" y="0" on="1"/>
        <pt x="746" y="1421" on="1"/>
        <pt x="997" y="1421" on="1"/>
        <pt x="1613" y="0" on="1"/>
        <pt x="1555" y="0" on="1"/>
        <pt x="1453" y="-2" on="0"/>
        <pt x="1296" y="-59" on="0"/>
        <pt x="1218" y="-127" on="0"/>
        <pt x="1167" y="-214" on="0"/>
        <pt x="1157" y="-252" on="0"/>
        <pt x="1156" y="-264" on="1"/>
        <pt x="1156" y="-289" on="0"/>
        <pt x="1190" y="-328" on="0"/>
        <pt x="1232" y="-328" on="1"/>
        <pt x="1308" y="-328" on="0"/>
        <pt x="1399" y="-276" on="1"/>
        <pt x="1436" y="-254" on="1"/>
        <pt x="1521" y="-413" on="1"/>
        <pt x="1492" y="-434" on="1"/>
        <pt x="1436" y="-475" on="0"/>
        <pt x="1270" y="-544" on="0"/>
        <pt x="1177" y="-544" on="1"/>
        <pt x="1050" y="-544" on="0"/>
        <pt x="884" y="-407" on="0"/>
        <pt x="884" y="-300" on="1"/>
        <pt x="884" y="-179" on="0"/>
        <pt x="1130" y="63" on="0"/>
        <pt x="1292" y="118" on="1"/>
        <pt x="1179" y="372" on="1"/>
        <pt x="547" y="372" on="1"/>
        <pt x="374" y="0" on="1"/>
      </contour>
      <contour>
        <pt x="1082" y="603" on="1"/>
        <pt x="864" y="1130" on="1"/>
        <pt x="642" y="603" on="1"/>
      </contour>
    </TTGlyph>
    <TTGlyph name="Aring" xMin="130" yMin="0" xMax="1531" yMax="1873">
      <contour>
        <pt x="696" y="1873" on="0"/>
        <pt x="970" y="1873" on="0"/>
        <pt x="1170" y="1701" on="0"/>
        <pt x="1170" y="1577" on="1"/>
        <pt x="1170" y="1501" on="0"/>
        <pt x="1082" y="1373" on="0"/>
        <pt x="1008" y="1335" on="1"/>
        <pt x="1531" y="0" on="1"/>
        <pt x="1272" y="0" on="1"/>
        <pt x="1113" y="372" on="1"/>
        <pt x="533" y="372" on="1"/>
        <pt x="374" y="0" on="1"/>
        <pt x="130" y="0" on="1"/>
        <pt x="655" y="1337" on="1"/>
        <pt x="583" y="1375" on="0"/>
        <pt x="498" y="1502" on="0"/>
        <pt x="498" y="1577" on="1"/>
        <pt x="498" y="1700" on="0"/>
      </contour>
      <contour>
        <pt x="835" y="1687" on="1"/>
        <pt x="780" y="1687" on="0"/>
        <pt x="708" y="1622" on="0"/>
        <pt x="708" y="1532" on="0"/>
        <pt x="778" y="1465" on="0"/>
        <pt x="835" y="1465" on="1"/>
        <pt x="887" y="1465" on="0"/>
        <pt x="957" y="1532" on="0"/>
        <pt x="957" y="1577" on="1"/>
        <pt x="957" y="1621" on="0"/>
        <pt x="888" y="1687" on="0"/>
      </contour>
      <contour>
        <pt x="1025" y="603" on="1"/>
        <pt x="823" y="1130" on="1"/>
        <pt x="620" y="603" on="1"/>
      </contour>
    </TTGlyph>
    <TTGlyph name="Atilde" xMin="130" yMin="0" xMax="1531" yMax="1884">
      <contour>
        <pt x="1100" y="1884" on="1"/>
        <pt x="1305" y="1854" on="1"/>
        <pt x="1296" y="1812" on="1"/>
        <pt x="1294" y="1804" on="0"/>
        <pt x="1291" y="1786" on="1"/>
        <pt x="1284" y="1751" on="0"/>
        <pt x="1276" y="1712" on="0"/>
        <pt x="1255" y="1641" on="0"/>
        <pt x="1233" y="1598" on="0"/>
        <pt x="1193" y="1544" on="0"/>
        <pt x="1145" y="1514" on="0"/>
        <pt x="1075" y="1492" on="0"/>
        <pt x="1033" y="1492" on="1"/>
        <pt x="964" y="1495" on="0"/>
        <pt x="839" y="1553" on="0"/>
        <pt x="767" y="1619" on="0"/>
        <pt x="701" y="1674" on="0"/>
        <pt x="683" y="1674" on="1"/>
        <pt x="650" y="1674" on="0"/>
        <pt x="630" y="1591" on="1"/>
        <pt x="628" y="1582" on="0"/>
        <pt x="616" y="1525" on="1"/>
        <pt x="608" y="1487" on="1"/>
        <pt x="400" y="1513" on="1"/>
        <pt x="409" y="1556" on="1"/>
        <pt x="411" y="1564" on="0"/>
        <pt x="422" y="1620" on="0"/>
        <pt x="428" y="1647" on="0"/>
        <pt x="444" y="1702" on="0"/>
        <pt x="458" y="1734" on="0"/>
        <pt x="482" y="1782" on="0"/>
        <pt x="508" y="1811" on="0"/>
        <pt x="545" y="1845" on="0"/>
        <pt x="588" y="1863" on="0"/>
        <pt x="644" y="1876" on="0"/>
        <pt x="676" y="1876" on="1"/>
        <pt x="732" y="1874" on="0"/>
        <pt x="835" y="1835" on="0"/>
        <pt x="906" y="1782" on="0"/>
        <pt x="965" y="1731" on="0"/>
        <pt x="1011" y="1695" on="0"/>
        <pt x="1026" y="1695" on="1"/>
        <pt x="1032" y="1695" on="0"/>
        <pt x="1043" y="1700" on="0"/>
        <pt x="1053" y="1710" on="0"/>
        <pt x="1060" y="1722" on="0"/>
        <pt x="1067" y="1742" on="0"/>
        <pt x="1072" y="1758" on="0"/>
        <pt x="1078" y="1785" on="0"/>
        <pt x="1082" y="1803" on="0"/>
        <pt x="1089" y="1835" on="0"/>
        <pt x="1091" y="1845" on="1"/>
      </contour>
      <contour>
        <pt x="1025" y="603" on="1"/>
        <pt x="823" y="1130" on="1"/>
        <pt x="620" y="603" on="1"/>
      </contour>
      <contour>
        <pt x="693" y="1421" on="1"/>
        <pt x="969" y="1421" on="1"/>
        <pt x="1531" y="0" on="1"/>
        <pt x="1272" y="0" on="1"/>
        <pt x="1113" y="372" on="1"/>
        <pt x="533" y="372" on="1"/>
        <pt x="374" y="0" on="1"/>
        <pt x="130" y="0" on="1"/>
      </contour>
    </TTGlyph>
    <TTGlyph name="B" xMin="290" yMin="0" xMax="1463" yMax="1421">
      <contour>
        <pt x="775" y="1209" on="1"/>
        <pt x="542" y="1209" on="1"/>
        <pt x="542" y="815" on="1"/>
        <pt x="759" y="820" on="0"/>
        <pt x="845" y="835" on="1"/>
        <pt x="1053" y="873" on="0"/>
        <pt x="1067" y="1008" on="1"/>
        <pt x="1068" y="1019" on="0"/>
        <pt x="1068" y="1030" on="1"/>
        <pt x="1068" y="1062" on="0"/>
        <pt x="1046" y="1117" on="0"/>
        <pt x="989" y="1175" on="0"/>
        <pt x="865" y="1209" on="0"/>
      </contour>
      <contour>
        <pt x="791" y="655" on="1"/>
        <pt x="783" y="655" on="0"/>
        <pt x="542" y="644" on="1"/>
        <pt x="542" y="232" on="1"/>
        <pt x="766" y="232" on="1"/>
        <pt x="806" y="232" on="0"/>
        <pt x="863" y="233" on="0"/>
        <pt x="963" y="241" on="0"/>
        <pt x="1035" y="256" on="0"/>
        <pt x="1121" y="286" on="0"/>
        <pt x="1174" y="328" on="0"/>
        <pt x="1211" y="393" on="0"/>
        <pt x="1211" y="434" on="1"/>
        <pt x="1211" y="537" on="0"/>
        <pt x="984" y="655" on="0"/>
      </contour>
      <contour>
        <pt x="290" y="1421" on="1"/>
        <pt x="832" y="1421" on="1"/>
        <pt x="923" y="1421" on="0"/>
        <pt x="1074" y="1393" on="0"/>
        <pt x="1178" y="1348" on="0"/>
        <pt x="1259" y="1285" on="0"/>
        <pt x="1306" y="1220" on="0"/>
        <pt x="1336" y="1147" on="0"/>
        <pt x="1346" y="1088" on="0"/>
        <pt x="1346" y="1059" on="1"/>
        <pt x="1346" y="991" on="0"/>
        <pt x="1272" y="851" on="0"/>
        <pt x="1216" y="803" on="1"/>
        <pt x="1328" y="757" on="0"/>
        <pt x="1463" y="562" on="0"/>
        <pt x="1463" y="446" on="1"/>
        <pt x="1463" y="413" on="0"/>
        <pt x="1450" y="344" on="0"/>
        <pt x="1412" y="254" on="0"/>
        <pt x="1351" y="173" on="0"/>
        <pt x="1247" y="93" on="0"/>
        <pt x="1111" y="36" on="0"/>
        <pt x="912" y="0" on="0"/>
        <pt x="793" y="0" on="1"/>
        <pt x="290" y="0" on="1"/>
      </contour>
    </TTGlyph>
    <TTGlyph name="C" xMin="275" yMin="-20" xMax="1567" yMax="1431">
      <contour>
        <pt x="1085" y="1431" on="1"/>
        <pt x="1309" y="1431" on="0"/>
        <pt x="1510" y="1352" on="1"/>
        <pt x="1547" y="1337" on="1"/>
        <pt x="1468" y="1121" on="1"/>
        <pt x="1430" y="1134" on="1"/>
        <pt x="1236" y="1199" on="0"/>
        <pt x="1079" y="1199" on="1"/>
        <pt x="955" y="1199" on="0"/>
        <pt x="744" y="1118" on="0"/>
        <pt x="605" y="982" on="0"/>
        <pt x="528" y="806" on="0"/>
        <pt x="528" y="710" on="1"/>
        <pt x="528" y="611" on="0"/>
        <pt x="611" y="432" on="0"/>
        <pt x="760" y="297" on="0"/>
        <pt x="986" y="218" on="0"/>
        <pt x="1120" y="218" on="1"/>
        <pt x="1284" y="218" on="0"/>
        <pt x="1448" y="276" on="1"/>
        <pt x="1485" y="289" on="1"/>
        <pt x="1567" y="89" on="1"/>
        <pt x="1530" y="73" on="1"/>
        <pt x="1313" y="-20" on="0"/>
        <pt x="1072" y="-20" on="1"/>
        <pt x="885" y="-20" on="0"/>
        <pt x="580" y="94" on="0"/>
        <pt x="382" y="293" on="0"/>
        <pt x="275" y="557" on="0"/>
        <pt x="275" y="709" on="1"/>
        <pt x="275" y="863" on="0"/>
        <pt x="385" y="1127" on="0"/>
        <pt x="589" y="1321" on="0"/>
        <pt x="897" y="1431" on="0"/>
      </contour>
    </TTGlyph>
    <TTGlyph name="Cacute" xMin="275" yMin="-20" xMax="1567" yMax="1992">
      <contour>
        <pt x="1198" y="1992" on="1"/>
        <pt x="1322" y="1797" on="1"/>
        <pt x="672" y="1461" on="1"/>
        <pt x="559" y="1639" on="1"/>
      </contour>
      <contour>
        <pt x="275" y="709" on="1"/>
        <pt x="275" y="863" on="0"/>
        <pt x="385" y="1127" on="0"/>
        <pt x="589" y="1321" on="0"/>
        <pt x="897" y="1431" on="0"/>
        <pt x="1085" y="1431" on="1"/>
        <pt x="1309" y="1431" on="0"/>
        <pt x="1510" y="1352" on="1"/>
        <pt x="1547" y="1337" on="1"/>
        <pt x="1468" y="1121" on="1"/>
        <pt x="1430" y="1134" on="1"/>
        <pt x="1236" y="1199" on="0"/>
        <pt x="1079" y="1199" on="1"/>
        <pt x="955" y="1199" on="0"/>
        <pt x="744" y="1118" on="0"/>
        <pt x="605" y="982" on="0"/>
        <pt x="528" y="806" on="0"/>
        <pt x="528" y="710" on="1"/>
        <pt x="528" y="611" on="0"/>
        <pt x="611" y="432" on="0"/>
        <pt x="760" y="297" on="0"/>
        <pt x="986" y="218" on="0"/>
        <pt x="1120" y="218" on="1"/>
        <pt x="1284" y="218" on="0"/>
        <pt x="1448" y="276" on="1"/>
        <pt x="1485" y="289" on="1"/>
        <pt x="1567" y="89" on="1"/>
        <pt x="1530" y="73" on="1"/>
        <pt x="1313" y="-20" on="0"/>
        <pt x="1072" y="-20" on="1"/>
        <pt x="885" y="-20" on="0"/>
        <pt x="580" y="94" on="0"/>
        <pt x="382" y="293" on="0"/>
        <pt x="275" y="557" on="0"/>
      </contour>
    </TTGlyph>
    <TTGlyph name="Ccaron" xMin="275" yMin="-20" xMax="1567" yMax="1950">
      <contour>
        <pt x="275" y="709" on="1"/>
        <pt x="275" y="863" on="0"/>
        <pt x="385" y="1127" on="0"/>
        <pt x="589" y="1321" on="0"/>
        <pt x="897" y="1431" on="0"/>
        <pt x="1085" y="1431" on="1"/>
        <pt x="1309" y="1431" on="0"/>
        <pt x="1510" y="1352" on="1"/>
        <pt x="1547" y="1337" on="1"/>
        <pt x="1468" y="1121" on="1"/>
        <pt x="1430" y="1134" on="1"/>
        <pt x="1236" y="1199" on="0"/>
        <pt x="1079" y="1199" on="1"/>
        <pt x="955" y="1199" on="0"/>
        <pt x="744" y="1118" on="0"/>
        <pt x="605" y="982" on="0"/>
        <pt x="528" y="806" on="0"/>
        <pt x="528" y="710" on="1"/>
        <pt x="528" y="611" on="0"/>
        <pt x="611" y="432" on="0"/>
        <pt x="760" y="297" on="0"/>
        <pt x="986" y="218" on="0"/>
        <pt x="1120" y="218" on="1"/>
        <pt x="1284" y="218" on="0"/>
        <pt x="1448" y="276" on="1"/>
        <pt x="1485" y="289" on="1"/>
        <pt x="1567" y="89" on="1"/>
        <pt x="1530" y="73" on="1"/>
        <pt x="1313" y="-20" on="0"/>
        <pt x="1072" y="-20" on="1"/>
        <pt x="885" y="-20" on="0"/>
        <pt x="580" y="94" on="0"/>
        <pt x="382" y="293" on="0"/>
        <pt x="275" y="557" on="0"/>
      </contour>
      <contour>
        <pt x="977" y="1457" on="1"/>
        <pt x="629" y="1805" on="1"/>
        <pt x="799" y="1950" on="1"/>
        <pt x="993" y="1756" on="1"/>
        <pt x="1191" y="1947" on="1"/>
        <pt x="1354" y="1814" on="1"/>
      </contour>
    </TTGlyph>
    <TTGlyph name="Ccedilla" xMin="275" yMin="-506" xMax="1567" yMax="1431">
      <contour>
        <pt x="983" y="-317" on="1"/>
        <pt x="1005" y="-317" on="0"/>
        <pt x="1033" y="-305" on="0"/>
        <pt x="1041" y="-292" on="0"/>
        <pt x="1041" y="-286" on="1"/>
        <pt x="1041" y="-267" on="0"/>
        <pt x="956" y="-235" on="0"/>
        <pt x="851" y="-208" on="1"/>
        <pt x="827" y="-202" on="0"/>
        <pt x="814" y="-199" on="1"/>
        <pt x="771" y="-188" on="1"/>
        <pt x="831" y="9" on="1"/>
        <pt x="565" y="73" on="0"/>
        <pt x="275" y="454" on="0"/>
        <pt x="275" y="710" on="1"/>
        <pt x="275" y="863" on="0"/>
        <pt x="387" y="1128" on="0"/>
        <pt x="593" y="1321" on="0"/>
        <pt x="901" y="1431" on="0"/>
        <pt x="1087" y="1431" on="1"/>
        <pt x="1309" y="1431" on="0"/>
        <pt x="1510" y="1352" on="1"/>
        <pt x="1547" y="1337" on="1"/>
        <pt x="1468" y="1121" on="1"/>
        <pt x="1430" y="1134" on="1"/>
        <pt x="1237" y="1199" on="0"/>
        <pt x="1082" y="1199" on="1"/>
        <pt x="959" y="1199" on="0"/>
        <pt x="750" y="1118" on="0"/>
        <pt x="612" y="982" on="0"/>
        <pt x="535" y="806" on="0"/>
        <pt x="535" y="710" on="1"/>
        <pt x="535" y="611" on="0"/>
        <pt x="617" y="432" on="0"/>
        <pt x="766" y="297" on="0"/>
        <pt x="989" y="218" on="0"/>
        <pt x="1122" y="218" on="1"/>
        <pt x="1284" y="218" on="0"/>
        <pt x="1448" y="276" on="1"/>
        <pt x="1485" y="289" on="1"/>
        <pt x="1567" y="89" on="1"/>
        <pt x="1530" y="73" on="1"/>
        <pt x="1319" y="-18" on="0"/>
        <pt x="1079" y="-20" on="1"/>
        <pt x="1067" y="-66" on="1"/>
        <pt x="1099" y="-76" on="0"/>
        <pt x="1154" y="-103" on="0"/>
        <pt x="1218" y="-151" on="0"/>
        <pt x="1256" y="-227" on="0"/>
        <pt x="1256" y="-275" on="1"/>
        <pt x="1256" y="-368" on="0"/>
        <pt x="1099" y="-506" on="0"/>
        <pt x="977" y="-506" on="1"/>
        <pt x="932" y="-506" on="0"/>
        <pt x="843" y="-489" on="0"/>
        <pt x="701" y="-451" on="1"/>
        <pt x="658" y="-440" on="1"/>
        <pt x="717" y="-257" on="1"/>
        <pt x="760" y="-269" on="1"/>
        <pt x="933" y="-317" on="0"/>
      </contour>
    </TTGlyph>
    <TTGlyph name="Ccircumflex" xMin="275" yMin="-20" xMax="1567" yMax="1951">
      <contour>
        <pt x="275" y="709" on="1"/>
        <pt x="275" y="863" on="0"/>
        <pt x="385" y="1127" on="0"/>
        <pt x="589" y="1321" on="0"/>
        <pt x="897" y="1431" on="0"/>
        <pt x="1085" y="1431" on="1"/>
        <pt x="1309" y="1431" on="0"/>
        <pt x="1510" y="1352" on="1"/>
        <pt x="1547" y="1337" on="1"/>
        <pt x="1468" y="1121" on="1"/>
        <pt x="1430" y="1134" on="1"/>
        <pt x="1236" y="1199" on="0"/>
        <pt x="1079" y="1199" on="1"/>
        <pt x="955" y="1199" on="0"/>
        <pt x="744" y="1118" on="0"/>
        <pt x="605" y="982" on="0"/>
        <pt x="528" y="806" on="0"/>
        <pt x="528" y="710" on="1"/>
        <pt x="528" y="611" on="0"/>
        <pt x="611" y="432" on="0"/>
        <pt x="760" y="297" on="0"/>
        <pt x="986" y="218" on="0"/>
        <pt x="1120" y="218" on="1"/>
        <pt x="1284" y="218" on="0"/>
        <pt x="1448" y="276" on="1"/>
        <pt x="1485" y="289" on="1"/>
        <pt x="1567" y="89" on="1"/>
        <pt x="1530" y="73" on="1"/>
        <pt x="1313" y="-20" on="0"/>
        <pt x="1072" y="-20" on="1"/>
        <pt x="885" y="-20" on="0"/>
        <pt x="580" y="94" on="0"/>
        <pt x="382" y="293" on="0"/>
        <pt x="275" y="557" on="0"/>
      </contour>
      <contour>
        <pt x="980" y="1951" on="1"/>
        <pt x="1328" y="1603" on="1"/>
        <pt x="1158" y="1458" on="1"/>
        <pt x="964" y="1652" on="1"/>
        <pt x="766" y="1461" on="1"/>
        <pt x="599" y="1594" on="1"/>
      </contour>
    </TTGlyph>
    <TTGlyph name="Cdotaccent" xMin="275" yMin="-20" xMax="1567" yMax="1829">
      <contour>
        <pt x="781" y="1829" on="1"/>
        <pt x="1106" y="1829" on="1"/>
        <pt x="1106" y="1537" on="1"/>
        <pt x="781" y="1537" on="1"/>
      </contour>
      <contour>
        <pt x="275" y="709" on="1"/>
        <pt x="275" y="863" on="0"/>
        <pt x="385" y="1127" on="0"/>
        <pt x="589" y="1321" on="0"/>
        <pt x="897" y="1431" on="0"/>
        <pt x="1085" y="1431" on="1"/>
        <pt x="1309" y="1431" on="0"/>
        <pt x="1510" y="1352" on="1"/>
        <pt x="1547" y="1337" on="1"/>
        <pt x="1468" y="1121" on="1"/>
        <pt x="1430" y="1134" on="1"/>
        <pt x="1236" y="1199" on="0"/>
        <pt x="1079" y="1199" on="1"/>
        <pt x="955" y="1199" on="0"/>
        <pt x="744" y="1118" on="0"/>
        <pt x="605" y="982" on="0"/>
        <pt x="528" y="806" on="0"/>
        <pt x="528" y="710" on="1"/>
        <pt x="528" y="611" on="0"/>
        <pt x="611" y="432" on="0"/>
        <pt x="760" y="297" on="0"/>
        <pt x="986" y="218" on="0"/>
        <pt x="1120" y="218" on="1"/>
        <pt x="1284" y="218" on="0"/>
        <pt x="1448" y="276" on="1"/>
        <pt x="1485" y="289" on="1"/>
        <pt x="1567" y="89" on="1"/>
        <pt x="1530" y="73" on="1"/>
        <pt x="1313" y="-20" on="0"/>
        <pt x="1072" y="-20" on="1"/>
        <pt x="885" y="-20" on="0"/>
        <pt x="580" y="94" on="0"/>
        <pt x="382" y="293" on="0"/>
        <pt x="275" y="557" on="0"/>
      </contour>
    </TTGlyph>
    <TTGlyph name="D" xMin="298" yMin="0" xMax="1610" yMax="1421">
      <contour>
        <pt x="809" y="1189" on="1"/>
        <pt x="550" y="1189" on="1"/>
        <pt x="550" y="232" on="1"/>
        <pt x="733" y="232" on="1"/>
        <pt x="802" y="232" on="0"/>
        <pt x="892" y="236" on="0"/>
        <pt x="1038" y="260" on="0"/>
        <pt x="1141" y="303" on="0"/>
        <pt x="1252" y="390" on="0"/>
        <pt x="1289" y="452" on="1"/>
        <pt x="1357" y="566" on="0"/>
        <pt x="1357" y="719" on="1"/>
        <pt x="1357" y="807" on="0"/>
        <pt x="1308" y="955" on="0"/>
        <pt x="1227" y="1056" on="0"/>
        <pt x="1118" y="1132" on="0"/>
        <pt x="1006" y="1174" on="0"/>
        <pt x="947" y="1182" on="1"/>
        <pt x="897" y="1189" on="0"/>
      </contour>
      <contour>
        <pt x="802" y="1421" on="1"/>
        <pt x="936" y="1421" on="0"/>
        <pt x="1162" y="1379" on="0"/>
        <pt x="1326" y="1307" on="0"/>
        <pt x="1454" y="1205" on="0"/>
        <pt x="1536" y="1089" on="0"/>
        <pt x="1589" y="953" on="0"/>
        <pt x="1610" y="822" on="0"/>
        <pt x="1610" y="752" on="1"/>
        <pt x="1610" y="660" on="0"/>
        <pt x="1580" y="489" on="0"/>
        <pt x="1504" y="312" on="0"/>
        <pt x="1385" y="171" on="0"/>
        <pt x="1194" y="58" on="0"/>
        <pt x="1071" y="31" on="1"/>
        <pt x="1008" y="17" on="0"/>
        <pt x="854" y="2" on="0"/>
        <pt x="755" y="0" on="0"/>
        <pt x="666" y="0" on="1"/>
        <pt x="298" y="0" on="1"/>
        <pt x="298" y="1421" on="1"/>
      </contour>
    </TTGlyph>
    <TTGlyph name="Dcaron" xMin="290" yMin="0" xMax="1602" yMax="1951">
      <contour>
        <pt x="891" y="1458" on="1"/>
        <pt x="579" y="1806" on="1"/>
        <pt x="731" y="1951" on="1"/>
        <pt x="906" y="1757" on="1"/>
        <pt x="1083" y="1948" on="1"/>
        <pt x="1233" y="1818" on="1"/>
      </contour>
      <contour>
        <pt x="801" y="1189" on="1"/>
        <pt x="542" y="1189" on="1"/>
        <pt x="542" y="232" on="1"/>
        <pt x="725" y="232" on="1"/>
        <pt x="794" y="232" on="0"/>
        <pt x="884" y="236" on="0"/>
        <pt x="1030" y="260" on="0"/>
        <pt x="1133" y="303" on="0"/>
        <pt x="1244" y="390" on="0"/>
        <pt x="1281" y="452" on="1"/>
        <pt x="1349" y="566" on="0"/>
        <pt x="1349" y="719" on="1"/>
        <pt x="1349" y="807" on="0"/>
        <pt x="1300" y="955" on="0"/>
        <pt x="1219" y="1056" on="0"/>
        <pt x="1110" y="1132" on="0"/>
        <pt x="998" y="1174" on="0"/>
        <pt x="939" y="1182" on="1"/>
        <pt x="889" y="1189" on="0"/>
      </contour>
      <contour>
        <pt x="794" y="1421" on="1"/>
        <pt x="928" y="1421" on="0"/>
        <pt x="1154" y="1379" on="0"/>
        <pt x="1318" y="1307" on="0"/>
        <pt x="1446" y="1205" on="0"/>
        <pt x="1528" y="1089" on="0"/>
        <pt x="1581" y="953" on="0"/>
        <pt x="1602" y="822" on="0"/>
        <pt x="1602" y="752" on="1"/>
        <pt x="1602" y="660" on="0"/>
        <pt x="1572" y="490" on="0"/>
        <pt x="1496" y="313" on="0"/>
        <pt x="1377" y="172" on="0"/>
        <pt x="1186" y="59" on="0"/>
        <pt x="1063" y="31" on="1"/>
        <pt x="924" y="0" on="0"/>
        <pt x="658" y="0" on="1"/>
        <pt x="290" y="0" on="1"/>
        <pt x="290" y="1421" on="1"/>
      </contour>
    </TTGlyph>
    <TTGlyph name="Dcroat" xMin="117" yMin="0" xMax="1655" yMax="1421">
      <contour>
        <pt x="824" y="1189" on="1"/>
        <pt x="587" y="1189" on="1"/>
        <pt x="587" y="849" on="1"/>
        <pt x="848" y="849" on="1"/>
        <pt x="848" y="617" on="1"/>
        <pt x="587" y="617" on="1"/>
        <pt x="587" y="232" on="1"/>
        <pt x="753" y="232" on="1"/>
        <pt x="818" y="232" on="0"/>
        <pt x="921" y="238" on="0"/>
        <pt x="1062" y="260" on="0"/>
        <pt x="1169" y="299" on="0"/>
        <pt x="1281" y="373" on="0"/>
        <pt x="1354" y="473" on="0"/>
        <pt x="1401" y="624" on="0"/>
        <pt x="1401" y="719" on="1"/>
        <pt x="1401" y="784" on="0"/>
        <pt x="1373" y="905" on="0"/>
        <pt x="1293" y="1034" on="0"/>
        <pt x="1169" y="1128" on="0"/>
        <pt x="959" y="1189" on="0"/>
      </contour>
      <contour>
        <pt x="335" y="1421" on="1"/>
        <pt x="811" y="1421" on="1"/>
        <pt x="856" y="1421" on="0"/>
        <pt x="940" y="1417" on="0"/>
        <pt x="1071" y="1402" on="0"/>
        <pt x="1185" y="1376" on="0"/>
        <pt x="1321" y="1326" on="0"/>
        <pt x="1431" y="1259" on="0"/>
        <pt x="1538" y="1156" on="0"/>
        <pt x="1611" y="1030" on="0"/>
        <pt x="1655" y="855" on="0"/>
        <pt x="1655" y="752" on="1"/>
        <pt x="1655" y="0" on="0"/>
        <pt x="747" y="0" on="1"/>
        <pt x="335" y="0" on="1"/>
        <pt x="335" y="617" on="1"/>
        <pt x="117" y="617" on="1"/>
        <pt x="117" y="849" on="1"/>
        <pt x="335" y="849" on="1"/>
      </contour>
    </TTGlyph>
    <TTGlyph name="E" xMin="290" yMin="0" xMax="1287" yMax="1421">
      <contour>
        <pt x="290" y="0" on="1"/>
        <pt x="290" y="1421" on="1"/>
        <pt x="1287" y="1421" on="1"/>
        <pt x="1287" y="1189" on="1"/>
        <pt x="543" y="1189" on="1"/>
        <pt x="543" y="848" on="1"/>
        <pt x="1232" y="848" on="1"/>
        <pt x="1232" y="616" on="1"/>
        <pt x="543" y="616" on="1"/>
        <pt x="543" y="232" on="1"/>
        <pt x="1287" y="232" on="1"/>
        <pt x="1287" y="0" on="1"/>
      </contour>
    </TTGlyph>
    <TTGlyph name="Eacute" xMin="290" yMin="0" xMax="1287" yMax="1965">
      <contour>
        <pt x="290" y="1421" on="1"/>
        <pt x="1287" y="1421" on="1"/>
        <pt x="1287" y="1189" on="1"/>
        <pt x="543" y="1189" on="1"/>
        <pt x="543" y="848" on="1"/>
        <pt x="1232" y="848" on="1"/>
        <pt x="1232" y="616" on="1"/>
        <pt x="543" y="616" on="1"/>
        <pt x="543" y="232" on="1"/>
        <pt x="1287" y="232" on="1"/>
        <pt x="1287" y="0" on="1"/>
        <pt x="290" y="0" on="1"/>
      </contour>
      <contour>
        <pt x="1090" y="1965" on="1"/>
        <pt x="1201" y="1770" on="1"/>
        <pt x="536" y="1434" on="1"/>
        <pt x="434" y="1612" on="1"/>
      </contour>
    </TTGlyph>
    <TTGlyph name="Ebreve" xMin="290" yMin="0" xMax="1298" yMax="1897">
      <contour>
        <pt x="1117" y="1897" on="1"/>
        <pt x="1298" y="1774" on="1"/>
        <pt x="1272" y="1739" on="1"/>
        <pt x="1173" y="1608" on="0"/>
        <pt x="911" y="1477" on="0"/>
        <pt x="768" y="1477" on="1"/>
        <pt x="611" y="1477" on="0"/>
        <pt x="382" y="1628" on="0"/>
        <pt x="334" y="1761" on="1"/>
        <pt x="322" y="1794" on="1"/>
        <pt x="516" y="1897" on="1"/>
        <pt x="534" y="1859" on="1"/>
        <pt x="577" y="1782" on="0"/>
        <pt x="712" y="1695" on="0"/>
        <pt x="790" y="1695" on="1"/>
        <pt x="950" y="1695" on="0"/>
        <pt x="1093" y="1866" on="1"/>
      </contour>
      <contour>
        <pt x="290" y="0" on="1"/>
        <pt x="290" y="1421" on="1"/>
        <pt x="1287" y="1421" on="1"/>
        <pt x="1287" y="1189" on="1"/>
        <pt x="543" y="1189" on="1"/>
        <pt x="543" y="848" on="1"/>
        <pt x="1232" y="848" on="1"/>
        <pt x="1232" y="616" on="1"/>
        <pt x="543" y="616" on="1"/>
        <pt x="543" y="232" on="1"/>
        <pt x="1287" y="232" on="1"/>
        <pt x="1287" y="0" on="1"/>
      </contour>
    </TTGlyph>
    <TTGlyph name="Ecaron" xMin="290" yMin="0" xMax="1287" yMax="1950">
      <contour>
        <pt x="290" y="0" on="1"/>
        <pt x="290" y="1421" on="1"/>
        <pt x="1287" y="1421" on="1"/>
        <pt x="1287" y="1189" on="1"/>
        <pt x="543" y="1189" on="1"/>
        <pt x="543" y="848" on="1"/>
        <pt x="1232" y="848" on="1"/>
        <pt x="1232" y="616" on="1"/>
        <pt x="543" y="616" on="1"/>
        <pt x="543" y="232" on="1"/>
        <pt x="1287" y="232" on="1"/>
        <pt x="1287" y="0" on="1"/>
      </contour>
      <contour>
        <pt x="772" y="1457" on="1"/>
        <pt x="422" y="1805" on="1"/>
        <pt x="580" y="1950" on="1"/>
        <pt x="789" y="1756" on="1"/>
        <pt x="1002" y="1947" on="1"/>
        <pt x="1158" y="1814" on="1"/>
      </contour>
    </TTGlyph>
    <TTGlyph name="Ecircumflex" xMin="290" yMin="0" xMax="1287" yMax="1951">
      <contour>
        <pt x="290" y="1421" on="1"/>
        <pt x="1287" y="1421" on="1"/>
        <pt x="1287" y="1189" on="1"/>
        <pt x="543" y="1189" on="1"/>
        <pt x="543" y="848" on="1"/>
        <pt x="1232" y="848" on="1"/>
        <pt x="1232" y="616" on="1"/>
        <pt x="543" y="616" on="1"/>
        <pt x="543" y="232" on="1"/>
        <pt x="1287" y="232" on="1"/>
        <pt x="1287" y="0" on="1"/>
        <pt x="290" y="0" on="1"/>
      </contour>
      <contour>
        <pt x="806" y="1951" on="1"/>
        <pt x="1156" y="1602" on="1"/>
        <pt x="995" y="1458" on="1"/>
        <pt x="788" y="1652" on="1"/>
        <pt x="576" y="1461" on="1"/>
        <pt x="420" y="1594" on="1"/>
      </contour>
    </TTGlyph>
    <TTGlyph name="Edieresis" xMin="290" yMin="0" xMax="1287" yMax="1898">
      <contour>
        <pt x="290" y="1421" on="1"/>
        <pt x="1287" y="1421" on="1"/>
        <pt x="1287" y="1189" on="1"/>
        <pt x="543" y="1189" on="1"/>
        <pt x="543" y="848" on="1"/>
        <pt x="1232" y="848" on="1"/>
        <pt x="1232" y="616" on="1"/>
        <pt x="543" y="616" on="1"/>
        <pt x="543" y="232" on="1"/>
        <pt x="1287" y="232" on="1"/>
        <pt x="1287" y="0" on="1"/>
        <pt x="290" y="0" on="1"/>
      </contour>
      <contour>
        <pt x="390" y="1898" on="1"/>
        <pt x="680" y="1898" on="1"/>
        <pt x="680" y="1631" on="1"/>
        <pt x="390" y="1631" on="1"/>
      </contour>
      <contour>
        <pt x="897" y="1898" on="1"/>
        <pt x="1187" y="1898" on="1"/>
        <pt x="1187" y="1631" on="1"/>
        <pt x="897" y="1631" on="1"/>
      </contour>
    </TTGlyph>
    <TTGlyph name="Edotaccent" xMin="290" yMin="0" xMax="1287" yMax="1829">
      <contour>
        <pt x="290" y="0" on="1"/>
        <pt x="290" y="1421" on="1"/>
        <pt x="1287" y="1421" on="1"/>
        <pt x="1287" y="1189" on="1"/>
        <pt x="543" y="1189" on="1"/>
        <pt x="543" y="848" on="1"/>
        <pt x="1232" y="848" on="1"/>
        <pt x="1232" y="616" on="1"/>
        <pt x="543" y="616" on="1"/>
        <pt x="543" y="232" on="1"/>
        <pt x="1287" y="232" on="1"/>
        <pt x="1287" y="0" on="1"/>
      </contour>
      <contour>
        <pt x="603" y="1829" on="1"/>
        <pt x="951" y="1829" on="1"/>
        <pt x="951" y="1537" on="1"/>
        <pt x="603" y="1537" on="1"/>
      </contour>
    </TTGlyph>
    <TTGlyph name="Egrave" xMin="290" yMin="0" xMax="1287" yMax="1965">
      <contour>
        <pt x="290" y="1421" on="1"/>
        <pt x="1287" y="1421" on="1"/>
        <pt x="1287" y="1189" on="1"/>
        <pt x="543" y="1189" on="1"/>
        <pt x="543" y="848" on="1"/>
        <pt x="1232" y="848" on="1"/>
        <pt x="1232" y="616" on="1"/>
        <pt x="543" y="616" on="1"/>
        <pt x="543" y="232" on="1"/>
        <pt x="1287" y="232" on="1"/>
        <pt x="1287" y="0" on="1"/>
        <pt x="290" y="0" on="1"/>
      </contour>
      <contour>
        <pt x="506" y="1965" on="1"/>
        <pt x="1162" y="1612" on="1"/>
        <pt x="1058" y="1434" on="1"/>
        <pt x="393" y="1770" on="1"/>
      </contour>
    </TTGlyph>
    <TTGlyph name="Emacron" xMin="290" yMin="0" xMax="1287" yMax="1697">
      <contour>
        <pt x="290" y="0" on="1"/>
        <pt x="290" y="1421" on="1"/>
        <pt x="1287" y="1421" on="1"/>
        <pt x="1287" y="1189" on="1"/>
        <pt x="543" y="1189" on="1"/>
        <pt x="543" y="848" on="1"/>
        <pt x="1232" y="848" on="1"/>
        <pt x="1232" y="616" on="1"/>
        <pt x="543" y="616" on="1"/>
        <pt x="543" y="232" on="1"/>
        <pt x="1287" y="232" on="1"/>
        <pt x="1287" y="0" on="1"/>
      </contour>
      <contour>
        <pt x="360" y="1697" on="1"/>
        <pt x="1257" y="1697" on="1"/>
        <pt x="1257" y="1486" on="1"/>
        <pt x="360" y="1486" on="1"/>
      </contour>
    </TTGlyph>
    <TTGlyph name="Eng" xMin="290" yMin="-365" xMax="1602" yMax="1483">
      <contour>
        <pt x="1349" y="29" on="1"/>
        <pt x="1349" y="845" on="1"/>
        <pt x="1349" y="882" on="0"/>
        <pt x="1347" y="929" on="0"/>
        <pt x="1334" y="1019" on="0"/>
        <pt x="1310" y="1080" on="0"/>
        <pt x="1259" y="1155" on="0"/>
        <pt x="1189" y="1200" on="0"/>
        <pt x="1077" y="1232" on="0"/>
        <pt x="1007" y="1232" on="1"/>
        <pt x="836" y="1232" on="0"/>
        <pt x="550" y="1119" on="1"/>
        <pt x="550" y="0" on="1"/>
        <pt x="290" y="0" on="1"/>
        <pt x="290" y="1421" on="1"/>
        <pt x="468" y="1421" on="1"/>
        <pt x="511" y="1341" on="1"/>
        <pt x="865" y="1483" on="0"/>
        <pt x="1082" y="1483" on="1"/>
        <pt x="1306" y="1483" on="0"/>
        <pt x="1570" y="1257" on="0"/>
        <pt x="1595" y="1072" on="1"/>
        <pt x="1602" y="1019" on="0"/>
        <pt x="1602" y="916" on="1"/>
        <pt x="1602" y="6" on="1"/>
        <pt x="1602" y="-97" on="0"/>
        <pt x="1539" y="-247" on="0"/>
        <pt x="1430" y="-328" on="0"/>
        <pt x="1303" y="-365" on="0"/>
        <pt x="1229" y="-365" on="1"/>
        <pt x="1117" y="-365" on="0"/>
        <pt x="968" y="-329" on="1"/>
        <pt x="926" y="-319" on="1"/>
        <pt x="971" y="-119" on="1"/>
        <pt x="1015" y="-127" on="1"/>
        <pt x="1119" y="-146" on="0"/>
        <pt x="1178" y="-146" on="1"/>
        <pt x="1226" y="-146" on="0"/>
        <pt x="1295" y="-119" on="0"/>
        <pt x="1328" y="-85" on="0"/>
        <pt x="1347" y="-28" on="0"/>
        <pt x="1349" y="4" on="0"/>
      </contour>
    </TTGlyph>
    <TTGlyph name="Eogonek" xMin="290" yMin="-543" xMax="1297" yMax="1421">
      <contour>
        <pt x="290" y="1421" on="1"/>
        <pt x="1287" y="1421" on="1"/>
        <pt x="1287" y="1189" on="1"/>
        <pt x="543" y="1189" on="1"/>
        <pt x="543" y="848" on="1"/>
        <pt x="1232" y="848" on="1"/>
        <pt x="1232" y="616" on="1"/>
        <pt x="543" y="616" on="1"/>
        <pt x="543" y="232" on="1"/>
        <pt x="1287" y="232" on="1"/>
        <pt x="1287" y="48" on="1"/>
        <pt x="1270" y="36" on="1"/>
        <pt x="1238" y="14" on="0"/>
        <pt x="1137" y="-55" on="0"/>
        <pt x="1082" y="-93" on="0"/>
        <pt x="1012" y="-148" on="0"/>
        <pt x="977" y="-189" on="0"/>
        <pt x="951" y="-239" on="0"/>
        <pt x="951" y="-263" on="1"/>
        <pt x="951" y="-294" on="0"/>
        <pt x="995" y="-328" on="0"/>
        <pt x="1030" y="-328" on="1"/>
        <pt x="1092" y="-328" on="0"/>
        <pt x="1174" y="-275" on="1"/>
        <pt x="1211" y="-252" on="1"/>
        <pt x="1297" y="-412" on="1"/>
        <pt x="1268" y="-433" on="1"/>
        <pt x="1117" y="-543" on="0"/>
        <pt x="972" y="-543" on="1"/>
        <pt x="845" y="-543" on="0"/>
        <pt x="682" y="-407" on="0"/>
        <pt x="682" y="-299" on="1"/>
        <pt x="682" y="-137" on="0"/>
        <pt x="864" y="0" on="1"/>
        <pt x="290" y="0" on="1"/>
      </contour>
    </TTGlyph>
    <TTGlyph name="Eth" xMin="117" yMin="0" xMax="1655" yMax="1421">
      <contour>
        <pt x="335" y="1421" on="1"/>
        <pt x="811" y="1421" on="1"/>
        <pt x="856" y="1421" on="0"/>
        <pt x="940" y="1417" on="0"/>
        <pt x="1071" y="1402" on="0"/>
        <pt x="1185" y="1376" on="0"/>
        <pt x="1321" y="1326" on="0"/>
        <pt x="1431" y="1259" on="0"/>
        <pt x="1538" y="1156" on="0"/>
        <pt x="1611" y="1030" on="0"/>
        <pt x="1655" y="855" on="0"/>
        <pt x="1655" y="752" on="1"/>
        <pt x="1655" y="0" on="0"/>
        <pt x="747" y="0" on="1"/>
        <pt x="335" y="0" on="1"/>
        <pt x="335" y="617" on="1"/>
        <pt x="117" y="617" on="1"/>
        <pt x="117" y="849" on="1"/>
        <pt x="335" y="849" on="1"/>
      </contour>
      <contour>
        <pt x="824" y="1189" on="1"/>
        <pt x="587" y="1189" on="1"/>
        <pt x="587" y="849" on="1"/>
        <pt x="848" y="849" on="1"/>
        <pt x="848" y="617" on="1"/>
        <pt x="587" y="617" on="1"/>
        <pt x="587" y="232" on="1"/>
        <pt x="753" y="232" on="1"/>
        <pt x="818" y="232" on="0"/>
        <pt x="921" y="238" on="0"/>
        <pt x="1062" y="260" on="0"/>
        <pt x="1169" y="299" on="0"/>
        <pt x="1281" y="373" on="0"/>
        <pt x="1354" y="473" on="0"/>
        <pt x="1401" y="624" on="0"/>
        <pt x="1401" y="719" on="1"/>
        <pt x="1401" y="784" on="0"/>
        <pt x="1373" y="905" on="0"/>
        <pt x="1293" y="1034" on="0"/>
        <pt x="1169" y="1128" on="0"/>
        <pt x="959" y="1189" on="0"/>
      </contour>
    </TTGlyph>
    <TTGlyph name="Euro" xMin="9" yMin="-61" xMax="1306" yMax="1472">
      <contour>
        <pt x="240" y="463" on="1"/>
        <pt x="9" y="463" on="1"/>
        <pt x="9" y="675" on="1"/>
        <pt x="211" y="675" on="1"/>
        <pt x="210" y="685" on="0"/>
        <pt x="210" y="708" on="1"/>
        <pt x="210" y="752" on="0"/>
        <pt x="215" y="807" on="1"/>
        <pt x="73" y="807" on="1"/>
        <pt x="73" y="1019" on="1"/>
        <pt x="260" y="1019" on="1"/>
        <pt x="334" y="1229" on="0"/>
        <pt x="666" y="1472" on="0"/>
        <pt x="890" y="1472" on="1"/>
        <pt x="1072" y="1472" on="0"/>
        <pt x="1254" y="1393" on="1"/>
        <pt x="1289" y="1378" on="1"/>
        <pt x="1216" y="1160" on="1"/>
        <pt x="1176" y="1176" on="1"/>
        <pt x="1009" y="1240" on="0"/>
        <pt x="887" y="1240" on="1"/>
        <pt x="770" y="1240" on="0"/>
        <pt x="582" y="1122" on="0"/>
        <pt x="523" y="1019" on="1"/>
        <pt x="949" y="1019" on="1"/>
        <pt x="949" y="807" on="1"/>
        <pt x="452" y="807" on="1"/>
        <pt x="445" y="762" on="0"/>
        <pt x="445" y="708" on="1"/>
        <pt x="445" y="686" on="0"/>
        <pt x="446" y="675" on="1"/>
        <pt x="885" y="675" on="1"/>
        <pt x="885" y="463" on="1"/>
        <pt x="495" y="463" on="1"/>
        <pt x="551" y="334" on="0"/>
        <pt x="769" y="177" on="0"/>
        <pt x="918" y="177" on="1"/>
        <pt x="1047" y="177" on="0"/>
        <pt x="1193" y="234" on="1"/>
        <pt x="1232" y="249" on="1"/>
        <pt x="1306" y="49" on="1"/>
        <pt x="1273" y="33" on="1"/>
        <pt x="1077" y="-61" on="0"/>
        <pt x="880" y="-61" on="1"/>
        <pt x="642" y="-61" on="0"/>
        <pt x="301" y="225" on="0"/>
      </contour>
    </TTGlyph>
    <TTGlyph name="F" xMin="290" yMin="0" xMax="1277" yMax="1421">
      <contour>
        <pt x="543" y="1189" on="1"/>
        <pt x="543" y="848" on="1"/>
        <pt x="1217" y="848" on="1"/>
        <pt x="1217" y="616" on="1"/>
        <pt x="543" y="616" on="1"/>
        <pt x="543" y="0" on="1"/>
        <pt x="290" y="0" on="1"/>
        <pt x="290" y="1421" on="1"/>
        <pt x="1277" y="1421" on="1"/>
        <pt x="1277" y="1189" on="1"/>
      </contour>
    </TTGlyph>
    <TTGlyph name="G" xMin="215" yMin="-20" xMax="1605" yMax="1432">
      <contour>
        <pt x="1605" y="206" on="1"/>
        <pt x="1398" y="-20" on="0"/>
        <pt x="1013" y="-20" on="1"/>
        <pt x="849" y="-20" on="0"/>
        <pt x="578" y="65" on="0"/>
        <pt x="396" y="206" on="0"/>
        <pt x="271" y="396" on="0"/>
        <pt x="215" y="601" on="0"/>
        <pt x="215" y="709" on="1"/>
        <pt x="215" y="822" on="0"/>
        <pt x="277" y="1032" on="0"/>
        <pt x="408" y="1216" on="0"/>
        <pt x="593" y="1353" on="0"/>
        <pt x="855" y="1432" on="0"/>
        <pt x="1010" y="1432" on="1"/>
        <pt x="1293" y="1432" on="0"/>
        <pt x="1519" y="1306" on="1"/>
        <pt x="1554" y="1286" on="1"/>
        <pt x="1449" y="1088" on="1"/>
        <pt x="1413" y="1107" on="1"/>
        <pt x="1342" y="1143" on="0"/>
        <pt x="1128" y="1200" on="0"/>
        <pt x="1020" y="1200" on="1"/>
        <pt x="914" y="1200" on="0"/>
        <pt x="716" y="1134" on="0"/>
        <pt x="561" y="1014" on="0"/>
        <pt x="468" y="829" on="0"/>
        <pt x="468" y="719" on="1"/>
        <pt x="468" y="574" on="0"/>
        <pt x="620" y="342" on="0"/>
        <pt x="889" y="213" on="0"/>
        <pt x="1057" y="213" on="1"/>
        <pt x="1241" y="213" on="0"/>
        <pt x="1358" y="296" on="1"/>
        <pt x="1358" y="569" on="1"/>
        <pt x="913" y="569" on="1"/>
        <pt x="913" y="791" on="1"/>
        <pt x="1605" y="791" on="1"/>
      </contour>
    </TTGlyph>
    <TTGlyph name="Gbreve" xMin="216" yMin="-20" xMax="1605" yMax="1897">
      <contour>
        <pt x="501" y="1794" on="1"/>
        <pt x="712" y="1897" on="1"/>
        <pt x="733" y="1859" on="1"/>
        <pt x="744" y="1838" on="0"/>
        <pt x="774" y="1796" on="0"/>
        <pt x="833" y="1734" on="0"/>
        <pt x="920" y="1695" on="0"/>
        <pt x="970" y="1695" on="1"/>
        <pt x="1048" y="1695" on="0"/>
        <pt x="1202" y="1797" on="0"/>
        <pt x="1259" y="1866" on="1"/>
        <pt x="1285" y="1897" on="1"/>
        <pt x="1472" y="1774" on="1"/>
        <pt x="1446" y="1739" on="1"/>
        <pt x="1361" y="1628" on="0"/>
        <pt x="1099" y="1475" on="0"/>
        <pt x="953" y="1475" on="1"/>
        <pt x="870" y="1475" on="0"/>
        <pt x="722" y="1525" on="0"/>
        <pt x="613" y="1608" on="0"/>
        <pt x="536" y="1707" on="0"/>
        <pt x="514" y="1761" on="1"/>
      </contour>
      <contour>
        <pt x="1605" y="206" on="1"/>
        <pt x="1398" y="-20" on="0"/>
        <pt x="1013" y="-20" on="1"/>
        <pt x="853" y="-20" on="0"/>
        <pt x="587" y="60" on="0"/>
        <pt x="403" y="196" on="0"/>
        <pt x="275" y="380" on="0"/>
        <pt x="216" y="586" on="0"/>
        <pt x="216" y="697" on="1"/>
        <pt x="216" y="809" on="0"/>
        <pt x="277" y="1020" on="0"/>
        <pt x="406" y="1209" on="0"/>
        <pt x="590" y="1350" on="0"/>
        <pt x="854" y="1432" on="0"/>
        <pt x="1010" y="1432" on="1"/>
        <pt x="1293" y="1432" on="0"/>
        <pt x="1519" y="1306" on="1"/>
        <pt x="1554" y="1286" on="1"/>
        <pt x="1449" y="1088" on="1"/>
        <pt x="1413" y="1107" on="1"/>
        <pt x="1342" y="1143" on="0"/>
        <pt x="1128" y="1200" on="0"/>
        <pt x="1020" y="1200" on="1"/>
        <pt x="914" y="1200" on="0"/>
        <pt x="716" y="1134" on="0"/>
        <pt x="561" y="1014" on="0"/>
        <pt x="468" y="829" on="0"/>
        <pt x="468" y="719" on="1"/>
        <pt x="468" y="574" on="0"/>
        <pt x="620" y="342" on="0"/>
        <pt x="889" y="213" on="0"/>
        <pt x="1057" y="213" on="1"/>
        <pt x="1241" y="213" on="0"/>
        <pt x="1358" y="296" on="1"/>
        <pt x="1358" y="569" on="1"/>
        <pt x="913" y="569" on="1"/>
        <pt x="913" y="791" on="1"/>
        <pt x="1605" y="791" on="1"/>
      </contour>
    </TTGlyph>
    <TTGlyph name="Gcircumflex" xMin="215" yMin="-20" xMax="1605" yMax="1951">
      <contour>
        <pt x="1605" y="206" on="1"/>
        <pt x="1398" y="-20" on="0"/>
        <pt x="1013" y="-20" on="1"/>
        <pt x="849" y="-20" on="0"/>
        <pt x="578" y="65" on="0"/>
        <pt x="396" y="206" on="0"/>
        <pt x="271" y="396" on="0"/>
        <pt x="215" y="601" on="0"/>
        <pt x="215" y="709" on="1"/>
        <pt x="215" y="851" on="0"/>
        <pt x="316" y="1107" on="0"/>
        <pt x="508" y="1311" on="0"/>
        <pt x="817" y="1432" on="0"/>
        <pt x="1010" y="1432" on="1"/>
        <pt x="1293" y="1432" on="0"/>
        <pt x="1519" y="1306" on="1"/>
        <pt x="1554" y="1286" on="1"/>
        <pt x="1449" y="1088" on="1"/>
        <pt x="1413" y="1107" on="1"/>
        <pt x="1342" y="1143" on="0"/>
        <pt x="1128" y="1200" on="0"/>
        <pt x="1020" y="1200" on="1"/>
        <pt x="914" y="1200" on="0"/>
        <pt x="716" y="1134" on="0"/>
        <pt x="561" y="1014" on="0"/>
        <pt x="468" y="829" on="0"/>
        <pt x="468" y="719" on="1"/>
        <pt x="468" y="574" on="0"/>
        <pt x="620" y="342" on="0"/>
        <pt x="889" y="213" on="0"/>
        <pt x="1057" y="213" on="1"/>
        <pt x="1241" y="213" on="0"/>
        <pt x="1358" y="296" on="1"/>
        <pt x="1358" y="569" on="1"/>
        <pt x="913" y="569" on="1"/>
        <pt x="913" y="791" on="1"/>
        <pt x="1605" y="791" on="1"/>
      </contour>
      <contour>
        <pt x="962" y="1951" on="1"/>
        <pt x="1305" y="1603" on="1"/>
        <pt x="1137" y="1458" on="1"/>
        <pt x="947" y="1652" on="1"/>
        <pt x="750" y="1461" on="1"/>
        <pt x="585" y="1594" on="1"/>
      </contour>
    </TTGlyph>
    <TTGlyph name="Gcommaaccent" xMin="215" yMin="-531" xMax="1605" yMax="1432">
      <contour>
        <pt x="1605" y="206" on="1"/>
        <pt x="1398" y="-20" on="0"/>
        <pt x="1013" y="-20" on="1"/>
        <pt x="849" y="-20" on="0"/>
        <pt x="578" y="65" on="0"/>
        <pt x="396" y="206" on="0"/>
        <pt x="271" y="396" on="0"/>
        <pt x="215" y="601" on="0"/>
        <pt x="215" y="709" on="1"/>
        <pt x="215" y="822" on="0"/>
        <pt x="277" y="1032" on="0"/>
        <pt x="408" y="1216" on="0"/>
        <pt x="593" y="1353" on="0"/>
        <pt x="855" y="1432" on="0"/>
        <pt x="1010" y="1432" on="1"/>
        <pt x="1293" y="1432" on="0"/>
        <pt x="1519" y="1306" on="1"/>
        <pt x="1554" y="1286" on="1"/>
        <pt x="1449" y="1088" on="1"/>
        <pt x="1413" y="1107" on="1"/>
        <pt x="1342" y="1143" on="0"/>
        <pt x="1128" y="1200" on="0"/>
        <pt x="1020" y="1200" on="1"/>
        <pt x="914" y="1200" on="0"/>
        <pt x="716" y="1134" on="0"/>
        <pt x="561" y="1014" on="0"/>
        <pt x="468" y="829" on="0"/>
        <pt x="468" y="719" on="1"/>
        <pt x="468" y="574" on="0"/>
        <pt x="620" y="342" on="0"/>
        <pt x="889" y="213" on="0"/>
        <pt x="1057" y="213" on="1"/>
        <pt x="1241" y="213" on="0"/>
        <pt x="1358" y="296" on="1"/>
        <pt x="1358" y="569" on="1"/>
        <pt x="913" y="569" on="1"/>
        <pt x="913" y="791" on="1"/>
        <pt x="1605" y="791" on="1"/>
      </contour>
      <contour>
        <pt x="943" y="-59" on="1"/>
        <pt x="1239" y="-59" on="1"/>
        <pt x="1028" y="-531" on="1"/>
        <pt x="733" y="-531" on="1"/>
      </contour>
    </TTGlyph>
    <TTGlyph name="Gdotaccent" xMin="215" yMin="-20" xMax="1605" yMax="1829">
      <contour>
        <pt x="831" y="1829" on="1"/>
        <pt x="1152" y="1829" on="1"/>
        <pt x="1152" y="1537" on="1"/>
        <pt x="831" y="1537" on="1"/>
      </contour>
      <contour>
        <pt x="1605" y="206" on="1"/>
        <pt x="1398" y="-20" on="0"/>
        <pt x="1013" y="-20" on="1"/>
        <pt x="849" y="-20" on="0"/>
        <pt x="578" y="65" on="0"/>
        <pt x="396" y="206" on="0"/>
        <pt x="271" y="396" on="0"/>
        <pt x="215" y="601" on="0"/>
        <pt x="215" y="709" on="1"/>
        <pt x="215" y="851" on="0"/>
        <pt x="316" y="1107" on="0"/>
        <pt x="508" y="1311" on="0"/>
        <pt x="817" y="1432" on="0"/>
        <pt x="1010" y="1432" on="1"/>
        <pt x="1293" y="1432" on="0"/>
        <pt x="1519" y="1306" on="1"/>
        <pt x="1554" y="1286" on="1"/>
        <pt x="1449" y="1088" on="1"/>
        <pt x="1413" y="1107" on="1"/>
        <pt x="1342" y="1143" on="0"/>
        <pt x="1128" y="1200" on="0"/>
        <pt x="1020" y="1200" on="1"/>
        <pt x="914" y="1200" on="0"/>
        <pt x="716" y="1134" on="0"/>
        <pt x="561" y="1014" on="0"/>
        <pt x="468" y="829" on="0"/>
        <pt x="468" y="719" on="1"/>
        <pt x="468" y="574" on="0"/>
        <pt x="620" y="342" on="0"/>
        <pt x="889" y="213" on="0"/>
        <pt x="1057" y="213" on="1"/>
        <pt x="1241" y="213" on="0"/>
        <pt x="1358" y="296" on="1"/>
        <pt x="1358" y="569" on="1"/>
        <pt x="913" y="569" on="1"/>
        <pt x="913" y="791" on="1"/>
        <pt x="1605" y="791" on="1"/>
      </contour>
    </TTGlyph>
    <TTGlyph name="H" xMin="290" yMin="0" xMax="1554" yMax="1421">
      <contour>
        <pt x="1302" y="1421" on="1"/>
        <pt x="1554" y="1421" on="1"/>
        <pt x="1554" y="0" on="1"/>
        <pt x="1302" y="0" on="1"/>
        <pt x="1302" y="617" on="1"/>
        <pt x="542" y="617" on="1"/>
        <pt x="542" y="0" on="1"/>
        <pt x="290" y="0" on="1"/>
        <pt x="290" y="1421" on="1"/>
        <pt x="542" y="1421" on="1"/>
        <pt x="542" y="849" on="1"/>
        <pt x="1302" y="849" on="1"/>
      </contour>
    </TTGlyph>
    <TTGlyph name="Hbar" xMin="140" yMin="0" xMax="1704" yMax="1421">
      <contour>
        <pt x="1302" y="1421" on="1"/>
        <pt x="1554" y="1421" on="1"/>
        <pt x="1554" y="1279" on="1"/>
        <pt x="1704" y="1279" on="1"/>
        <pt x="1704" y="1071" on="1"/>
        <pt x="1554" y="1071" on="1"/>
        <pt x="1554" y="0" on="1"/>
        <pt x="1302" y="0" on="1"/>
        <pt x="1302" y="617" on="1"/>
        <pt x="542" y="617" on="1"/>
        <pt x="542" y="0" on="1"/>
        <pt x="290" y="0" on="1"/>
        <pt x="290" y="1071" on="1"/>
        <pt x="140" y="1071" on="1"/>
        <pt x="140" y="1279" on="1"/>
        <pt x="290" y="1279" on="1"/>
        <pt x="290" y="1421" on="1"/>
        <pt x="542" y="1421" on="1"/>
        <pt x="542" y="1271" on="1"/>
        <pt x="1302" y="1271" on="1"/>
      </contour>
      <contour>
        <pt x="1302" y="849" on="1"/>
        <pt x="1302" y="1092" on="1"/>
        <pt x="542" y="1092" on="1"/>
        <pt x="542" y="849" on="1"/>
      </contour>
    </TTGlyph>
    <TTGlyph name="Hcircumflex" xMin="290" yMin="0" xMax="1554" yMax="1956">
      <contour>
        <pt x="1302" y="1421" on="1"/>
        <pt x="1554" y="1421" on="1"/>
        <pt x="1554" y="0" on="1"/>
        <pt x="1302" y="0" on="1"/>
        <pt x="1302" y="617" on="1"/>
        <pt x="542" y="617" on="1"/>
        <pt x="542" y="0" on="1"/>
        <pt x="290" y="0" on="1"/>
        <pt x="290" y="1421" on="1"/>
        <pt x="542" y="1421" on="1"/>
        <pt x="542" y="849" on="1"/>
        <pt x="1302" y="849" on="1"/>
      </contour>
      <contour>
        <pt x="945" y="1956" on="1"/>
        <pt x="1295" y="1608" on="1"/>
        <pt x="1124" y="1463" on="1"/>
        <pt x="929" y="1657" on="1"/>
        <pt x="730" y="1466" on="1"/>
        <pt x="563" y="1599" on="1"/>
      </contour>
    </TTGlyph>
    <TTGlyph name="I" xMin="320" yMin="0" xMax="572" yMax="1421">
      <contour>
        <pt x="320" y="1421" on="1"/>
        <pt x="572" y="1421" on="1"/>
        <pt x="572" y="0" on="1"/>
        <pt x="320" y="0" on="1"/>
      </contour>
    </TTGlyph>
    <TTGlyph name="IJ" xMin="320" yMin="-17" xMax="1726" yMax="1421">
      <contour>
        <pt x="320" y="1421" on="1"/>
        <pt x="572" y="1421" on="1"/>
        <pt x="572" y="0" on="1"/>
        <pt x="320" y="0" on="1"/>
      </contour>
      <contour>
        <pt x="1474" y="1421" on="1"/>
        <pt x="1726" y="1421" on="1"/>
        <pt x="1726" y="511" on="1"/>
        <pt x="1726" y="457" on="0"/>
        <pt x="1717" y="365" on="0"/>
        <pt x="1688" y="254" on="0"/>
        <pt x="1640" y="165" on="0"/>
        <pt x="1554" y="77" on="0"/>
        <pt x="1439" y="19" on="0"/>
        <pt x="1270" y="-17" on="0"/>
        <pt x="1166" y="-17" on="1"/>
        <pt x="1059" y="-17" on="0"/>
        <pt x="960" y="8" on="1"/>
        <pt x="922" y="18" on="1"/>
        <pt x="964" y="240" on="1"/>
        <pt x="1006" y="230" on="1"/>
        <pt x="1069" y="215" on="0"/>
        <pt x="1138" y="215" on="1"/>
        <pt x="1204" y="215" on="0"/>
        <pt x="1311" y="240" on="0"/>
        <pt x="1380" y="277" on="0"/>
        <pt x="1431" y="333" on="0"/>
        <pt x="1456" y="383" on="0"/>
        <pt x="1471" y="448" on="0"/>
        <pt x="1474" y="488" on="0"/>
        <pt x="1474" y="513" on="1"/>
      </contour>
    </TTGlyph>
    <TTGlyph name="Iacute" xMin="127" yMin="0" xMax="894" yMax="1946">
      <contour>
        <pt x="416" y="1421" on="1"/>
        <pt x="668" y="1421" on="1"/>
        <pt x="668" y="0" on="1"/>
        <pt x="416" y="0" on="1"/>
      </contour>
      <contour>
        <pt x="783" y="1946" on="1"/>
        <pt x="894" y="1751" on="1"/>
        <pt x="229" y="1414" on="1"/>
        <pt x="127" y="1593" on="1"/>
      </contour>
    </TTGlyph>
    <TTGlyph name="Ibreve" xMin="86" yMin="0" xMax="889" yMax="1894">
      <contour>
        <pt x="86" y="1791" on="1"/>
        <pt x="278" y="1894" on="1"/>
        <pt x="297" y="1856" on="1"/>
        <pt x="299" y="1851" on="0"/>
        <pt x="316" y="1801" on="0"/>
        <pt x="336" y="1763" on="0"/>
        <pt x="369" y="1718" on="0"/>
        <pt x="426" y="1692" on="0"/>
        <pt x="462" y="1692" on="1"/>
        <pt x="479" y="1692" on="0"/>
        <pt x="511" y="1698" on="0"/>
        <pt x="542" y="1713" on="0"/>
        <pt x="565" y="1724" on="0"/>
        <pt x="595" y="1753" on="0"/>
        <pt x="610" y="1766" on="0"/>
        <pt x="641" y="1805" on="0"/>
        <pt x="650" y="1816" on="0"/>
        <pt x="682" y="1860" on="0"/>
        <pt x="685" y="1863" on="1"/>
        <pt x="709" y="1894" on="1"/>
        <pt x="889" y="1771" on="1"/>
        <pt x="863" y="1736" on="1"/>
        <pt x="819" y="1678" on="0"/>
        <pt x="736" y="1592" on="0"/>
        <pt x="633" y="1513" on="0"/>
        <pt x="512" y="1472" on="0"/>
        <pt x="446" y="1472" on="1"/>
        <pt x="371" y="1472" on="0"/>
        <pt x="252" y="1520" on="0"/>
        <pt x="171" y="1609" on="0"/>
        <pt x="120" y="1699" on="0"/>
        <pt x="98" y="1758" on="1"/>
      </contour>
      <contour>
        <pt x="328" y="1421" on="1"/>
        <pt x="580" y="1421" on="1"/>
        <pt x="580" y="0" on="1"/>
        <pt x="328" y="0" on="1"/>
      </contour>
    </TTGlyph>
    <TTGlyph name="Icircumflex" xMin="140" yMin="0" xMax="794" yMax="1943">
      <contour>
        <pt x="338" y="1421" on="1"/>
        <pt x="590" y="1421" on="1"/>
        <pt x="590" y="0" on="1"/>
        <pt x="338" y="0" on="1"/>
      </contour>
      <contour>
        <pt x="482" y="1943" on="1"/>
        <pt x="794" y="1594" on="1"/>
        <pt x="640" y="1450" on="1"/>
        <pt x="467" y="1644" on="1"/>
        <pt x="290" y="1453" on="1"/>
        <pt x="140" y="1586" on="1"/>
      </contour>
    </TTGlyph>
    <TTGlyph name="Idieresis" xMin="88" yMin="0" xMax="744" yMax="1824">
      <contour>
        <pt x="290" y="1421" on="1"/>
        <pt x="542" y="1421" on="1"/>
        <pt x="542" y="0" on="1"/>
        <pt x="290" y="0" on="1"/>
      </contour>
      <contour>
        <pt x="88" y="1824" on="1"/>
        <pt x="355" y="1824" on="1"/>
        <pt x="355" y="1557" on="1"/>
        <pt x="88" y="1557" on="1"/>
      </contour>
      <contour>
        <pt x="477" y="1824" on="1"/>
        <pt x="744" y="1824" on="1"/>
        <pt x="744" y="1557" on="1"/>
        <pt x="477" y="1557" on="1"/>
      </contour>
    </TTGlyph>
    <TTGlyph name="Idotaccent" xMin="298" yMin="0" xMax="590" yMax="1829">
      <contour>
        <pt x="298" y="1829" on="1"/>
        <pt x="590" y="1829" on="1"/>
        <pt x="590" y="1537" on="1"/>
        <pt x="298" y="1537" on="1"/>
      </contour>
      <contour>
        <pt x="320" y="1421" on="1"/>
        <pt x="572" y="1421" on="1"/>
        <pt x="572" y="0" on="1"/>
        <pt x="320" y="0" on="1"/>
      </contour>
    </TTGlyph>
    <TTGlyph name="Igrave" xMin="136" yMin="0" xMax="823" yMax="1943">
      <contour>
        <pt x="335" y="1421" on="1"/>
        <pt x="587" y="1421" on="1"/>
        <pt x="587" y="0" on="1"/>
        <pt x="335" y="0" on="1"/>
      </contour>
      <contour>
        <pt x="249" y="1943" on="1"/>
        <pt x="823" y="1590" on="1"/>
        <pt x="719" y="1414" on="1"/>
        <pt x="136" y="1748" on="1"/>
      </contour>
    </TTGlyph>
    <TTGlyph name="Imacron" xMin="200" yMin="0" xMax="692" yMax="1697">
      <contour>
        <pt x="200" y="1697" on="1"/>
        <pt x="692" y="1697" on="1"/>
        <pt x="692" y="1486" on="1"/>
        <pt x="200" y="1486" on="1"/>
      </contour>
      <contour>
        <pt x="320" y="1421" on="1"/>
        <pt x="572" y="1421" on="1"/>
        <pt x="572" y="0" on="1"/>
        <pt x="320" y="0" on="1"/>
      </contour>
    </TTGlyph>
    <TTGlyph name="Iogonek" xMin="30" yMin="-544" xMax="587" yMax="1421">
      <contour>
        <pt x="30" y="-298" on="1"/>
        <pt x="30" y="-185" on="0"/>
        <pt x="193" y="28" on="0"/>
        <pt x="320" y="96" on="1"/>
        <pt x="320" y="1421" on="1"/>
        <pt x="572" y="1421" on="1"/>
        <pt x="572" y="46" on="1"/>
        <pt x="551" y="35" on="1"/>
        <pt x="477" y="-5" on="0"/>
        <pt x="365" y="-87" on="0"/>
        <pt x="304" y="-149" on="0"/>
        <pt x="267" y="-209" on="0"/>
        <pt x="257" y="-246" on="0"/>
        <pt x="257" y="-262" on="1"/>
        <pt x="257" y="-288" on="0"/>
        <pt x="288" y="-330" on="0"/>
        <pt x="324" y="-330" on="1"/>
        <pt x="373" y="-330" on="0"/>
        <pt x="465" y="-276" on="1"/>
        <pt x="502" y="-254" on="1"/>
        <pt x="587" y="-413" on="1"/>
        <pt x="558" y="-434" on="1"/>
        <pt x="407" y="-544" on="0"/>
        <pt x="274" y="-544" on="1"/>
        <pt x="169" y="-544" on="0"/>
        <pt x="30" y="-407" on="0"/>
      </contour>
    </TTGlyph>
    <TTGlyph name="Itilde" xMin="84" yMin="0" xMax="826" yMax="1874">
      <contour>
        <pt x="568" y="1468" on="1"/>
        <pt x="526" y="1468" on="0"/>
        <pt x="453" y="1508" on="0"/>
        <pt x="405" y="1564" on="0"/>
        <pt x="367" y="1620" on="0"/>
        <pt x="337" y="1660" on="0"/>
        <pt x="325" y="1660" on="1"/>
        <pt x="316" y="1660" on="0"/>
        <pt x="302" y="1623" on="0"/>
        <pt x="280" y="1541" on="1"/>
        <pt x="272" y="1511" on="0"/>
        <pt x="267" y="1493" on="1"/>
        <pt x="84" y="1542" on="1"/>
        <pt x="88" y="1558" on="0"/>
        <pt x="105" y="1625" on="0"/>
        <pt x="115" y="1661" on="0"/>
        <pt x="134" y="1721" on="0"/>
        <pt x="152" y="1756" on="0"/>
        <pt x="179" y="1802" on="0"/>
        <pt x="212" y="1829" on="0"/>
        <pt x="254" y="1855" on="0"/>
        <pt x="307" y="1866" on="0"/>
        <pt x="339" y="1866" on="1"/>
        <pt x="393" y="1866" on="0"/>
        <pt x="481" y="1808" on="0"/>
        <pt x="526" y="1739" on="0"/>
        <pt x="568" y="1681" on="0"/>
        <pt x="581" y="1681" on="1"/>
        <pt x="588" y="1681" on="0"/>
        <pt x="598" y="1708" on="0"/>
        <pt x="618" y="1780" on="1"/>
        <pt x="633" y="1835" on="0"/>
        <pt x="644" y="1874" on="1"/>
        <pt x="826" y="1823" on="1"/>
        <pt x="822" y="1809" on="0"/>
        <pt x="805" y="1738" on="0"/>
        <pt x="794" y="1701" on="0"/>
        <pt x="774" y="1634" on="0"/>
        <pt x="755" y="1596" on="0"/>
        <pt x="726" y="1543" on="0"/>
        <pt x="693" y="1512" on="0"/>
        <pt x="651" y="1482" on="0"/>
        <pt x="599" y="1468" on="0"/>
      </contour>
      <contour>
        <pt x="329" y="0" on="1"/>
        <pt x="329" y="1421" on="1"/>
        <pt x="581" y="1421" on="1"/>
        <pt x="581" y="0" on="1"/>
      </contour>
    </TTGlyph>
    <TTGlyph name="J" xMin="110" yMin="-17" xMax="914" yMax="1421">
      <contour>
        <pt x="662" y="1421" on="1"/>
        <pt x="914" y="1421" on="1"/>
        <pt x="914" y="511" on="1"/>
        <pt x="914" y="457" on="0"/>
        <pt x="905" y="365" on="0"/>
        <pt x="876" y="254" on="0"/>
        <pt x="828" y="165" on="0"/>
        <pt x="742" y="77" on="0"/>
        <pt x="627" y="19" on="0"/>
        <pt x="458" y="-17" on="0"/>
        <pt x="354" y="-17" on="1"/>
        <pt x="247" y="-17" on="0"/>
        <pt x="148" y="8" on="1"/>
        <pt x="110" y="18" on="1"/>
        <pt x="152" y="240" on="1"/>
        <pt x="194" y="230" on="1"/>
        <pt x="257" y="215" on="0"/>
        <pt x="326" y="215" on="1"/>
        <pt x="392" y="215" on="0"/>
        <pt x="499" y="240" on="0"/>
        <pt x="568" y="277" on="0"/>
        <pt x="619" y="333" on="0"/>
        <pt x="644" y="383" on="0"/>
        <pt x="659" y="448" on="0"/>
        <pt x="662" y="488" on="0"/>
        <pt x="662" y="513" on="1"/>
      </contour>
    </TTGlyph>
    <TTGlyph name="Jcircumflex" xMin="110" yMin="-17" xMax="1105" yMax="1951">
      <contour>
        <pt x="662" y="1421" on="1"/>
        <pt x="914" y="1421" on="1"/>
        <pt x="914" y="511" on="1"/>
        <pt x="914" y="457" on="0"/>
        <pt x="905" y="365" on="0"/>
        <pt x="876" y="254" on="0"/>
        <pt x="828" y="165" on="0"/>
        <pt x="742" y="77" on="0"/>
        <pt x="627" y="19" on="0"/>
        <pt x="458" y="-17" on="0"/>
        <pt x="354" y="-17" on="1"/>
        <pt x="247" y="-17" on="0"/>
        <pt x="148" y="8" on="1"/>
        <pt x="110" y="18" on="1"/>
        <pt x="152" y="240" on="1"/>
        <pt x="194" y="230" on="1"/>
        <pt x="257" y="215" on="0"/>
        <pt x="326" y="215" on="1"/>
        <pt x="392" y="215" on="0"/>
        <pt x="499" y="240" on="0"/>
        <pt x="568" y="277" on="0"/>
        <pt x="619" y="333" on="0"/>
        <pt x="644" y="383" on="0"/>
        <pt x="659" y="448" on="0"/>
        <pt x="662" y="488" on="0"/>
        <pt x="662" y="513" on="1"/>
      </contour>
      <contour>
        <pt x="793" y="1951" on="1"/>
        <pt x="1105" y="1603" on="1"/>
        <pt x="953" y="1458" on="1"/>
        <pt x="778" y="1652" on="1"/>
        <pt x="601" y="1461" on="1"/>
        <pt x="451" y="1594" on="1"/>
      </contour>
    </TTGlyph>
    <TTGlyph name="K" xMin="290" yMin="0" xMax="1549" yMax="1421">
      <contour>
        <pt x="542" y="770" on="1"/>
        <pt x="1190" y="1421" on="1"/>
        <pt x="1513" y="1421" on="1"/>
        <pt x="830" y="741" on="1"/>
        <pt x="1549" y="0" on="1"/>
        <pt x="1222" y="0" on="1"/>
        <pt x="542" y="688" on="1"/>
        <pt x="542" y="0" on="1"/>
        <pt x="290" y="0" on="1"/>
        <pt x="290" y="1421" on="1"/>
        <pt x="542" y="1421" on="1"/>
      </contour>
    </TTGlyph>
    <TTGlyph name="Kcommaaccent" xMin="290" yMin="-512" xMax="1549" yMax="1421">
      <contour>
        <pt x="290" y="0" on="1"/>
        <pt x="290" y="1421" on="1"/>
        <pt x="542" y="1421" on="1"/>
        <pt x="542" y="770" on="1"/>
        <pt x="1190" y="1421" on="1"/>
        <pt x="1513" y="1421" on="1"/>
        <pt x="830" y="741" on="1"/>
        <pt x="1549" y="0" on="1"/>
        <pt x="1222" y="0" on="1"/>
        <pt x="542" y="688" on="1"/>
        <pt x="542" y="0" on="1"/>
      </contour>
      <contour>
        <pt x="470" y="-512" on="1"/>
        <pt x="678" y="-40" on="1"/>
        <pt x="983" y="-40" on="1"/>
        <pt x="766" y="-512" on="1"/>
      </contour>
    </TTGlyph>
    <TTGlyph name="L" xMin="290" yMin="0" xMax="1262" yMax="1421">
      <contour>
        <pt x="290" y="1421" on="1"/>
        <pt x="542" y="1421" on="1"/>
        <pt x="542" y="231" on="1"/>
        <pt x="1262" y="231" on="1"/>
        <pt x="1262" y="0" on="1"/>
        <pt x="290" y="0" on="1"/>
      </contour>
    </TTGlyph>
    <TTGlyph name="Lacute" xMin="283" yMin="0" xMax="1276" yMax="1992">
      <contour>
        <pt x="304" y="1421" on="1"/>
        <pt x="556" y="1421" on="1"/>
        <pt x="562" y="231" on="1"/>
        <pt x="1276" y="231" on="1"/>
        <pt x="1276" y="0" on="1"/>
        <pt x="304" y="0" on="1"/>
      </contour>
      <contour>
        <pt x="920" y="1992" on="1"/>
        <pt x="1050" y="1797" on="1"/>
        <pt x="385" y="1461" on="1"/>
        <pt x="283" y="1639" on="1"/>
      </contour>
    </TTGlyph>
    <TTGlyph name="Lcaron" xMin="290" yMin="0" xMax="1262" yMax="1421">
      <contour>
        <pt x="929" y="1421" on="1"/>
        <pt x="1198" y="1421" on="1"/>
        <pt x="1006" y="949" on="1"/>
        <pt x="738" y="949" on="1"/>
      </contour>
      <contour>
        <pt x="290" y="1421" on="1"/>
        <pt x="542" y="1421" on="1"/>
        <pt x="542" y="231" on="1"/>
        <pt x="1262" y="231" on="1"/>
        <pt x="1262" y="0" on="1"/>
        <pt x="290" y="0" on="1"/>
      </contour>
    </TTGlyph>
    <TTGlyph name="Lcommaaccent" xMin="288" yMin="-512" xMax="1282" yMax="1421">
      <contour>
        <pt x="310" y="1421" on="1"/>
        <pt x="562" y="1421" on="1"/>
        <pt x="567" y="231" on="1"/>
        <pt x="1282" y="231" on="1"/>
        <pt x="1282" y="0" on="1"/>
        <pt x="310" y="0" on="1"/>
      </contour>
      <contour>
        <pt x="479" y="-40" on="1"/>
        <pt x="789" y="-40" on="1"/>
        <pt x="561" y="-512" on="1"/>
        <pt x="288" y="-512" on="1"/>
      </contour>
    </TTGlyph>
    <TTGlyph name="Ldot" xMin="290" yMin="0" xMax="1262" yMax="1421">
      <contour>
        <pt x="290" y="1421" on="1"/>
        <pt x="542" y="1421" on="1"/>
        <pt x="542" y="231" on="1"/>
        <pt x="1262" y="231" on="1"/>
        <pt x="1262" y="0" on="1"/>
        <pt x="290" y="0" on="1"/>
      </contour>
      <contour>
        <pt x="708" y="864" on="1"/>
        <pt x="1053" y="864" on="1"/>
        <pt x="1053" y="572" on="1"/>
        <pt x="708" y="572" on="1"/>
      </contour>
    </TTGlyph>
    <TTGlyph name="Lslash" xMin="146" yMin="0" xMax="1262" yMax="1421">
      <contour>
        <pt x="290" y="1421" on="1"/>
        <pt x="542" y="1421" on="1"/>
        <pt x="542" y="897" on="1"/>
        <pt x="856" y="1047" on="1"/>
        <pt x="856" y="780" on="1"/>
        <pt x="565" y="641" on="1"/>
        <pt x="565" y="231" on="1"/>
        <pt x="1262" y="231" on="1"/>
        <pt x="1262" y="0" on="1"/>
        <pt x="290" y="0" on="1"/>
        <pt x="290" y="496" on="1"/>
        <pt x="146" y="418" on="1"/>
        <pt x="146" y="670" on="1"/>
        <pt x="290" y="748" on="1"/>
      </contour>
    </TTGlyph>
    <TTGlyph name="M" xMin="290" yMin="0" xMax="1838" yMax="1421">
      <contour>
        <pt x="290" y="1421" on="1"/>
        <pt x="596" y="1421" on="1"/>
        <pt x="1068" y="605" on="1"/>
        <pt x="1547" y="1421" on="1"/>
        <pt x="1838" y="1421" on="1"/>
        <pt x="1838" y="0" on="1"/>
        <pt x="1586" y="0" on="1"/>
        <pt x="1586" y="1063" on="1"/>
        <pt x="1182" y="407" on="1"/>
        <pt x="944" y="407" on="1"/>
        <pt x="542" y="1063" on="1"/>
        <pt x="542" y="0" on="1"/>
        <pt x="290" y="0" on="1"/>
      </contour>
    </TTGlyph>
    <TTGlyph name="N" xMin="290" yMin="0" xMax="1613" yMax="1421">
      <contour>
        <pt x="290" y="1421" on="1"/>
        <pt x="568" y="1421" on="1"/>
        <pt x="1361" y="329" on="1"/>
        <pt x="1361" y="1421" on="1"/>
        <pt x="1613" y="1421" on="1"/>
        <pt x="1613" y="0" on="1"/>
        <pt x="1332" y="0" on="1"/>
        <pt x="542" y="1094" on="1"/>
        <pt x="542" y="0" on="1"/>
        <pt x="290" y="0" on="1"/>
      </contour>
    </TTGlyph>
    <TTGlyph name="Nacute" xMin="290" yMin="0" xMax="1613" yMax="1992">
      <contour>
        <pt x="290" y="1421" on="1"/>
        <pt x="568" y="1421" on="1"/>
        <pt x="1361" y="329" on="1"/>
        <pt x="1361" y="1421" on="1"/>
        <pt x="1613" y="1421" on="1"/>
        <pt x="1613" y="0" on="1"/>
        <pt x="1332" y="0" on="1"/>
        <pt x="542" y="1094" on="1"/>
        <pt x="542" y="0" on="1"/>
        <pt x="290" y="0" on="1"/>
      </contour>
      <contour>
        <pt x="1214" y="1992" on="1"/>
        <pt x="1338" y="1797" on="1"/>
        <pt x="688" y="1461" on="1"/>
        <pt x="574" y="1639" on="1"/>
      </contour>
    </TTGlyph>
    <TTGlyph name="Ncaron" xMin="290" yMin="0" xMax="1613" yMax="1950">
      <contour>
        <pt x="290" y="1421" on="1"/>
        <pt x="568" y="1421" on="1"/>
        <pt x="1361" y="329" on="1"/>
        <pt x="1361" y="1421" on="1"/>
        <pt x="1613" y="1421" on="1"/>
        <pt x="1613" y="0" on="1"/>
        <pt x="1332" y="0" on="1"/>
        <pt x="542" y="1094" on="1"/>
        <pt x="542" y="0" on="1"/>
        <pt x="290" y="0" on="1"/>
      </contour>
      <contour>
        <pt x="990" y="1457" on="1"/>
        <pt x="641" y="1806" on="1"/>
        <pt x="813" y="1950" on="1"/>
        <pt x="1006" y="1756" on="1"/>
        <pt x="1204" y="1947" on="1"/>
        <pt x="1370" y="1814" on="1"/>
      </contour>
    </TTGlyph>
    <TTGlyph name="Ncommaaccent" xMin="290" yMin="-512" xMax="1613" yMax="1421">
      <contour>
        <pt x="798" y="-40" on="1"/>
        <pt x="1098" y="-40" on="1"/>
        <pt x="884" y="-512" on="1"/>
        <pt x="585" y="-512" on="1"/>
      </contour>
      <contour>
        <pt x="290" y="1421" on="1"/>
        <pt x="568" y="1421" on="1"/>
        <pt x="1361" y="329" on="1"/>
        <pt x="1361" y="1421" on="1"/>
        <pt x="1613" y="1421" on="1"/>
        <pt x="1613" y="0" on="1"/>
        <pt x="1332" y="0" on="1"/>
        <pt x="542" y="1094" on="1"/>
        <pt x="542" y="0" on="1"/>
        <pt x="290" y="0" on="1"/>
      </contour>
    </TTGlyph>
    <TTGlyph name="Ntilde" xMin="290" yMin="0" xMax="1613" yMax="1884">
      <contour>
        <pt x="1230" y="1884" on="1"/>
        <pt x="1435" y="1854" on="1"/>
        <pt x="1426" y="1812" on="1"/>
        <pt x="1424" y="1804" on="0"/>
        <pt x="1421" y="1786" on="1"/>
        <pt x="1414" y="1751" on="0"/>
        <pt x="1406" y="1712" on="0"/>
        <pt x="1385" y="1641" on="0"/>
        <pt x="1363" y="1598" on="0"/>
        <pt x="1323" y="1544" on="0"/>
        <pt x="1275" y="1514" on="0"/>
        <pt x="1205" y="1492" on="0"/>
        <pt x="1163" y="1492" on="1"/>
        <pt x="1094" y="1495" on="0"/>
        <pt x="969" y="1553" on="0"/>
        <pt x="897" y="1619" on="0"/>
        <pt x="831" y="1674" on="0"/>
        <pt x="813" y="1674" on="1"/>
        <pt x="780" y="1674" on="0"/>
        <pt x="760" y="1591" on="1"/>
        <pt x="758" y="1582" on="0"/>
        <pt x="746" y="1525" on="1"/>
        <pt x="738" y="1487" on="1"/>
        <pt x="530" y="1513" on="1"/>
        <pt x="539" y="1556" on="1"/>
        <pt x="541" y="1564" on="0"/>
        <pt x="552" y="1620" on="0"/>
        <pt x="558" y="1647" on="0"/>
        <pt x="574" y="1702" on="0"/>
        <pt x="588" y="1734" on="0"/>
        <pt x="612" y="1782" on="0"/>
        <pt x="638" y="1811" on="0"/>
        <pt x="675" y="1845" on="0"/>
        <pt x="718" y="1863" on="0"/>
        <pt x="774" y="1876" on="0"/>
        <pt x="806" y="1876" on="1"/>
        <pt x="862" y="1874" on="0"/>
        <pt x="965" y="1835" on="0"/>
        <pt x="1036" y="1782" on="0"/>
        <pt x="1095" y="1731" on="0"/>
        <pt x="1141" y="1695" on="0"/>
        <pt x="1156" y="1695" on="1"/>
        <pt x="1162" y="1695" on="0"/>
        <pt x="1173" y="1700" on="0"/>
        <pt x="1183" y="1710" on="0"/>
        <pt x="1190" y="1722" on="0"/>
        <pt x="1197" y="1742" on="0"/>
        <pt x="1202" y="1758" on="0"/>
        <pt x="1208" y="1785" on="0"/>
        <pt x="1212" y="1803" on="0"/>
        <pt x="1219" y="1835" on="0"/>
        <pt x="1221" y="1845" on="1"/>
      </contour>
      <contour>
        <pt x="290" y="1421" on="1"/>
        <pt x="568" y="1421" on="1"/>
        <pt x="1361" y="329" on="1"/>
        <pt x="1361" y="1421" on="1"/>
        <pt x="1613" y="1421" on="1"/>
        <pt x="1613" y="0" on="1"/>
        <pt x="1332" y="0" on="1"/>
        <pt x="542" y="1094" on="1"/>
        <pt x="542" y="0" on="1"/>
        <pt x="290" y="0" on="1"/>
      </contour>
    </TTGlyph>
    <TTGlyph name="O" xMin="215" yMin="-15" xMax="1715" yMax="1436">
      <contour>
        <pt x="966" y="1436" on="1"/>
        <pt x="1183" y="1436" on="0"/>
        <pt x="1521" y="1266" on="0"/>
        <pt x="1715" y="941" on="0"/>
        <pt x="1715" y="726" on="1"/>
        <pt x="1715" y="508" on="0"/>
        <pt x="1525" y="171" on="0"/>
        <pt x="1181" y="-15" on="0"/>
        <pt x="958" y="-15" on="1"/>
        <pt x="811" y="-15" on="0"/>
        <pt x="547" y="76" on="0"/>
        <pt x="338" y="251" on="0"/>
        <pt x="215" y="531" on="0"/>
        <pt x="215" y="707" on="1"/>
        <pt x="215" y="926" on="0"/>
        <pt x="407" y="1259" on="0"/>
        <pt x="747" y="1436" on="0"/>
      </contour>
      <contour>
        <pt x="1028" y="1205" on="0"/>
        <pt x="884" y="1205" on="0"/>
        <pt x="748" y="1170" on="0"/>
        <pt x="623" y="1095" on="0"/>
        <pt x="529" y="985" on="0"/>
        <pt x="473" y="824" on="0"/>
        <pt x="473" y="727" on="1"/>
        <pt x="473" y="496" on="0"/>
        <pt x="759" y="216" on="0"/>
        <pt x="973" y="216" on="1"/>
        <pt x="1062" y="216" on="0"/>
        <pt x="1229" y="274" on="0"/>
        <pt x="1371" y="388" on="0"/>
        <pt x="1457" y="584" on="0"/>
        <pt x="1457" y="709" on="1"/>
        <pt x="1457" y="811" on="0"/>
        <pt x="1397" y="980" on="0"/>
        <pt x="1298" y="1092" on="0"/>
        <pt x="1167" y="1170" on="0"/>
      </contour>
    </TTGlyph>
    <TTGlyph name="OE" xMin="215" yMin="0" xMax="2002" yMax="1421">
      <contour>
        <pt x="1090" y="232" on="1"/>
        <pt x="1090" y="1189" on="1"/>
        <pt x="1073" y="1189" on="1"/>
        <pt x="949" y="1189" on="0"/>
        <pt x="879" y="1180" on="1"/>
        <pt x="683" y="1153" on="0"/>
        <pt x="467" y="902" on="0"/>
        <pt x="467" y="702" on="1"/>
        <pt x="467" y="626" on="0"/>
        <pt x="503" y="496" on="0"/>
        <pt x="558" y="406" on="0"/>
        <pt x="634" y="332" on="0"/>
        <pt x="704" y="289" on="0"/>
        <pt x="742" y="273" on="1"/>
        <pt x="803" y="247" on="0"/>
        <pt x="918" y="232" on="0"/>
        <pt x="999" y="232" on="1"/>
      </contour>
      <contour>
        <pt x="402" y="1223" on="1"/>
        <pt x="461" y="1278" on="0"/>
        <pt x="612" y="1356" on="0"/>
        <pt x="748" y="1396" on="0"/>
        <pt x="933" y="1417" on="0"/>
        <pt x="1053" y="1421" on="0"/>
        <pt x="1146" y="1421" on="1"/>
        <pt x="2002" y="1421" on="1"/>
        <pt x="2002" y="1189" on="1"/>
        <pt x="1359" y="1189" on="1"/>
        <pt x="1359" y="848" on="1"/>
        <pt x="1947" y="848" on="1"/>
        <pt x="1947" y="616" on="1"/>
        <pt x="1359" y="616" on="1"/>
        <pt x="1359" y="232" on="1"/>
        <pt x="2002" y="232" on="1"/>
        <pt x="2002" y="0" on="1"/>
        <pt x="1051" y="0" on="1"/>
        <pt x="917" y="0" on="0"/>
        <pt x="709" y="22" on="0"/>
        <pt x="614" y="58" on="1"/>
        <pt x="427" y="130" on="0"/>
        <pt x="215" y="455" on="0"/>
        <pt x="215" y="703" on="1"/>
        <pt x="215" y="1039" on="0"/>
      </contour>
    </TTGlyph>
    <TTGlyph name="Oacute" xMin="215" yMin="-15" xMax="1715" yMax="1946">
      <contour>
        <pt x="966" y="1436" on="1"/>
        <pt x="1183" y="1436" on="0"/>
        <pt x="1521" y="1266" on="0"/>
        <pt x="1715" y="941" on="0"/>
        <pt x="1715" y="726" on="1"/>
        <pt x="1715" y="508" on="0"/>
        <pt x="1525" y="171" on="0"/>
        <pt x="1181" y="-15" on="0"/>
        <pt x="958" y="-15" on="1"/>
        <pt x="811" y="-15" on="0"/>
        <pt x="547" y="76" on="0"/>
        <pt x="338" y="251" on="0"/>
        <pt x="215" y="531" on="0"/>
        <pt x="215" y="707" on="1"/>
        <pt x="215" y="926" on="0"/>
        <pt x="407" y="1259" on="0"/>
        <pt x="747" y="1436" on="0"/>
      </contour>
      <contour>
        <pt x="1457" y="709" on="1"/>
        <pt x="1457" y="835" on="0"/>
        <pt x="1367" y="1032" on="0"/>
        <pt x="1219" y="1147" on="0"/>
        <pt x="1046" y="1205" on="0"/>
        <pt x="953" y="1205" on="1"/>
        <pt x="883" y="1205" on="0"/>
        <pt x="749" y="1171" on="0"/>
        <pt x="624" y="1095" on="0"/>
        <pt x="530" y="986" on="0"/>
        <pt x="473" y="824" on="0"/>
        <pt x="473" y="727" on="1"/>
        <pt x="473" y="496" on="0"/>
        <pt x="759" y="216" on="0"/>
        <pt x="973" y="216" on="1"/>
        <pt x="1062" y="216" on="0"/>
        <pt x="1229" y="274" on="0"/>
        <pt x="1371" y="388" on="0"/>
        <pt x="1457" y="584" on="0"/>
      </contour>
      <contour>
        <pt x="1225" y="1946" on="1"/>
        <pt x="1346" y="1751" on="1"/>
        <pt x="711" y="1414" on="1"/>
        <pt x="600" y="1593" on="1"/>
      </contour>
    </TTGlyph>
    <TTGlyph name="Obreve" xMin="215" yMin="-15" xMax="1715" yMax="1897">
      <contour>
        <pt x="518" y="1794" on="1"/>
        <pt x="727" y="1897" on="1"/>
        <pt x="747" y="1859" on="1"/>
        <pt x="758" y="1838" on="0"/>
        <pt x="788" y="1796" on="0"/>
        <pt x="846" y="1734" on="0"/>
        <pt x="932" y="1695" on="0"/>
        <pt x="981" y="1695" on="1"/>
        <pt x="1059" y="1695" on="0"/>
        <pt x="1211" y="1797" on="0"/>
        <pt x="1267" y="1866" on="1"/>
        <pt x="1292" y="1897" on="1"/>
        <pt x="1488" y="1774" on="1"/>
        <pt x="1461" y="1739" on="1"/>
        <pt x="1367" y="1625" on="0"/>
        <pt x="1105" y="1475" on="0"/>
        <pt x="964" y="1475" on="1"/>
        <pt x="805" y="1475" on="0"/>
        <pt x="577" y="1645" on="0"/>
        <pt x="531" y="1761" on="1"/>
      </contour>
      <contour>
        <pt x="1457" y="709" on="1"/>
        <pt x="1457" y="810" on="0"/>
        <pt x="1398" y="979" on="0"/>
        <pt x="1300" y="1092" on="0"/>
        <pt x="1168" y="1170" on="0"/>
        <pt x="1027" y="1205" on="0"/>
        <pt x="953" y="1205" on="1"/>
        <pt x="883" y="1205" on="0"/>
        <pt x="749" y="1171" on="0"/>
        <pt x="624" y="1095" on="0"/>
        <pt x="530" y="986" on="0"/>
        <pt x="473" y="824" on="0"/>
        <pt x="473" y="727" on="1"/>
        <pt x="473" y="496" on="0"/>
        <pt x="759" y="216" on="0"/>
        <pt x="973" y="216" on="1"/>
        <pt x="1062" y="216" on="0"/>
        <pt x="1229" y="274" on="0"/>
        <pt x="1371" y="388" on="0"/>
        <pt x="1457" y="584" on="0"/>
      </contour>
      <contour>
        <pt x="966" y="1436" on="1"/>
        <pt x="1183" y="1436" on="0"/>
        <pt x="1521" y="1266" on="0"/>
        <pt x="1715" y="941" on="0"/>
        <pt x="1715" y="726" on="1"/>
        <pt x="1715" y="508" on="0"/>
        <pt x="1525" y="171" on="0"/>
        <pt x="1181" y="-15" on="0"/>
        <pt x="958" y="-15" on="1"/>
        <pt x="811" y="-15" on="0"/>
        <pt x="547" y="76" on="0"/>
        <pt x="338" y="251" on="0"/>
        <pt x="215" y="531" on="0"/>
        <pt x="215" y="707" on="1"/>
        <pt x="215" y="926" on="0"/>
        <pt x="407" y="1259" on="0"/>
        <pt x="747" y="1436" on="0"/>
      </contour>
    </TTGlyph>
    <TTGlyph name="Ocircumflex" xMin="215" yMin="-15" xMax="1715" yMax="1943">
      <contour>
        <pt x="966" y="1436" on="1"/>
        <pt x="1183" y="1436" on="0"/>
        <pt x="1521" y="1266" on="0"/>
        <pt x="1715" y="941" on="0"/>
        <pt x="1715" y="726" on="1"/>
        <pt x="1715" y="508" on="0"/>
        <pt x="1525" y="171" on="0"/>
        <pt x="1181" y="-15" on="0"/>
        <pt x="958" y="-15" on="1"/>
        <pt x="811" y="-15" on="0"/>
        <pt x="547" y="76" on="0"/>
        <pt x="338" y="251" on="0"/>
        <pt x="215" y="531" on="0"/>
        <pt x="215" y="707" on="1"/>
        <pt x="215" y="926" on="0"/>
        <pt x="407" y="1259" on="0"/>
        <pt x="747" y="1436" on="0"/>
      </contour>
      <contour>
        <pt x="1457" y="709" on="1"/>
        <pt x="1457" y="835" on="0"/>
        <pt x="1367" y="1032" on="0"/>
        <pt x="1219" y="1147" on="0"/>
        <pt x="1046" y="1205" on="0"/>
        <pt x="953" y="1205" on="1"/>
        <pt x="883" y="1205" on="0"/>
        <pt x="749" y="1171" on="0"/>
        <pt x="624" y="1095" on="0"/>
        <pt x="530" y="986" on="0"/>
        <pt x="473" y="824" on="0"/>
        <pt x="473" y="727" on="1"/>
        <pt x="473" y="496" on="0"/>
        <pt x="759" y="216" on="0"/>
        <pt x="973" y="216" on="1"/>
        <pt x="1062" y="216" on="0"/>
        <pt x="1229" y="274" on="0"/>
        <pt x="1371" y="388" on="0"/>
        <pt x="1457" y="584" on="0"/>
      </contour>
      <contour>
        <pt x="998" y="1943" on="1"/>
        <pt x="1337" y="1595" on="1"/>
        <pt x="1171" y="1450" on="1"/>
        <pt x="982" y="1644" on="1"/>
        <pt x="788" y="1453" on="1"/>
        <pt x="625" y="1586" on="1"/>
      </contour>
    </TTGlyph>
    <TTGlyph name="Odieresis" xMin="215" yMin="-15" xMax="1715" yMax="1898">
      <contour>
        <pt x="966" y="1436" on="1"/>
        <pt x="1183" y="1436" on="0"/>
        <pt x="1521" y="1266" on="0"/>
        <pt x="1715" y="941" on="0"/>
        <pt x="1715" y="726" on="1"/>
        <pt x="1715" y="508" on="0"/>
        <pt x="1525" y="171" on="0"/>
        <pt x="1181" y="-15" on="0"/>
        <pt x="958" y="-15" on="1"/>
        <pt x="811" y="-15" on="0"/>
        <pt x="547" y="76" on="0"/>
        <pt x="338" y="251" on="0"/>
        <pt x="215" y="531" on="0"/>
        <pt x="215" y="707" on="1"/>
        <pt x="215" y="926" on="0"/>
        <pt x="407" y="1259" on="0"/>
        <pt x="747" y="1436" on="0"/>
      </contour>
      <contour>
        <pt x="1457" y="709" on="1"/>
        <pt x="1457" y="835" on="0"/>
        <pt x="1367" y="1032" on="0"/>
        <pt x="1219" y="1147" on="0"/>
        <pt x="1046" y="1205" on="0"/>
        <pt x="953" y="1205" on="1"/>
        <pt x="883" y="1205" on="0"/>
        <pt x="749" y="1171" on="0"/>
        <pt x="624" y="1095" on="0"/>
        <pt x="530" y="986" on="0"/>
        <pt x="473" y="824" on="0"/>
        <pt x="473" y="727" on="1"/>
        <pt x="473" y="496" on="0"/>
        <pt x="759" y="216" on="0"/>
        <pt x="973" y="216" on="1"/>
        <pt x="1062" y="216" on="0"/>
        <pt x="1229" y="274" on="0"/>
        <pt x="1371" y="388" on="0"/>
        <pt x="1457" y="584" on="0"/>
      </contour>
      <contour>
        <pt x="586" y="1898" on="1"/>
        <pt x="877" y="1898" on="1"/>
        <pt x="877" y="1631" on="1"/>
        <pt x="586" y="1631" on="1"/>
      </contour>
      <contour>
        <pt x="1075" y="1898" on="1"/>
        <pt x="1366" y="1898" on="1"/>
        <pt x="1366" y="1631" on="1"/>
        <pt x="1075" y="1631" on="1"/>
      </contour>
    </TTGlyph>
    <TTGlyph name="Ograve" xMin="215" yMin="-15" xMax="1715" yMax="1948">
      <contour>
        <pt x="966" y="1436" on="1"/>
        <pt x="1183" y="1436" on="0"/>
        <pt x="1521" y="1266" on="0"/>
        <pt x="1715" y="941" on="0"/>
        <pt x="1715" y="726" on="1"/>
        <pt x="1715" y="508" on="0"/>
        <pt x="1525" y="171" on="0"/>
        <pt x="1181" y="-15" on="0"/>
        <pt x="958" y="-15" on="1"/>
        <pt x="811" y="-15" on="0"/>
        <pt x="547" y="76" on="0"/>
        <pt x="338" y="251" on="0"/>
        <pt x="215" y="531" on="0"/>
        <pt x="215" y="707" on="1"/>
        <pt x="215" y="926" on="0"/>
        <pt x="407" y="1259" on="0"/>
        <pt x="747" y="1436" on="0"/>
      </contour>
      <contour>
        <pt x="1457" y="709" on="1"/>
        <pt x="1457" y="835" on="0"/>
        <pt x="1367" y="1032" on="0"/>
        <pt x="1219" y="1147" on="0"/>
        <pt x="1046" y="1205" on="0"/>
        <pt x="953" y="1205" on="1"/>
        <pt x="883" y="1205" on="0"/>
        <pt x="749" y="1171" on="0"/>
        <pt x="624" y="1095" on="0"/>
        <pt x="530" y="986" on="0"/>
        <pt x="473" y="824" on="0"/>
        <pt x="473" y="727" on="1"/>
        <pt x="473" y="496" on="0"/>
        <pt x="759" y="216" on="0"/>
        <pt x="973" y="216" on="1"/>
        <pt x="1062" y="216" on="0"/>
        <pt x="1229" y="274" on="0"/>
        <pt x="1371" y="388" on="0"/>
        <pt x="1457" y="584" on="0"/>
      </contour>
      <contour>
        <pt x="790" y="1948" on="1"/>
        <pt x="1415" y="1595" on="1"/>
        <pt x="1302" y="1417" on="1"/>
        <pt x="668" y="1753" on="1"/>
      </contour>
    </TTGlyph>
    <TTGlyph name="Ohungarumlaut" xMin="215" yMin="-15" xMax="1715" yMax="2011">
      <contour>
        <pt x="1576" y="2011" on="1"/>
        <pt x="1705" y="1827" on="1"/>
        <pt x="1126" y="1441" on="1"/>
        <pt x="997" y="1609" on="1"/>
      </contour>
      <contour>
        <pt x="1020" y="2011" on="1"/>
        <pt x="1160" y="1827" on="1"/>
        <pt x="560" y="1441" on="1"/>
        <pt x="433" y="1609" on="1"/>
      </contour>
      <contour>
        <pt x="1457" y="709" on="1"/>
        <pt x="1457" y="810" on="0"/>
        <pt x="1398" y="979" on="0"/>
        <pt x="1300" y="1092" on="0"/>
        <pt x="1168" y="1170" on="0"/>
        <pt x="1027" y="1205" on="0"/>
        <pt x="953" y="1205" on="1"/>
        <pt x="883" y="1205" on="0"/>
        <pt x="749" y="1171" on="0"/>
        <pt x="624" y="1095" on="0"/>
        <pt x="530" y="986" on="0"/>
        <pt x="473" y="824" on="0"/>
        <pt x="473" y="727" on="1"/>
        <pt x="473" y="496" on="0"/>
        <pt x="759" y="216" on="0"/>
        <pt x="973" y="216" on="1"/>
        <pt x="1062" y="216" on="0"/>
        <pt x="1229" y="274" on="0"/>
        <pt x="1371" y="388" on="0"/>
        <pt x="1457" y="584" on="0"/>
      </contour>
      <contour>
        <pt x="966" y="1436" on="1"/>
        <pt x="1183" y="1436" on="0"/>
        <pt x="1521" y="1266" on="0"/>
        <pt x="1715" y="941" on="0"/>
        <pt x="1715" y="726" on="1"/>
        <pt x="1715" y="508" on="0"/>
        <pt x="1525" y="171" on="0"/>
        <pt x="1181" y="-15" on="0"/>
        <pt x="958" y="-15" on="1"/>
        <pt x="811" y="-15" on="0"/>
        <pt x="547" y="76" on="0"/>
        <pt x="338" y="251" on="0"/>
        <pt x="215" y="531" on="0"/>
        <pt x="215" y="707" on="1"/>
        <pt x="215" y="926" on="0"/>
        <pt x="407" y="1259" on="0"/>
        <pt x="747" y="1436" on="0"/>
      </contour>
    </TTGlyph>
    <TTGlyph name="Omacron" xMin="215" yMin="-15" xMax="1715" yMax="1697">
      <contour>
        <pt x="1457" y="709" on="1"/>
        <pt x="1457" y="810" on="0"/>
        <pt x="1398" y="979" on="0"/>
        <pt x="1300" y="1092" on="0"/>
        <pt x="1168" y="1170" on="0"/>
        <pt x="1027" y="1205" on="0"/>
        <pt x="953" y="1205" on="1"/>
        <pt x="883" y="1205" on="0"/>
        <pt x="749" y="1171" on="0"/>
        <pt x="624" y="1095" on="0"/>
        <pt x="530" y="986" on="0"/>
        <pt x="473" y="824" on="0"/>
        <pt x="473" y="727" on="1"/>
        <pt x="473" y="496" on="0"/>
        <pt x="759" y="216" on="0"/>
        <pt x="973" y="216" on="1"/>
        <pt x="1062" y="216" on="0"/>
        <pt x="1229" y="274" on="0"/>
        <pt x="1371" y="388" on="0"/>
        <pt x="1457" y="584" on="0"/>
      </contour>
      <contour>
        <pt x="966" y="1436" on="1"/>
        <pt x="1183" y="1436" on="0"/>
        <pt x="1521" y="1266" on="0"/>
        <pt x="1715" y="941" on="0"/>
        <pt x="1715" y="726" on="1"/>
        <pt x="1715" y="508" on="0"/>
        <pt x="1525" y="171" on="0"/>
        <pt x="1181" y="-15" on="0"/>
        <pt x="958" y="-15" on="1"/>
        <pt x="811" y="-15" on="0"/>
        <pt x="547" y="76" on="0"/>
        <pt x="338" y="251" on="0"/>
        <pt x="215" y="531" on="0"/>
        <pt x="215" y="707" on="1"/>
        <pt x="215" y="926" on="0"/>
        <pt x="407" y="1259" on="0"/>
        <pt x="747" y="1436" on="0"/>
      </contour>
      <contour>
        <pt x="538" y="1697" on="1"/>
        <pt x="1433" y="1697" on="1"/>
        <pt x="1433" y="1486" on="1"/>
        <pt x="538" y="1486" on="1"/>
      </contour>
    </TTGlyph>
    <TTGlyph name="Oslash" xMin="159" yMin="-15" xMax="1804" yMax="1436">
      <contour>
        <pt x="976" y="1205" on="1"/>
        <pt x="904" y="1205" on="0"/>
        <pt x="768" y="1170" on="0"/>
        <pt x="643" y="1095" on="0"/>
        <pt x="549" y="985" on="0"/>
        <pt x="493" y="824" on="0"/>
        <pt x="493" y="727" on="1"/>
        <pt x="493" y="577" on="0"/>
        <pt x="557" y="461" on="1"/>
        <pt x="1309" y="1093" on="1"/>
        <pt x="1169" y="1205" on="0"/>
      </contour>
      <contour>
        <pt x="1696" y="1417" on="1"/>
        <pt x="1804" y="1289" on="1"/>
        <pt x="1619" y="1134" on="1"/>
        <pt x="1735" y="962" on="0"/>
        <pt x="1735" y="726" on="1"/>
        <pt x="1735" y="508" on="0"/>
        <pt x="1545" y="171" on="0"/>
        <pt x="1201" y="-15" on="0"/>
        <pt x="978" y="-15" on="1"/>
        <pt x="831" y="-15" on="0"/>
        <pt x="564" y="75" on="0"/>
        <pt x="463" y="163" on="1"/>
        <pt x="267" y="-1" on="1"/>
        <pt x="159" y="128" on="1"/>
        <pt x="352" y="289" on="1"/>
        <pt x="235" y="464" on="0"/>
        <pt x="235" y="707" on="1"/>
        <pt x="235" y="926" on="0"/>
        <pt x="427" y="1259" on="0"/>
        <pt x="767" y="1436" on="0"/>
        <pt x="986" y="1436" on="1"/>
        <pt x="1303" y="1436" on="0"/>
        <pt x="1508" y="1259" on="1"/>
      </contour>
      <contour>
        <pt x="1417" y="964" on="1"/>
        <pt x="663" y="331" on="1"/>
        <pt x="800" y="216" on="0"/>
        <pt x="993" y="216" on="1"/>
        <pt x="1082" y="216" on="0"/>
        <pt x="1249" y="274" on="0"/>
        <pt x="1391" y="388" on="0"/>
        <pt x="1477" y="584" on="0"/>
        <pt x="1477" y="709" on="1"/>
        <pt x="1477" y="855" on="0"/>
      </contour>
    </TTGlyph>
    <TTGlyph name="Otilde" xMin="215" yMin="-15" xMax="1715" yMax="1884">
      <contour>
        <pt x="1242" y="1884" on="1"/>
        <pt x="1447" y="1854" on="1"/>
        <pt x="1438" y="1812" on="1"/>
        <pt x="1436" y="1804" on="0"/>
        <pt x="1433" y="1786" on="1"/>
        <pt x="1426" y="1751" on="0"/>
        <pt x="1418" y="1712" on="0"/>
        <pt x="1397" y="1641" on="0"/>
        <pt x="1375" y="1598" on="0"/>
        <pt x="1335" y="1544" on="0"/>
        <pt x="1287" y="1514" on="0"/>
        <pt x="1217" y="1492" on="0"/>
        <pt x="1175" y="1492" on="1"/>
        <pt x="1106" y="1495" on="0"/>
        <pt x="981" y="1553" on="0"/>
        <pt x="909" y="1619" on="0"/>
        <pt x="843" y="1674" on="0"/>
        <pt x="825" y="1674" on="1"/>
        <pt x="792" y="1674" on="0"/>
        <pt x="772" y="1591" on="1"/>
        <pt x="770" y="1582" on="0"/>
        <pt x="758" y="1525" on="1"/>
        <pt x="750" y="1487" on="1"/>
        <pt x="542" y="1513" on="1"/>
        <pt x="551" y="1556" on="1"/>
        <pt x="553" y="1564" on="0"/>
        <pt x="564" y="1620" on="0"/>
        <pt x="570" y="1647" on="0"/>
        <pt x="586" y="1702" on="0"/>
        <pt x="600" y="1734" on="0"/>
        <pt x="624" y="1782" on="0"/>
        <pt x="650" y="1811" on="0"/>
        <pt x="687" y="1845" on="0"/>
        <pt x="730" y="1863" on="0"/>
        <pt x="786" y="1876" on="0"/>
        <pt x="818" y="1876" on="1"/>
        <pt x="874" y="1874" on="0"/>
        <pt x="977" y="1835" on="0"/>
        <pt x="1048" y="1782" on="0"/>
        <pt x="1107" y="1731" on="0"/>
        <pt x="1153" y="1695" on="0"/>
        <pt x="1168" y="1695" on="1"/>
        <pt x="1174" y="1695" on="0"/>
        <pt x="1185" y="1700" on="0"/>
        <pt x="1195" y="1710" on="0"/>
        <pt x="1202" y="1722" on="0"/>
        <pt x="1209" y="1742" on="0"/>
        <pt x="1214" y="1758" on="0"/>
        <pt x="1220" y="1785" on="0"/>
        <pt x="1224" y="1803" on="0"/>
        <pt x="1231" y="1835" on="0"/>
        <pt x="1233" y="1845" on="1"/>
      </contour>
      <contour>
        <pt x="1457" y="709" on="1"/>
        <pt x="1457" y="810" on="0"/>
        <pt x="1398" y="979" on="0"/>
        <pt x="1300" y="1092" on="0"/>
        <pt x="1168" y="1170" on="0"/>
        <pt x="1027" y="1205" on="0"/>
        <pt x="953" y="1205" on="1"/>
        <pt x="883" y="1205" on="0"/>
        <pt x="749" y="1171" on="0"/>
        <pt x="624" y="1095" on="0"/>
        <pt x="530" y="986" on="0"/>
        <pt x="473" y="824" on="0"/>
        <pt x="473" y="727" on="1"/>
        <pt x="473" y="496" on="0"/>
        <pt x="759" y="216" on="0"/>
        <pt x="973" y="216" on="1"/>
        <pt x="1062" y="216" on="0"/>
        <pt x="1229" y="274" on="0"/>
        <pt x="1371" y="388" on="0"/>
        <pt x="1457" y="584" on="0"/>
      </contour>
      <contour>
        <pt x="966" y="1436" on="1"/>
        <pt x="1183" y="1436" on="0"/>
        <pt x="1521" y="1266" on="0"/>
        <pt x="1715" y="941" on="0"/>
        <pt x="1715" y="726" on="1"/>
        <pt x="1715" y="508" on="0"/>
        <pt x="1525" y="171" on="0"/>
        <pt x="1181" y="-15" on="0"/>
        <pt x="958" y="-15" on="1"/>
        <pt x="811" y="-15" on="0"/>
        <pt x="547" y="76" on="0"/>
        <pt x="338" y="251" on="0"/>
        <pt x="215" y="531" on="0"/>
        <pt x="215" y="707" on="1"/>
        <pt x="215" y="926" on="0"/>
        <pt x="407" y="1259" on="0"/>
        <pt x="747" y="1436" on="0"/>
      </contour>
    </TTGlyph>
    <TTGlyph name="P" xMin="290" yMin="0" xMax="1396" yMax="1421">
      <contour>
        <pt x="290" y="1421" on="1"/>
        <pt x="800" y="1421" on="1"/>
        <pt x="844" y="1421" on="0"/>
        <pt x="906" y="1420" on="0"/>
        <pt x="1009" y="1412" on="0"/>
        <pt x="1084" y="1397" on="0"/>
        <pt x="1181" y="1369" on="0"/>
        <pt x="1250" y="1330" on="0"/>
        <pt x="1323" y="1268" on="0"/>
        <pt x="1367" y="1191" on="0"/>
        <pt x="1396" y="1085" on="0"/>
        <pt x="1396" y="1021" on="1"/>
        <pt x="1396" y="931" on="0"/>
        <pt x="1349" y="787" on="0"/>
        <pt x="1274" y="689" on="0"/>
        <pt x="1157" y="618" on="0"/>
        <pt x="1038" y="578" on="0"/>
        <pt x="880" y="555" on="0"/>
        <pt x="749" y="548" on="0"/>
        <pt x="665" y="548" on="1"/>
        <pt x="624" y="548" on="0"/>
        <pt x="542" y="552" on="1"/>
        <pt x="542" y="0" on="1"/>
        <pt x="290" y="0" on="1"/>
      </contour>
      <contour>
        <pt x="542" y="1189" on="1"/>
        <pt x="542" y="784" on="1"/>
        <pt x="620" y="779" on="0"/>
        <pt x="683" y="779" on="1"/>
        <pt x="751" y="779" on="0"/>
        <pt x="850" y="784" on="0"/>
        <pt x="963" y="798" on="0"/>
        <pt x="1040" y="828" on="0"/>
        <pt x="1106" y="874" on="0"/>
        <pt x="1139" y="946" on="0"/>
        <pt x="1139" y="994" on="1"/>
        <pt x="1139" y="1037" on="0"/>
        <pt x="1111" y="1102" on="0"/>
        <pt x="1054" y="1143" on="0"/>
        <pt x="987" y="1171" on="0"/>
        <pt x="892" y="1184" on="0"/>
        <pt x="806" y="1189" on="0"/>
        <pt x="749" y="1189" on="1"/>
      </contour>
    </TTGlyph>
    <TTGlyph name="Q" xMin="215" yMin="-73" xMax="1762" yMax="1436">
      <contour>
        <pt x="966" y="1436" on="1"/>
        <pt x="1307" y="1436" on="0"/>
        <pt x="1715" y="1040" on="0"/>
        <pt x="1715" y="709" on="1"/>
        <pt x="1715" y="436" on="0"/>
        <pt x="1578" y="248" on="1"/>
        <pt x="1762" y="75" on="1"/>
        <pt x="1615" y="-73" on="1"/>
        <pt x="1415" y="109" on="1"/>
        <pt x="1224" y="-15" on="0"/>
        <pt x="968" y="-15" on="1"/>
        <pt x="808" y="-15" on="0"/>
        <pt x="533" y="83" on="0"/>
        <pt x="330" y="263" on="0"/>
        <pt x="215" y="537" on="0"/>
        <pt x="215" y="705" on="1"/>
        <pt x="215" y="926" on="0"/>
        <pt x="406" y="1259" on="0"/>
        <pt x="746" y="1436" on="0"/>
      </contour>
      <contour>
        <pt x="951" y="1205" on="1"/>
        <pt x="882" y="1205" on="0"/>
        <pt x="749" y="1171" on="0"/>
        <pt x="624" y="1096" on="0"/>
        <pt x="530" y="987" on="0"/>
        <pt x="473" y="822" on="0"/>
        <pt x="473" y="723" on="1"/>
        <pt x="473" y="601" on="0"/>
        <pt x="557" y="406" on="0"/>
        <pt x="700" y="282" on="0"/>
        <pt x="886" y="216" on="0"/>
        <pt x="990" y="216" on="1"/>
        <pt x="1120" y="216" on="0"/>
        <pt x="1226" y="269" on="1"/>
        <pt x="892" y="538" on="1"/>
        <pt x="1069" y="693" on="1"/>
        <pt x="1391" y="422" on="1"/>
        <pt x="1453" y="528" on="0"/>
        <pt x="1453" y="687" on="1"/>
        <pt x="1453" y="806" on="0"/>
        <pt x="1386" y="992" on="0"/>
        <pt x="1283" y="1104" on="0"/>
        <pt x="1145" y="1178" on="0"/>
        <pt x="1017" y="1205" on="0"/>
      </contour>
    </TTGlyph>
    <TTGlyph name="R" xMin="290" yMin="0" xMax="1509" yMax="1421">
      <contour>
        <pt x="1391" y="1014" on="1"/>
        <pt x="1391" y="946" on="0"/>
        <pt x="1358" y="823" on="0"/>
        <pt x="1287" y="709" on="0"/>
        <pt x="1164" y="619" on="0"/>
        <pt x="1080" y="594" on="1"/>
        <pt x="1509" y="0" on="1"/>
        <pt x="1181" y="0" on="1"/>
        <pt x="783" y="551" on="1"/>
        <pt x="542" y="551" on="1"/>
        <pt x="542" y="0" on="1"/>
        <pt x="290" y="0" on="1"/>
        <pt x="290" y="1421" on="1"/>
        <pt x="895" y="1421" on="1"/>
        <pt x="940" y="1421" on="0"/>
        <pt x="1015" y="1416" on="0"/>
        <pt x="1122" y="1397" on="0"/>
        <pt x="1205" y="1365" on="0"/>
        <pt x="1294" y="1303" on="0"/>
        <pt x="1353" y="1220" on="0"/>
        <pt x="1391" y="1093" on="0"/>
      </contour>
      <contour>
        <pt x="542" y="1190" on="1"/>
        <pt x="542" y="783" on="1"/>
        <pt x="774" y="783" on="1"/>
        <pt x="834" y="783" on="0"/>
        <pt x="926" y="791" on="0"/>
        <pt x="1024" y="816" on="0"/>
        <pt x="1087" y="860" on="0"/>
        <pt x="1128" y="938" on="0"/>
        <pt x="1128" y="991" on="1"/>
        <pt x="1128" y="1190" on="0"/>
        <pt x="821" y="1190" on="1"/>
      </contour>
    </TTGlyph>
    <TTGlyph name="Racute" xMin="290" yMin="0" xMax="1510" yMax="1992">
      <contour>
        <pt x="1392" y="1014" on="1"/>
        <pt x="1392" y="946" on="0"/>
        <pt x="1359" y="823" on="0"/>
        <pt x="1288" y="709" on="0"/>
        <pt x="1165" y="619" on="0"/>
        <pt x="1081" y="594" on="1"/>
        <pt x="1510" y="0" on="1"/>
        <pt x="1182" y="0" on="1"/>
        <pt x="784" y="552" on="1"/>
        <pt x="776" y="552" on="0"/>
        <pt x="744" y="551" on="0"/>
        <pt x="735" y="551" on="1"/>
        <pt x="543" y="551" on="1"/>
        <pt x="543" y="0" on="1"/>
        <pt x="290" y="0" on="1"/>
        <pt x="290" y="1421" on="1"/>
        <pt x="896" y="1421" on="1"/>
        <pt x="954" y="1421" on="0"/>
        <pt x="1036" y="1415" on="0"/>
        <pt x="1147" y="1395" on="0"/>
        <pt x="1243" y="1347" on="0"/>
        <pt x="1282" y="1310" on="1"/>
        <pt x="1392" y="1200" on="0"/>
      </contour>
      <contour>
        <pt x="543" y="1190" on="1"/>
        <pt x="543" y="783" on="1"/>
        <pt x="775" y="783" on="1"/>
        <pt x="908" y="783" on="0"/>
        <pt x="1067" y="827" on="0"/>
        <pt x="1106" y="897" on="1"/>
        <pt x="1129" y="938" on="0"/>
        <pt x="1129" y="991" on="1"/>
        <pt x="1129" y="1058" on="0"/>
        <pt x="1038" y="1165" on="0"/>
        <pt x="940" y="1182" on="1"/>
        <pt x="894" y="1190" on="0"/>
        <pt x="791" y="1190" on="1"/>
      </contour>
      <contour>
        <pt x="1051" y="1992" on="1"/>
        <pt x="1177" y="1797" on="1"/>
        <pt x="518" y="1461" on="1"/>
        <pt x="416" y="1639" on="1"/>
      </contour>
    </TTGlyph>
    <TTGlyph name="Rcaron" xMin="290" yMin="0" xMax="1510" yMax="1950">
      <contour>
        <pt x="1392" y="1014" on="1"/>
        <pt x="1392" y="946" on="0"/>
        <pt x="1359" y="823" on="0"/>
        <pt x="1288" y="709" on="0"/>
        <pt x="1165" y="619" on="0"/>
        <pt x="1081" y="594" on="1"/>
        <pt x="1510" y="0" on="1"/>
        <pt x="1182" y="0" on="1"/>
        <pt x="784" y="552" on="1"/>
        <pt x="776" y="552" on="0"/>
        <pt x="744" y="551" on="0"/>
        <pt x="735" y="551" on="1"/>
        <pt x="543" y="551" on="1"/>
        <pt x="543" y="0" on="1"/>
        <pt x="290" y="0" on="1"/>
        <pt x="290" y="1421" on="1"/>
        <pt x="896" y="1421" on="1"/>
        <pt x="954" y="1421" on="0"/>
        <pt x="1036" y="1415" on="0"/>
        <pt x="1147" y="1395" on="0"/>
        <pt x="1243" y="1347" on="0"/>
        <pt x="1282" y="1310" on="1"/>
        <pt x="1392" y="1200" on="0"/>
      </contour>
      <contour>
        <pt x="543" y="1190" on="1"/>
        <pt x="543" y="783" on="1"/>
        <pt x="775" y="783" on="1"/>
        <pt x="908" y="783" on="0"/>
        <pt x="1067" y="827" on="0"/>
        <pt x="1106" y="897" on="1"/>
        <pt x="1129" y="938" on="0"/>
        <pt x="1129" y="991" on="1"/>
        <pt x="1129" y="1058" on="0"/>
        <pt x="1038" y="1165" on="0"/>
        <pt x="940" y="1182" on="1"/>
        <pt x="894" y="1190" on="0"/>
        <pt x="791" y="1190" on="1"/>
      </contour>
      <contour>
        <pt x="766" y="1457" on="1"/>
        <pt x="427" y="1805" on="1"/>
        <pt x="584" y="1950" on="1"/>
        <pt x="782" y="1756" on="1"/>
        <pt x="985" y="1947" on="1"/>
        <pt x="1155" y="1814" on="1"/>
      </contour>
    </TTGlyph>
    <TTGlyph name="Rcommaaccent" xMin="290" yMin="-512" xMax="1514" yMax="1421">
      <contour>
        <pt x="481" y="-40" on="1"/>
        <pt x="778" y="-40" on="1"/>
        <pt x="560" y="-512" on="1"/>
        <pt x="290" y="-512" on="1"/>
      </contour>
      <contour>
        <pt x="547" y="1190" on="1"/>
        <pt x="547" y="783" on="1"/>
        <pt x="779" y="783" on="1"/>
        <pt x="912" y="783" on="0"/>
        <pt x="1070" y="827" on="0"/>
        <pt x="1109" y="897" on="1"/>
        <pt x="1133" y="940" on="0"/>
        <pt x="1133" y="991" on="1"/>
        <pt x="1133" y="1058" on="0"/>
        <pt x="1042" y="1165" on="0"/>
        <pt x="944" y="1182" on="1"/>
        <pt x="898" y="1190" on="0"/>
        <pt x="795" y="1190" on="1"/>
      </contour>
      <contour>
        <pt x="1396" y="1014" on="1"/>
        <pt x="1396" y="946" on="0"/>
        <pt x="1363" y="823" on="0"/>
        <pt x="1292" y="709" on="0"/>
        <pt x="1169" y="619" on="0"/>
        <pt x="1085" y="594" on="1"/>
        <pt x="1514" y="0" on="1"/>
        <pt x="1186" y="0" on="1"/>
        <pt x="788" y="552" on="1"/>
        <pt x="780" y="552" on="0"/>
        <pt x="748" y="551" on="0"/>
        <pt x="739" y="551" on="1"/>
        <pt x="547" y="551" on="1"/>
        <pt x="547" y="0" on="1"/>
        <pt x="294" y="0" on="1"/>
        <pt x="294" y="1421" on="1"/>
        <pt x="899" y="1421" on="1"/>
        <pt x="957" y="1421" on="0"/>
        <pt x="1040" y="1415" on="0"/>
        <pt x="1151" y="1395" on="0"/>
        <pt x="1247" y="1347" on="0"/>
        <pt x="1286" y="1310" on="1"/>
        <pt x="1396" y="1200" on="0"/>
      </contour>
    </TTGlyph>
    <TTGlyph name="S" xMin="240" yMin="-20" xMax="1396" yMax="1434">
      <contour>
        <pt x="927" y="1434" on="1"/>
        <pt x="1126" y="1434" on="0"/>
        <pt x="1320" y="1375" on="1"/>
        <pt x="1361" y="1363" on="1"/>
        <pt x="1279" y="1131" on="1"/>
        <pt x="1241" y="1142" on="1"/>
        <pt x="1060" y="1192" on="0"/>
        <pt x="911" y="1192" on="1"/>
        <pt x="764" y="1192" on="0"/>
        <pt x="555" y="1096" on="0"/>
        <pt x="555" y="1021" on="1"/>
        <pt x="555" y="972" on="0"/>
        <pt x="648" y="898" on="0"/>
        <pt x="796" y="847" on="0"/>
        <pt x="975" y="797" on="0"/>
        <pt x="1155" y="731" on="0"/>
        <pt x="1303" y="645" on="0"/>
        <pt x="1396" y="502" on="0"/>
        <pt x="1396" y="409" on="1"/>
        <pt x="1396" y="349" on="0"/>
        <pt x="1355" y="232" on="0"/>
        <pt x="1258" y="118" on="0"/>
        <pt x="1115" y="33" on="0"/>
        <pt x="894" y="-20" on="0"/>
        <pt x="620" y="-20" on="0"/>
        <pt x="400" y="31" on="0"/>
        <pt x="277" y="79" on="1"/>
        <pt x="240" y="93" on="1"/>
        <pt x="325" y="335" on="1"/>
        <pt x="364" y="320" on="1"/>
        <pt x="617" y="230" on="0"/>
        <pt x="781" y="230" on="1"/>
        <pt x="935" y="230" on="0"/>
        <pt x="1126" y="324" on="0"/>
        <pt x="1126" y="401" on="1"/>
        <pt x="1126" y="444" on="0"/>
        <pt x="1068" y="512" on="0"/>
        <pt x="970" y="559" on="0"/>
        <pt x="843" y="599" on="0"/>
        <pt x="703" y="637" on="0"/>
        <pt x="563" y="681" on="0"/>
        <pt x="436" y="743" on="0"/>
        <pt x="338" y="821" on="0"/>
        <pt x="280" y="938" on="0"/>
        <pt x="280" y="1010" on="1"/>
        <pt x="280" y="1190" on="0"/>
        <pt x="633" y="1434" on="0"/>
      </contour>
    </TTGlyph>
    <TTGlyph name="Sacute" xMin="240" yMin="-20" xMax="1396" yMax="1992">
      <contour>
        <pt x="1073" y="1992" on="1"/>
        <pt x="1194" y="1797" on="1"/>
        <pt x="535" y="1461" on="1"/>
        <pt x="426" y="1639" on="1"/>
      </contour>
      <contour>
        <pt x="927" y="1434" on="1"/>
        <pt x="1126" y="1434" on="0"/>
        <pt x="1320" y="1375" on="1"/>
        <pt x="1361" y="1363" on="1"/>
        <pt x="1279" y="1131" on="1"/>
        <pt x="1241" y="1142" on="1"/>
        <pt x="1060" y="1192" on="0"/>
        <pt x="911" y="1192" on="1"/>
        <pt x="764" y="1192" on="0"/>
        <pt x="555" y="1096" on="0"/>
        <pt x="555" y="1021" on="1"/>
        <pt x="555" y="972" on="0"/>
        <pt x="648" y="898" on="0"/>
        <pt x="796" y="847" on="0"/>
        <pt x="975" y="797" on="0"/>
        <pt x="1155" y="731" on="0"/>
        <pt x="1303" y="645" on="0"/>
        <pt x="1396" y="502" on="0"/>
        <pt x="1396" y="409" on="1"/>
        <pt x="1396" y="349" on="0"/>
        <pt x="1355" y="232" on="0"/>
        <pt x="1258" y="118" on="0"/>
        <pt x="1115" y="33" on="0"/>
        <pt x="894" y="-20" on="0"/>
        <pt x="620" y="-20" on="0"/>
        <pt x="400" y="31" on="0"/>
        <pt x="277" y="79" on="1"/>
        <pt x="240" y="93" on="1"/>
        <pt x="325" y="335" on="1"/>
        <pt x="364" y="320" on="1"/>
        <pt x="617" y="230" on="0"/>
        <pt x="781" y="230" on="1"/>
        <pt x="935" y="230" on="0"/>
        <pt x="1126" y="324" on="0"/>
        <pt x="1126" y="401" on="1"/>
        <pt x="1126" y="444" on="0"/>
        <pt x="1068" y="512" on="0"/>
        <pt x="970" y="559" on="0"/>
        <pt x="843" y="599" on="0"/>
        <pt x="703" y="637" on="0"/>
        <pt x="563" y="681" on="0"/>
        <pt x="436" y="743" on="0"/>
        <pt x="338" y="821" on="0"/>
        <pt x="280" y="938" on="0"/>
        <pt x="280" y="1010" on="1"/>
        <pt x="280" y="1190" on="0"/>
        <pt x="633" y="1434" on="0"/>
      </contour>
    </TTGlyph>
    <TTGlyph name="Scaron" xMin="240" yMin="-20" xMax="1396" yMax="1950">
      <contour>
        <pt x="833" y="1457" on="1"/>
        <pt x="478" y="1805" on="1"/>
        <pt x="651" y="1950" on="1"/>
        <pt x="849" y="1756" on="1"/>
        <pt x="1052" y="1947" on="1"/>
        <pt x="1214" y="1814" on="1"/>
      </contour>
      <contour>
        <pt x="927" y="1434" on="1"/>
        <pt x="1126" y="1434" on="0"/>
        <pt x="1320" y="1375" on="1"/>
        <pt x="1361" y="1363" on="1"/>
        <pt x="1279" y="1131" on="1"/>
        <pt x="1241" y="1142" on="1"/>
        <pt x="1060" y="1192" on="0"/>
        <pt x="911" y="1192" on="1"/>
        <pt x="764" y="1192" on="0"/>
        <pt x="555" y="1096" on="0"/>
        <pt x="555" y="1021" on="1"/>
        <pt x="555" y="972" on="0"/>
        <pt x="648" y="898" on="0"/>
        <pt x="796" y="847" on="0"/>
        <pt x="975" y="797" on="0"/>
        <pt x="1155" y="731" on="0"/>
        <pt x="1303" y="645" on="0"/>
        <pt x="1396" y="502" on="0"/>
        <pt x="1396" y="409" on="1"/>
        <pt x="1396" y="349" on="0"/>
        <pt x="1355" y="232" on="0"/>
        <pt x="1258" y="118" on="0"/>
        <pt x="1115" y="33" on="0"/>
        <pt x="894" y="-20" on="0"/>
        <pt x="620" y="-20" on="0"/>
        <pt x="400" y="31" on="0"/>
        <pt x="277" y="79" on="1"/>
        <pt x="240" y="93" on="1"/>
        <pt x="325" y="335" on="1"/>
        <pt x="364" y="320" on="1"/>
        <pt x="617" y="230" on="0"/>
        <pt x="781" y="230" on="1"/>
        <pt x="935" y="230" on="0"/>
        <pt x="1126" y="324" on="0"/>
        <pt x="1126" y="401" on="1"/>
        <pt x="1126" y="444" on="0"/>
        <pt x="1068" y="512" on="0"/>
        <pt x="970" y="559" on="0"/>
        <pt x="843" y="599" on="0"/>
        <pt x="703" y="637" on="0"/>
        <pt x="563" y="681" on="0"/>
        <pt x="436" y="743" on="0"/>
        <pt x="338" y="821" on="0"/>
        <pt x="280" y="938" on="0"/>
        <pt x="280" y="1010" on="1"/>
        <pt x="280" y="1190" on="0"/>
        <pt x="633" y="1434" on="0"/>
      </contour>
    </TTGlyph>
    <TTGlyph name="Scedilla" xMin="240" yMin="-506" xMax="1396" yMax="1434">
      <contour>
        <pt x="838" y="-317" on="1"/>
        <pt x="861" y="-317" on="0"/>
        <pt x="891" y="-305" on="0"/>
        <pt x="899" y="-293" on="0"/>
        <pt x="899" y="-286" on="1"/>
        <pt x="899" y="-267" on="0"/>
        <pt x="815" y="-237" on="0"/>
        <pt x="708" y="-210" on="1"/>
        <pt x="679" y="-203" on="0"/>
        <pt x="663" y="-199" on="1"/>
        <pt x="619" y="-188" on="1"/>
        <pt x="672" y="-18" on="1"/>
        <pt x="563" y="-12" on="0"/>
        <pt x="386" y="36" on="0"/>
        <pt x="277" y="79" on="1"/>
        <pt x="240" y="93" on="1"/>
        <pt x="325" y="335" on="1"/>
        <pt x="364" y="320" on="1"/>
        <pt x="618" y="230" on="0"/>
        <pt x="783" y="230" on="1"/>
        <pt x="938" y="230" on="0"/>
        <pt x="1129" y="324" on="0"/>
        <pt x="1129" y="401" on="1"/>
        <pt x="1129" y="444" on="0"/>
        <pt x="1071" y="512" on="0"/>
        <pt x="973" y="559" on="0"/>
        <pt x="845" y="599" on="0"/>
        <pt x="704" y="637" on="0"/>
        <pt x="564" y="681" on="0"/>
        <pt x="436" y="743" on="0"/>
        <pt x="338" y="821" on="0"/>
        <pt x="280" y="938" on="0"/>
        <pt x="280" y="1010" on="1"/>
        <pt x="280" y="1190" on="0"/>
        <pt x="636" y="1434" on="0"/>
        <pt x="929" y="1434" on="1"/>
        <pt x="1126" y="1434" on="0"/>
        <pt x="1320" y="1375" on="1"/>
        <pt x="1361" y="1363" on="1"/>
        <pt x="1278" y="1131" on="1"/>
        <pt x="1241" y="1142" on="1"/>
        <pt x="1061" y="1192" on="0"/>
        <pt x="913" y="1192" on="1"/>
        <pt x="767" y="1192" on="0"/>
        <pt x="559" y="1096" on="0"/>
        <pt x="559" y="1021" on="1"/>
        <pt x="559" y="972" on="0"/>
        <pt x="651" y="898" on="0"/>
        <pt x="799" y="847" on="0"/>
        <pt x="978" y="798" on="0"/>
        <pt x="1156" y="731" on="0"/>
        <pt x="1304" y="645" on="0"/>
        <pt x="1396" y="503" on="0"/>
        <pt x="1396" y="410" on="1"/>
        <pt x="1396" y="359" on="0"/>
        <pt x="1366" y="258" on="0"/>
        <pt x="1296" y="156" on="0"/>
        <pt x="1194" y="73" on="0"/>
        <pt x="1038" y="8" on="0"/>
        <pt x="942" y="-7" on="1"/>
        <pt x="925" y="-66" on="1"/>
        <pt x="1122" y="-125" on="0"/>
        <pt x="1122" y="-275" on="1"/>
        <pt x="1122" y="-368" on="0"/>
        <pt x="959" y="-506" on="0"/>
        <pt x="832" y="-506" on="1"/>
        <pt x="787" y="-506" on="0"/>
        <pt x="696" y="-489" on="0"/>
        <pt x="546" y="-451" on="1"/>
        <pt x="501" y="-440" on="1"/>
        <pt x="562" y="-257" on="1"/>
        <pt x="607" y="-269" on="1"/>
        <pt x="787" y="-317" on="0"/>
      </contour>
    </TTGlyph>
    <TTGlyph name="Scircumflex" xMin="240" yMin="-20" xMax="1396" yMax="1951">
      <contour>
        <pt x="927" y="1434" on="1"/>
        <pt x="1126" y="1434" on="0"/>
        <pt x="1320" y="1375" on="1"/>
        <pt x="1361" y="1363" on="1"/>
        <pt x="1279" y="1131" on="1"/>
        <pt x="1241" y="1142" on="1"/>
        <pt x="1060" y="1192" on="0"/>
        <pt x="911" y="1192" on="1"/>
        <pt x="764" y="1192" on="0"/>
        <pt x="555" y="1096" on="0"/>
        <pt x="555" y="1021" on="1"/>
        <pt x="555" y="972" on="0"/>
        <pt x="648" y="898" on="0"/>
        <pt x="796" y="847" on="0"/>
        <pt x="975" y="797" on="0"/>
        <pt x="1155" y="731" on="0"/>
        <pt x="1303" y="645" on="0"/>
        <pt x="1396" y="502" on="0"/>
        <pt x="1396" y="409" on="1"/>
        <pt x="1396" y="349" on="0"/>
        <pt x="1355" y="232" on="0"/>
        <pt x="1258" y="118" on="0"/>
        <pt x="1115" y="33" on="0"/>
        <pt x="894" y="-20" on="0"/>
        <pt x="620" y="-20" on="0"/>
        <pt x="400" y="31" on="0"/>
        <pt x="277" y="79" on="1"/>
        <pt x="240" y="93" on="1"/>
        <pt x="325" y="335" on="1"/>
        <pt x="364" y="320" on="1"/>
        <pt x="617" y="230" on="0"/>
        <pt x="781" y="230" on="1"/>
        <pt x="935" y="230" on="0"/>
        <pt x="1126" y="324" on="0"/>
        <pt x="1126" y="401" on="1"/>
        <pt x="1126" y="444" on="0"/>
        <pt x="1068" y="512" on="0"/>
        <pt x="970" y="559" on="0"/>
        <pt x="843" y="599" on="0"/>
        <pt x="703" y="637" on="0"/>
        <pt x="563" y="681" on="0"/>
        <pt x="436" y="743" on="0"/>
        <pt x="338" y="821" on="0"/>
        <pt x="280" y="938" on="0"/>
        <pt x="280" y="1010" on="1"/>
        <pt x="280" y="1190" on="0"/>
        <pt x="633" y="1434" on="0"/>
      </contour>
      <contour>
        <pt x="807" y="1951" on="1"/>
        <pt x="1162" y="1603" on="1"/>
        <pt x="990" y="1458" on="1"/>
        <pt x="791" y="1652" on="1"/>
        <pt x="588" y="1461" on="1"/>
        <pt x="426" y="1594" on="1"/>
      </contour>
    </TTGlyph>
    <TTGlyph name="T" xMin="85" yMin="0" xMax="1369" yMax="1421">
      <contour>
        <pt x="85" y="1421" on="1"/>
        <pt x="1369" y="1421" on="1"/>
        <pt x="1369" y="1189" on="1"/>
        <pt x="853" y="1189" on="1"/>
        <pt x="853" y="0" on="1"/>
        <pt x="601" y="0" on="1"/>
        <pt x="601" y="1189" on="1"/>
        <pt x="85" y="1189" on="1"/>
      </contour>
    </TTGlyph>
    <TTGlyph name="Tbar" xMin="85" yMin="0" xMax="1369" yMax="1421">
      <contour>
        <pt x="85" y="1421" on="1"/>
        <pt x="1369" y="1421" on="1"/>
        <pt x="1369" y="1189" on="1"/>
        <pt x="853" y="1189" on="1"/>
        <pt x="853" y="794" on="1"/>
        <pt x="1226" y="794" on="1"/>
        <pt x="1226" y="562" on="1"/>
        <pt x="853" y="562" on="1"/>
        <pt x="853" y="0" on="1"/>
        <pt x="601" y="0" on="1"/>
        <pt x="601" y="562" on="1"/>
        <pt x="228" y="562" on="1"/>
        <pt x="228" y="794" on="1"/>
        <pt x="601" y="794" on="1"/>
        <pt x="601" y="1189" on="1"/>
        <pt x="85" y="1189" on="1"/>
      </contour>
    </TTGlyph>
    <TTGlyph name="Tcaron" xMin="85" yMin="0" xMax="1369" yMax="1950">
      <contour>
        <pt x="85" y="1421" on="1"/>
        <pt x="1369" y="1421" on="1"/>
        <pt x="1369" y="1189" on="1"/>
        <pt x="853" y="1189" on="1"/>
        <pt x="853" y="0" on="1"/>
        <pt x="601" y="0" on="1"/>
        <pt x="601" y="1189" on="1"/>
        <pt x="85" y="1189" on="1"/>
      </contour>
      <contour>
        <pt x="740" y="1457" on="1"/>
        <pt x="392" y="1805" on="1"/>
        <pt x="562" y="1950" on="1"/>
        <pt x="757" y="1756" on="1"/>
        <pt x="955" y="1947" on="1"/>
        <pt x="1122" y="1814" on="1"/>
      </contour>
    </TTGlyph>
    <TTGlyph name="Tcommaaccent" xMin="85" yMin="-506" xMax="1369" yMax="1421">
      <contour>
        <pt x="730" y="-316" on="1"/>
        <pt x="782" y="-315" on="0"/>
        <pt x="782" y="-289" on="1"/>
        <pt x="782" y="-283" on="0"/>
        <pt x="775" y="-272" on="0"/>
        <pt x="759" y="-261" on="0"/>
        <pt x="741" y="-252" on="0"/>
        <pt x="712" y="-241" on="0"/>
        <pt x="688" y="-233" on="0"/>
        <pt x="649" y="-222" on="0"/>
        <pt x="622" y="-215" on="0"/>
        <pt x="577" y="-203" on="0"/>
        <pt x="564" y="-199" on="1"/>
        <pt x="512" y="-187" on="1"/>
        <pt x="527" y="-149" on="1"/>
        <pt x="536" y="-125" on="0"/>
        <pt x="568" y="-48" on="0"/>
        <pt x="576" y="-28" on="0"/>
        <pt x="593" y="23" on="0"/>
        <pt x="595" y="42" on="0"/>
        <pt x="601" y="91" on="0"/>
        <pt x="601" y="134" on="0"/>
        <pt x="601" y="171" on="1"/>
        <pt x="601" y="1189" on="1"/>
        <pt x="85" y="1189" on="1"/>
        <pt x="85" y="1421" on="1"/>
        <pt x="1369" y="1421" on="1"/>
        <pt x="1369" y="1189" on="1"/>
        <pt x="853" y="1189" on="1"/>
        <pt x="853" y="184" on="1"/>
        <pt x="853" y="99" on="0"/>
        <pt x="839" y="-8" on="0"/>
        <pt x="816" y="-71" on="1"/>
        <pt x="1027" y="-140" on="0"/>
        <pt x="1027" y="-275" on="1"/>
        <pt x="1027" y="-364" on="0"/>
        <pt x="854" y="-506" on="0"/>
        <pt x="719" y="-506" on="1"/>
        <pt x="692" y="-506" on="0"/>
        <pt x="632" y="-498" on="0"/>
        <pt x="585" y="-488" on="0"/>
        <pt x="469" y="-461" on="0"/>
        <pt x="425" y="-451" on="1"/>
        <pt x="371" y="-440" on="1"/>
        <pt x="445" y="-257" on="1"/>
        <pt x="499" y="-269" on="1"/>
        <pt x="522" y="-275" on="0"/>
        <pt x="592" y="-292" on="0"/>
        <pt x="623" y="-299" on="0"/>
        <pt x="668" y="-309" on="0"/>
        <pt x="692" y="-313" on="0"/>
        <pt x="719" y="-316" on="0"/>
      </contour>
    </TTGlyph>
    <TTGlyph name="Thorn" xMin="290" yMin="0" xMax="1400" yMax="1421">
      <contour>
        <pt x="751" y="967" on="1"/>
        <pt x="639" y="967" on="0"/>
        <pt x="542" y="960" on="1"/>
        <pt x="542" y="521" on="1"/>
        <pt x="646" y="515" on="0"/>
        <pt x="720" y="515" on="1"/>
        <pt x="752" y="515" on="1"/>
        <pt x="820" y="515" on="0"/>
        <pt x="917" y="522" on="0"/>
        <pt x="1029" y="550" on="0"/>
        <pt x="1098" y="599" on="0"/>
        <pt x="1144" y="689" on="0"/>
        <pt x="1144" y="752" on="1"/>
        <pt x="1144" y="807" on="0"/>
        <pt x="1100" y="887" on="0"/>
        <pt x="1031" y="932" on="0"/>
        <pt x="923" y="959" on="0"/>
        <pt x="820" y="967" on="0"/>
      </contour>
      <contour>
        <pt x="290" y="1421" on="1"/>
        <pt x="542" y="1421" on="1"/>
        <pt x="542" y="1160" on="1"/>
        <pt x="672" y="1169" on="0"/>
        <pt x="805" y="1169" on="1"/>
        <pt x="912" y="1169" on="0"/>
        <pt x="1082" y="1148" on="0"/>
        <pt x="1237" y="1093" on="0"/>
        <pt x="1340" y="1006" on="0"/>
        <pt x="1400" y="866" on="0"/>
        <pt x="1400" y="773" on="1"/>
        <pt x="1400" y="707" on="0"/>
        <pt x="1370" y="579" on="0"/>
        <pt x="1302" y="446" on="0"/>
        <pt x="1169" y="342" on="0"/>
        <pt x="1076" y="317" on="1"/>
        <pt x="944" y="285" on="0"/>
        <pt x="684" y="285" on="1"/>
        <pt x="612" y="285" on="0"/>
        <pt x="542" y="288" on="1"/>
        <pt x="542" y="0" on="1"/>
        <pt x="290" y="0" on="1"/>
      </contour>
    </TTGlyph>
    <TTGlyph name="U" xMin="290" yMin="-20" xMax="1527" yMax="1421">
      <contour>
        <pt x="909" y="-20" on="1"/>
        <pt x="343" y="-20" on="0"/>
        <pt x="295" y="376" on="1"/>
        <pt x="290" y="419" on="0"/>
        <pt x="290" y="485" on="1"/>
        <pt x="290" y="498" on="1"/>
        <pt x="290" y="1421" on="1"/>
        <pt x="542" y="1421" on="1"/>
        <pt x="542" y="520" on="1"/>
        <pt x="542" y="445" on="0"/>
        <pt x="571" y="344" on="0"/>
        <pt x="615" y="302" on="1"/>
        <pt x="712" y="209" on="0"/>
        <pt x="909" y="209" on="1"/>
        <pt x="1050" y="209" on="0"/>
        <pt x="1236" y="309" on="0"/>
        <pt x="1262" y="400" on="1"/>
        <pt x="1275" y="444" on="0"/>
        <pt x="1275" y="520" on="1"/>
        <pt x="1275" y="1421" on="1"/>
        <pt x="1525" y="1421" on="1"/>
        <pt x="1525" y="1109" on="0"/>
        <pt x="1526" y="712" on="0"/>
        <pt x="1526" y="601" on="0"/>
        <pt x="1527" y="533" on="0"/>
        <pt x="1527" y="511" on="1"/>
        <pt x="1527" y="464" on="0"/>
        <pt x="1522" y="389" on="0"/>
        <pt x="1495" y="273" on="0"/>
        <pt x="1448" y="184" on="0"/>
        <pt x="1355" y="86" on="0"/>
        <pt x="1228" y="22" on="0"/>
        <pt x="1032" y="-20" on="0"/>
      </contour>
    </TTGlyph>
    <TTGlyph name="Uacute" xMin="290" yMin="-20" xMax="1534" yMax="1976">
      <contour>
        <pt x="290" y="1421" on="1"/>
        <pt x="542" y="1421" on="1"/>
        <pt x="542" y="520" on="1"/>
        <pt x="542" y="469" on="0"/>
        <pt x="557" y="387" on="0"/>
        <pt x="605" y="302" on="0"/>
        <pt x="683" y="245" on="0"/>
        <pt x="820" y="209" on="0"/>
        <pt x="912" y="209" on="1"/>
        <pt x="1019" y="209" on="0"/>
        <pt x="1169" y="255" on="0"/>
        <pt x="1248" y="344" on="0"/>
        <pt x="1282" y="450" on="0"/>
        <pt x="1282" y="520" on="1"/>
        <pt x="1282" y="1421" on="1"/>
        <pt x="1534" y="1421" on="1"/>
        <pt x="1534" y="495" on="1"/>
        <pt x="1534" y="461" on="0"/>
        <pt x="1532" y="415" on="0"/>
        <pt x="1520" y="328" on="0"/>
        <pt x="1499" y="264" on="0"/>
        <pt x="1454" y="177" on="0"/>
        <pt x="1393" y="115" on="0"/>
        <pt x="1296" y="48" on="0"/>
        <pt x="1175" y="7" on="0"/>
        <pt x="1005" y="-20" on="0"/>
        <pt x="904" y="-20" on="1"/>
        <pt x="806" y="-20" on="0"/>
        <pt x="640" y="7" on="0"/>
        <pt x="522" y="49" on="0"/>
        <pt x="427" y="115" on="0"/>
        <pt x="368" y="178" on="0"/>
        <pt x="324" y="264" on="0"/>
        <pt x="303" y="329" on="0"/>
        <pt x="292" y="416" on="0"/>
        <pt x="290" y="462" on="0"/>
        <pt x="290" y="495" on="1"/>
      </contour>
      <contour>
        <pt x="1192" y="1976" on="1"/>
        <pt x="1313" y="1781" on="1"/>
        <pt x="661" y="1444" on="1"/>
        <pt x="546" y="1623" on="1"/>
      </contour>
    </TTGlyph>
    <TTGlyph name="Ubreve" xMin="288" yMin="-20" xMax="1536" yMax="1897">
      <contour>
        <pt x="366" y="1794" on="1"/>
        <pt x="560" y="1897" on="1"/>
        <pt x="581" y="1859" on="1"/>
        <pt x="590" y="1843" on="0"/>
        <pt x="610" y="1812" on="0"/>
        <pt x="656" y="1760" on="0"/>
        <pt x="706" y="1723" on="0"/>
        <pt x="782" y="1695" on="0"/>
        <pt x="823" y="1695" on="1"/>
        <pt x="903" y="1695" on="0"/>
        <pt x="1060" y="1797" on="0"/>
        <pt x="1118" y="1866" on="1"/>
        <pt x="1145" y="1897" on="1"/>
        <pt x="1341" y="1774" on="1"/>
        <pt x="1315" y="1739" on="1"/>
        <pt x="1222" y="1625" on="0"/>
        <pt x="950" y="1475" on="0"/>
        <pt x="805" y="1475" on="1"/>
        <pt x="721" y="1475" on="0"/>
        <pt x="574" y="1525" on="0"/>
        <pt x="470" y="1609" on="0"/>
        <pt x="398" y="1707" on="0"/>
        <pt x="378" y="1761" on="1"/>
      </contour>
      <contour>
        <pt x="912" y="-20" on="1"/>
        <pt x="812" y="-20" on="0"/>
        <pt x="643" y="7" on="0"/>
        <pt x="522" y="49" on="0"/>
        <pt x="426" y="116" on="0"/>
        <pt x="366" y="178" on="0"/>
        <pt x="322" y="266" on="0"/>
        <pt x="301" y="330" on="0"/>
        <pt x="290" y="418" on="0"/>
        <pt x="288" y="463" on="0"/>
        <pt x="288" y="497" on="1"/>
        <pt x="288" y="519" on="0"/>
        <pt x="290" y="604" on="0"/>
        <pt x="290" y="624" on="1"/>
        <pt x="290" y="1421" on="1"/>
        <pt x="542" y="1421" on="1"/>
        <pt x="542" y="520" on="1"/>
        <pt x="542" y="444" on="0"/>
        <pt x="570" y="344" on="0"/>
        <pt x="615" y="302" on="1"/>
        <pt x="715" y="209" on="0"/>
        <pt x="912" y="209" on="1"/>
        <pt x="1056" y="209" on="0"/>
        <pt x="1243" y="309" on="0"/>
        <pt x="1270" y="400" on="1"/>
        <pt x="1282" y="440" on="0"/>
        <pt x="1282" y="520" on="1"/>
        <pt x="1282" y="1421" on="1"/>
        <pt x="1534" y="1421" on="1"/>
        <pt x="1534" y="624" on="1"/>
        <pt x="1534" y="604" on="0"/>
        <pt x="1536" y="519" on="0"/>
        <pt x="1536" y="497" on="1"/>
        <pt x="1536" y="453" on="0"/>
        <pt x="1531" y="385" on="0"/>
        <pt x="1505" y="271" on="0"/>
        <pt x="1460" y="185" on="0"/>
        <pt x="1366" y="86" on="0"/>
        <pt x="1238" y="23" on="0"/>
        <pt x="1038" y="-20" on="0"/>
      </contour>
    </TTGlyph>
    <TTGlyph name="Ucircumflex" xMin="290" yMin="-20" xMax="1534" yMax="1943">
      <contour>
        <pt x="290" y="1421" on="1"/>
        <pt x="542" y="1421" on="1"/>
        <pt x="542" y="520" on="1"/>
        <pt x="542" y="469" on="0"/>
        <pt x="557" y="387" on="0"/>
        <pt x="605" y="302" on="0"/>
        <pt x="683" y="245" on="0"/>
        <pt x="820" y="209" on="0"/>
        <pt x="912" y="209" on="1"/>
        <pt x="1019" y="209" on="0"/>
        <pt x="1169" y="255" on="0"/>
        <pt x="1248" y="344" on="0"/>
        <pt x="1282" y="450" on="0"/>
        <pt x="1282" y="520" on="1"/>
        <pt x="1282" y="1421" on="1"/>
        <pt x="1534" y="1421" on="1"/>
        <pt x="1534" y="495" on="1"/>
        <pt x="1534" y="461" on="0"/>
        <pt x="1532" y="415" on="0"/>
        <pt x="1520" y="328" on="0"/>
        <pt x="1499" y="264" on="0"/>
        <pt x="1454" y="177" on="0"/>
        <pt x="1393" y="115" on="0"/>
        <pt x="1296" y="48" on="0"/>
        <pt x="1175" y="7" on="0"/>
        <pt x="1005" y="-20" on="0"/>
        <pt x="904" y="-20" on="1"/>
        <pt x="806" y="-20" on="0"/>
        <pt x="640" y="7" on="0"/>
        <pt x="522" y="49" on="0"/>
        <pt x="427" y="115" on="0"/>
        <pt x="368" y="178" on="0"/>
        <pt x="324" y="264" on="0"/>
        <pt x="303" y="329" on="0"/>
        <pt x="292" y="416" on="0"/>
        <pt x="290" y="462" on="0"/>
        <pt x="290" y="495" on="1"/>
      </contour>
      <contour>
        <pt x="929" y="1943" on="1"/>
        <pt x="1280" y="1594" on="1"/>
        <pt x="1107" y="1450" on="1"/>
        <pt x="912" y="1644" on="1"/>
        <pt x="713" y="1453" on="1"/>
        <pt x="544" y="1586" on="1"/>
      </contour>
    </TTGlyph>
    <TTGlyph name="Udieresis" xMin="290" yMin="-20" xMax="1534" yMax="1898">
      <contour>
        <pt x="290" y="1421" on="1"/>
        <pt x="542" y="1421" on="1"/>
        <pt x="542" y="520" on="1"/>
        <pt x="542" y="469" on="0"/>
        <pt x="557" y="387" on="0"/>
        <pt x="605" y="302" on="0"/>
        <pt x="683" y="245" on="0"/>
        <pt x="820" y="209" on="0"/>
        <pt x="912" y="209" on="1"/>
        <pt x="1019" y="209" on="0"/>
        <pt x="1169" y="255" on="0"/>
        <pt x="1248" y="344" on="0"/>
        <pt x="1282" y="450" on="0"/>
        <pt x="1282" y="520" on="1"/>
        <pt x="1282" y="1421" on="1"/>
        <pt x="1534" y="1421" on="1"/>
        <pt x="1534" y="495" on="1"/>
        <pt x="1534" y="461" on="0"/>
        <pt x="1532" y="415" on="0"/>
        <pt x="1520" y="328" on="0"/>
        <pt x="1499" y="264" on="0"/>
        <pt x="1454" y="177" on="0"/>
        <pt x="1393" y="115" on="0"/>
        <pt x="1296" y="48" on="0"/>
        <pt x="1175" y="7" on="0"/>
        <pt x="1005" y="-20" on="0"/>
        <pt x="904" y="-20" on="1"/>
        <pt x="806" y="-20" on="0"/>
        <pt x="640" y="7" on="0"/>
        <pt x="522" y="49" on="0"/>
        <pt x="427" y="115" on="0"/>
        <pt x="368" y="178" on="0"/>
        <pt x="324" y="264" on="0"/>
        <pt x="303" y="329" on="0"/>
        <pt x="292" y="416" on="0"/>
        <pt x="290" y="462" on="0"/>
        <pt x="290" y="495" on="1"/>
      </contour>
      <contour>
        <pt x="513" y="1898" on="1"/>
        <pt x="810" y="1898" on="1"/>
        <pt x="810" y="1631" on="1"/>
        <pt x="513" y="1631" on="1"/>
      </contour>
      <contour>
        <pt x="1014" y="1898" on="1"/>
        <pt x="1311" y="1898" on="1"/>
        <pt x="1311" y="1631" on="1"/>
        <pt x="1014" y="1631" on="1"/>
      </contour>
    </TTGlyph>
    <TTGlyph name="Ugrave" xMin="290" yMin="-20" xMax="1534" yMax="1973">
      <contour>
        <pt x="290" y="1421" on="1"/>
        <pt x="542" y="1421" on="1"/>
        <pt x="542" y="520" on="1"/>
        <pt x="542" y="469" on="0"/>
        <pt x="557" y="387" on="0"/>
        <pt x="605" y="302" on="0"/>
        <pt x="683" y="245" on="0"/>
        <pt x="820" y="209" on="0"/>
        <pt x="912" y="209" on="1"/>
        <pt x="1019" y="209" on="0"/>
        <pt x="1169" y="255" on="0"/>
        <pt x="1248" y="344" on="0"/>
        <pt x="1282" y="450" on="0"/>
        <pt x="1282" y="520" on="1"/>
        <pt x="1282" y="1421" on="1"/>
        <pt x="1534" y="1421" on="1"/>
        <pt x="1534" y="495" on="1"/>
        <pt x="1534" y="461" on="0"/>
        <pt x="1532" y="415" on="0"/>
        <pt x="1520" y="328" on="0"/>
        <pt x="1499" y="264" on="0"/>
        <pt x="1454" y="177" on="0"/>
        <pt x="1393" y="115" on="0"/>
        <pt x="1296" y="48" on="0"/>
        <pt x="1175" y="7" on="0"/>
        <pt x="1005" y="-20" on="0"/>
        <pt x="904" y="-20" on="1"/>
        <pt x="806" y="-20" on="0"/>
        <pt x="640" y="7" on="0"/>
        <pt x="522" y="49" on="0"/>
        <pt x="427" y="115" on="0"/>
        <pt x="368" y="178" on="0"/>
        <pt x="324" y="264" on="0"/>
        <pt x="303" y="329" on="0"/>
        <pt x="292" y="416" on="0"/>
        <pt x="290" y="462" on="0"/>
        <pt x="290" y="495" on="1"/>
      </contour>
      <contour>
        <pt x="664" y="1973" on="1"/>
        <pt x="1307" y="1620" on="1"/>
        <pt x="1193" y="1444" on="1"/>
        <pt x="538" y="1778" on="1"/>
      </contour>
    </TTGlyph>
    <TTGlyph name="Uhungarumlaut" xMin="288" yMin="-20" xMax="1625" yMax="2021">
      <contour>
        <pt x="554" y="1451" on="1"/>
        <pt x="427" y="1635" on="1"/>
        <pt x="978" y="2021" on="1"/>
        <pt x="1095" y="1853" on="1"/>
      </contour>
      <contour>
        <pt x="1498" y="2021" on="1"/>
        <pt x="1625" y="1837" on="1"/>
        <pt x="1074" y="1451" on="1"/>
        <pt x="957" y="1619" on="1"/>
      </contour>
      <contour>
        <pt x="912" y="-20" on="1"/>
        <pt x="812" y="-20" on="0"/>
        <pt x="643" y="7" on="0"/>
        <pt x="522" y="49" on="0"/>
        <pt x="426" y="116" on="0"/>
        <pt x="366" y="178" on="0"/>
        <pt x="322" y="266" on="0"/>
        <pt x="301" y="330" on="0"/>
        <pt x="290" y="418" on="0"/>
        <pt x="288" y="463" on="0"/>
        <pt x="288" y="497" on="1"/>
        <pt x="288" y="519" on="0"/>
        <pt x="290" y="604" on="0"/>
        <pt x="290" y="624" on="1"/>
        <pt x="290" y="1421" on="1"/>
        <pt x="542" y="1421" on="1"/>
        <pt x="542" y="520" on="1"/>
        <pt x="542" y="444" on="0"/>
        <pt x="570" y="344" on="0"/>
        <pt x="615" y="302" on="1"/>
        <pt x="715" y="209" on="0"/>
        <pt x="912" y="209" on="1"/>
        <pt x="1056" y="209" on="0"/>
        <pt x="1243" y="309" on="0"/>
        <pt x="1270" y="400" on="1"/>
        <pt x="1282" y="440" on="0"/>
        <pt x="1282" y="520" on="1"/>
        <pt x="1282" y="1421" on="1"/>
        <pt x="1534" y="1421" on="1"/>
        <pt x="1534" y="624" on="1"/>
        <pt x="1534" y="604" on="0"/>
        <pt x="1536" y="519" on="0"/>
        <pt x="1536" y="497" on="1"/>
        <pt x="1536" y="453" on="0"/>
        <pt x="1531" y="385" on="0"/>
        <pt x="1505" y="271" on="0"/>
        <pt x="1460" y="185" on="0"/>
        <pt x="1366" y="86" on="0"/>
        <pt x="1238" y="23" on="0"/>
        <pt x="1038" y="-20" on="0"/>
      </contour>
    </TTGlyph>
    <TTGlyph name="Umacron" xMin="288" yMin="-20" xMax="1536" yMax="1697">
      <contour>
        <pt x="912" y="-20" on="1"/>
        <pt x="323" y="-20" on="0"/>
        <pt x="290" y="417" on="1"/>
        <pt x="288" y="449" on="0"/>
        <pt x="288" y="498" on="1"/>
        <pt x="288" y="524" on="0"/>
        <pt x="290" y="609" on="0"/>
        <pt x="290" y="624" on="1"/>
        <pt x="290" y="1421" on="1"/>
        <pt x="542" y="1421" on="1"/>
        <pt x="542" y="520" on="1"/>
        <pt x="542" y="444" on="0"/>
        <pt x="570" y="344" on="0"/>
        <pt x="615" y="302" on="1"/>
        <pt x="715" y="209" on="0"/>
        <pt x="912" y="209" on="1"/>
        <pt x="1056" y="209" on="0"/>
        <pt x="1243" y="309" on="0"/>
        <pt x="1270" y="400" on="1"/>
        <pt x="1282" y="440" on="0"/>
        <pt x="1282" y="520" on="1"/>
        <pt x="1282" y="1421" on="1"/>
        <pt x="1534" y="1421" on="1"/>
        <pt x="1534" y="624" on="1"/>
        <pt x="1534" y="604" on="0"/>
        <pt x="1536" y="519" on="0"/>
        <pt x="1536" y="497" on="1"/>
        <pt x="1536" y="453" on="0"/>
        <pt x="1531" y="385" on="0"/>
        <pt x="1505" y="271" on="0"/>
        <pt x="1460" y="185" on="0"/>
        <pt x="1366" y="86" on="0"/>
        <pt x="1238" y="23" on="0"/>
        <pt x="1038" y="-20" on="0"/>
      </contour>
      <contour>
        <pt x="395" y="1697" on="1"/>
        <pt x="1389" y="1697" on="1"/>
        <pt x="1389" y="1486" on="1"/>
        <pt x="395" y="1486" on="1"/>
      </contour>
    </TTGlyph>
    <TTGlyph name="Uogonek" xMin="288" yMin="-545" xMax="1535" yMax="1421">
      <contour>
        <pt x="288" y="497" on="1"/>
        <pt x="288" y="519" on="0"/>
        <pt x="290" y="604" on="0"/>
        <pt x="290" y="624" on="1"/>
        <pt x="290" y="1421" on="1"/>
        <pt x="542" y="1421" on="1"/>
        <pt x="542" y="520" on="1"/>
        <pt x="542" y="444" on="0"/>
        <pt x="570" y="344" on="0"/>
        <pt x="615" y="302" on="1"/>
        <pt x="715" y="209" on="0"/>
        <pt x="912" y="209" on="1"/>
        <pt x="1056" y="209" on="0"/>
        <pt x="1243" y="309" on="0"/>
        <pt x="1270" y="400" on="1"/>
        <pt x="1282" y="440" on="0"/>
        <pt x="1282" y="520" on="1"/>
        <pt x="1282" y="1421" on="1"/>
        <pt x="1534" y="1421" on="1"/>
        <pt x="1534" y="625" on="1"/>
        <pt x="1534" y="606" on="0"/>
        <pt x="1535" y="526" on="0"/>
        <pt x="1535" y="506" on="1"/>
        <pt x="1535" y="412" on="0"/>
        <pt x="1508" y="273" on="0"/>
        <pt x="1463" y="176" on="0"/>
        <pt x="1378" y="99" on="0"/>
        <pt x="1287" y="47" on="0"/>
        <pt x="1215" y="16" on="1"/>
        <pt x="1129" y="-20" on="0"/>
        <pt x="1006" y="-108" on="0"/>
        <pt x="950" y="-185" on="0"/>
        <pt x="927" y="-241" on="0"/>
        <pt x="927" y="-261" on="1"/>
        <pt x="927" y="-292" on="0"/>
        <pt x="966" y="-330" on="0"/>
        <pt x="1002" y="-330" on="1"/>
        <pt x="1068" y="-330" on="0"/>
        <pt x="1157" y="-276" on="1"/>
        <pt x="1200" y="-251" on="1"/>
        <pt x="1296" y="-413" on="1"/>
        <pt x="1266" y="-435" on="1"/>
        <pt x="1203" y="-477" on="0"/>
        <pt x="1033" y="-545" on="0"/>
        <pt x="943" y="-545" on="1"/>
        <pt x="821" y="-545" on="0"/>
        <pt x="672" y="-407" on="0"/>
        <pt x="672" y="-298" on="1"/>
        <pt x="672" y="-148" on="0"/>
        <pt x="795" y="-16" on="1"/>
        <pt x="696" y="-8" on="0"/>
        <pt x="536" y="41" on="0"/>
        <pt x="432" y="106" on="0"/>
        <pt x="356" y="198" on="0"/>
        <pt x="316" y="281" on="0"/>
        <pt x="293" y="385" on="0"/>
        <pt x="288" y="455" on="0"/>
      </contour>
    </TTGlyph>
    <TTGlyph name="Uring" xMin="288" yMin="-20" xMax="1536" yMax="2007">
      <contour>
        <pt x="769" y="2007" on="0"/>
        <pt x="1011" y="2007" on="0"/>
        <pt x="1183" y="1852" on="0"/>
        <pt x="1183" y="1632" on="0"/>
        <pt x="1011" y="1476" on="0"/>
        <pt x="769" y="1476" on="0"/>
        <pt x="596" y="1632" on="0"/>
        <pt x="596" y="1742" on="1"/>
        <pt x="596" y="1851" on="0"/>
      </contour>
      <contour>
        <pt x="890" y="1834" on="1"/>
        <pt x="847" y="1834" on="0"/>
        <pt x="789" y="1780" on="0"/>
        <pt x="789" y="1704" on="0"/>
        <pt x="846" y="1649" on="0"/>
        <pt x="934" y="1649" on="0"/>
        <pt x="987" y="1708" on="0"/>
        <pt x="987" y="1742" on="1"/>
        <pt x="987" y="1779" on="0"/>
        <pt x="931" y="1834" on="0"/>
      </contour>
      <contour>
        <pt x="912" y="-20" on="1"/>
        <pt x="812" y="-20" on="0"/>
        <pt x="643" y="7" on="0"/>
        <pt x="522" y="49" on="0"/>
        <pt x="426" y="116" on="0"/>
        <pt x="366" y="178" on="0"/>
        <pt x="322" y="266" on="0"/>
        <pt x="301" y="330" on="0"/>
        <pt x="290" y="418" on="0"/>
        <pt x="288" y="463" on="0"/>
        <pt x="288" y="497" on="1"/>
        <pt x="288" y="519" on="0"/>
        <pt x="290" y="604" on="0"/>
        <pt x="290" y="624" on="1"/>
        <pt x="290" y="1421" on="1"/>
        <pt x="542" y="1421" on="1"/>
        <pt x="542" y="520" on="1"/>
        <pt x="542" y="444" on="0"/>
        <pt x="570" y="344" on="0"/>
        <pt x="615" y="302" on="1"/>
        <pt x="715" y="209" on="0"/>
        <pt x="912" y="209" on="1"/>
        <pt x="1056" y="209" on="0"/>
        <pt x="1243" y="309" on="0"/>
        <pt x="1270" y="400" on="1"/>
        <pt x="1282" y="440" on="0"/>
        <pt x="1282" y="520" on="1"/>
        <pt x="1282" y="1421" on="1"/>
        <pt x="1534" y="1421" on="1"/>
        <pt x="1534" y="624" on="1"/>
        <pt x="1534" y="604" on="0"/>
        <pt x="1536" y="519" on="0"/>
        <pt x="1536" y="497" on="1"/>
        <pt x="1536" y="453" on="0"/>
        <pt x="1531" y="385" on="0"/>
        <pt x="1505" y="271" on="0"/>
        <pt x="1460" y="185" on="0"/>
        <pt x="1366" y="86" on="0"/>
        <pt x="1238" y="23" on="0"/>
        <pt x="1038" y="-20" on="0"/>
      </contour>
    </TTGlyph>
    <TTGlyph name="Utilde" xMin="288" yMin="-20" xMax="1536" yMax="1876">
      <contour>
        <pt x="912" y="-20" on="1"/>
        <pt x="323" y="-20" on="0"/>
        <pt x="290" y="417" on="1"/>
        <pt x="288" y="449" on="0"/>
        <pt x="288" y="498" on="1"/>
        <pt x="288" y="524" on="0"/>
        <pt x="290" y="609" on="0"/>
        <pt x="290" y="624" on="1"/>
        <pt x="290" y="1421" on="1"/>
        <pt x="542" y="1421" on="1"/>
        <pt x="542" y="520" on="1"/>
        <pt x="542" y="444" on="0"/>
        <pt x="570" y="344" on="0"/>
        <pt x="615" y="302" on="1"/>
        <pt x="715" y="209" on="0"/>
        <pt x="912" y="209" on="1"/>
        <pt x="1056" y="209" on="0"/>
        <pt x="1243" y="309" on="0"/>
        <pt x="1270" y="400" on="1"/>
        <pt x="1282" y="440" on="0"/>
        <pt x="1282" y="520" on="1"/>
        <pt x="1282" y="1421" on="1"/>
        <pt x="1534" y="1421" on="1"/>
        <pt x="1534" y="624" on="1"/>
        <pt x="1534" y="604" on="0"/>
        <pt x="1536" y="519" on="0"/>
        <pt x="1536" y="497" on="1"/>
        <pt x="1536" y="453" on="0"/>
        <pt x="1531" y="385" on="0"/>
        <pt x="1505" y="271" on="0"/>
        <pt x="1460" y="185" on="0"/>
        <pt x="1366" y="86" on="0"/>
        <pt x="1238" y="23" on="0"/>
        <pt x="1038" y="-20" on="0"/>
      </contour>
      <contour>
        <pt x="710" y="1862" on="1"/>
        <pt x="769" y="1859" on="0"/>
        <pt x="873" y="1820" on="0"/>
        <pt x="943" y="1768" on="0"/>
        <pt x="1000" y="1717" on="0"/>
        <pt x="1050" y="1681" on="0"/>
        <pt x="1069" y="1681" on="1"/>
        <pt x="1080" y="1681" on="0"/>
        <pt x="1103" y="1695" on="0"/>
        <pt x="1122" y="1714" on="0"/>
        <pt x="1146" y="1751" on="0"/>
        <pt x="1161" y="1778" on="0"/>
        <pt x="1188" y="1829" on="0"/>
        <pt x="1196" y="1842" on="1"/>
        <pt x="1216" y="1876" on="1"/>
        <pt x="1402" y="1796" on="1"/>
        <pt x="1384" y="1758" on="1"/>
        <pt x="1334" y="1655" on="0"/>
        <pt x="1313" y="1623" on="1"/>
        <pt x="1218" y="1478" on="0"/>
        <pt x="1069" y="1478" on="1"/>
        <pt x="1010" y="1481" on="0"/>
        <pt x="906" y="1520" on="0"/>
        <pt x="836" y="1572" on="0"/>
        <pt x="779" y="1623" on="0"/>
        <pt x="729" y="1659" on="0"/>
        <pt x="710" y="1659" on="1"/>
        <pt x="700" y="1659" on="0"/>
        <pt x="681" y="1650" on="0"/>
        <pt x="662" y="1631" on="0"/>
        <pt x="647" y="1611" on="0"/>
        <pt x="626" y="1577" on="0"/>
        <pt x="613" y="1553" on="0"/>
        <pt x="590" y="1511" on="0"/>
        <pt x="583" y="1499" on="1"/>
        <pt x="563" y="1464" on="1"/>
        <pt x="382" y="1544" on="1"/>
        <pt x="400" y="1582" on="1"/>
        <pt x="403" y="1588" on="0"/>
        <pt x="427" y="1639" on="0"/>
        <pt x="438" y="1660" on="0"/>
        <pt x="465" y="1711" on="0"/>
        <pt x="484" y="1737" on="0"/>
        <pt x="517" y="1780" on="0"/>
        <pt x="546" y="1804" on="0"/>
        <pt x="588" y="1835" on="0"/>
        <pt x="629" y="1851" on="0"/>
        <pt x="682" y="1862" on="0"/>
      </contour>
    </TTGlyph>
    <TTGlyph name="V" xMin="140" yMin="0" xMax="1538" yMax="1421">
      <contour>
        <pt x="140" y="1421" on="1"/>
        <pt x="429" y="1421" on="1"/>
        <pt x="847" y="271" on="1"/>
        <pt x="1264" y="1421" on="1"/>
        <pt x="1538" y="1421" on="1"/>
        <pt x="988" y="0" on="1"/>
        <pt x="689" y="0" on="1"/>
      </contour>
    </TTGlyph>
    <TTGlyph name="W" xMin="140" yMin="0" xMax="2380" yMax="1421">
      <contour>
        <pt x="140" y="1421" on="1"/>
        <pt x="406" y="1421" on="1"/>
        <pt x="733" y="329" on="1"/>
        <pt x="1144" y="1421" on="1"/>
        <pt x="1376" y="1421" on="1"/>
        <pt x="1714" y="329" on="1"/>
        <pt x="2114" y="1421" on="1"/>
        <pt x="2380" y="1421" on="1"/>
        <pt x="1835" y="0" on="1"/>
        <pt x="1594" y="0" on="1"/>
        <pt x="1252" y="1087" on="1"/>
        <pt x="850" y="0" on="1"/>
        <pt x="609" y="0" on="1"/>
      </contour>
    </TTGlyph>
    <TTGlyph name="Wacute" xMin="140" yMin="0" xMax="2370" yMax="1944">
      <contour>
        <pt x="140" y="1421" on="1"/>
        <pt x="408" y="1421" on="1"/>
        <pt x="735" y="329" on="1"/>
        <pt x="1146" y="1421" on="1"/>
        <pt x="1378" y="1421" on="1"/>
        <pt x="1717" y="329" on="1"/>
        <pt x="2116" y="1421" on="1"/>
        <pt x="2370" y="1421" on="1"/>
        <pt x="1837" y="0" on="1"/>
        <pt x="1596" y="0" on="1"/>
        <pt x="1254" y="1087" on="1"/>
        <pt x="852" y="0" on="1"/>
        <pt x="611" y="0" on="1"/>
      </contour>
      <contour>
        <pt x="1484" y="1944" on="1"/>
        <pt x="1609" y="1749" on="1"/>
        <pt x="983" y="1414" on="1"/>
        <pt x="867" y="1591" on="1"/>
      </contour>
    </TTGlyph>
    <TTGlyph name="Wcircumflex" xMin="140" yMin="0" xMax="2370" yMax="1955">
      <contour>
        <pt x="140" y="1421" on="1"/>
        <pt x="408" y="1421" on="1"/>
        <pt x="735" y="329" on="1"/>
        <pt x="1146" y="1421" on="1"/>
        <pt x="1378" y="1421" on="1"/>
        <pt x="1717" y="329" on="1"/>
        <pt x="2116" y="1421" on="1"/>
        <pt x="2370" y="1421" on="1"/>
        <pt x="1837" y="0" on="1"/>
        <pt x="1596" y="0" on="1"/>
        <pt x="1254" y="1087" on="1"/>
        <pt x="852" y="0" on="1"/>
        <pt x="611" y="0" on="1"/>
      </contour>
      <contour>
        <pt x="1269" y="1955" on="1"/>
        <pt x="1606" y="1607" on="1"/>
        <pt x="1436" y="1462" on="1"/>
        <pt x="1255" y="1656" on="1"/>
        <pt x="1068" y="1465" on="1"/>
        <pt x="899" y="1598" on="1"/>
      </contour>
    </TTGlyph>
    <TTGlyph name="Wdieresis" xMin="140" yMin="0" xMax="2370" yMax="1898">
      <contour>
        <pt x="140" y="1421" on="1"/>
        <pt x="408" y="1421" on="1"/>
        <pt x="735" y="329" on="1"/>
        <pt x="1146" y="1421" on="1"/>
        <pt x="1378" y="1421" on="1"/>
        <pt x="1717" y="329" on="1"/>
        <pt x="2116" y="1421" on="1"/>
        <pt x="2370" y="1421" on="1"/>
        <pt x="1837" y="0" on="1"/>
        <pt x="1596" y="0" on="1"/>
        <pt x="1254" y="1087" on="1"/>
        <pt x="852" y="0" on="1"/>
        <pt x="611" y="0" on="1"/>
      </contour>
      <contour>
        <pt x="866" y="1898" on="1"/>
        <pt x="1164" y="1898" on="1"/>
        <pt x="1164" y="1631" on="1"/>
        <pt x="866" y="1631" on="1"/>
      </contour>
      <contour>
        <pt x="1347" y="1898" on="1"/>
        <pt x="1643" y="1898" on="1"/>
        <pt x="1643" y="1631" on="1"/>
        <pt x="1347" y="1631" on="1"/>
      </contour>
    </TTGlyph>
    <TTGlyph name="Wgrave" xMin="140" yMin="0" xMax="2370" yMax="1944">
      <contour>
        <pt x="140" y="1421" on="1"/>
        <pt x="408" y="1421" on="1"/>
        <pt x="735" y="329" on="1"/>
        <pt x="1146" y="1421" on="1"/>
        <pt x="1378" y="1421" on="1"/>
        <pt x="1717" y="329" on="1"/>
        <pt x="2116" y="1421" on="1"/>
        <pt x="2370" y="1421" on="1"/>
        <pt x="1837" y="0" on="1"/>
        <pt x="1596" y="0" on="1"/>
        <pt x="1254" y="1087" on="1"/>
        <pt x="852" y="0" on="1"/>
        <pt x="611" y="0" on="1"/>
      </contour>
      <contour>
        <pt x="1082" y="1944" on="1"/>
        <pt x="1699" y="1591" on="1"/>
        <pt x="1584" y="1414" on="1"/>
        <pt x="957" y="1749" on="1"/>
      </contour>
    </TTGlyph>
    <TTGlyph name="X" xMin="110" yMin="0" xMax="1575" yMax="1421">
      <contour>
        <pt x="1225" y="1421" on="1"/>
        <pt x="1520" y="1421" on="1"/>
        <pt x="1020" y="744" on="1"/>
        <pt x="1575" y="0" on="1"/>
        <pt x="1256" y="0" on="1"/>
        <pt x="838" y="566" on="1"/>
        <pt x="420" y="0" on="1"/>
        <pt x="110" y="0" on="1"/>
        <pt x="673" y="741" on="1"/>
        <pt x="172" y="1421" on="1"/>
        <pt x="476" y="1421" on="1"/>
        <pt x="857" y="919" on="1"/>
      </contour>
    </TTGlyph>
    <TTGlyph name="Y" xMin="100" yMin="0" xMax="1454" yMax="1421">
      <contour>
        <pt x="100" y="1421" on="1"/>
        <pt x="398" y="1421" on="1"/>
        <pt x="778" y="870" on="1"/>
        <pt x="1166" y="1421" on="1"/>
        <pt x="1454" y="1421" on="1"/>
        <pt x="909" y="664" on="1"/>
        <pt x="909" y="0" on="1"/>
        <pt x="626" y="0" on="1"/>
        <pt x="626" y="664" on="1"/>
      </contour>
    </TTGlyph>
    <TTGlyph name="Yacute" xMin="100" yMin="0" xMax="1454" yMax="1976">
      <contour>
        <pt x="100" y="1421" on="1"/>
        <pt x="398" y="1421" on="1"/>
        <pt x="778" y="870" on="1"/>
        <pt x="1166" y="1421" on="1"/>
        <pt x="1454" y="1421" on="1"/>
        <pt x="909" y="664" on="1"/>
        <pt x="909" y="0" on="1"/>
        <pt x="626" y="0" on="1"/>
        <pt x="626" y="664" on="1"/>
      </contour>
      <contour>
        <pt x="1027" y="1976" on="1"/>
        <pt x="1151" y="1781" on="1"/>
        <pt x="499" y="1444" on="1"/>
        <pt x="386" y="1623" on="1"/>
      </contour>
    </TTGlyph>
    <TTGlyph name="Ycircumflex" xMin="100" yMin="0" xMax="1454" yMax="1951">
      <contour>
        <pt x="100" y="1421" on="1"/>
        <pt x="398" y="1421" on="1"/>
        <pt x="778" y="870" on="1"/>
        <pt x="1166" y="1421" on="1"/>
        <pt x="1454" y="1421" on="1"/>
        <pt x="909" y="664" on="1"/>
        <pt x="909" y="0" on="1"/>
        <pt x="626" y="0" on="1"/>
        <pt x="626" y="664" on="1"/>
      </contour>
      <contour>
        <pt x="796" y="1951" on="1"/>
        <pt x="1145" y="1603" on="1"/>
        <pt x="975" y="1458" on="1"/>
        <pt x="780" y="1652" on="1"/>
        <pt x="580" y="1461" on="1"/>
        <pt x="413" y="1594" on="1"/>
      </contour>
    </TTGlyph>
    <TTGlyph name="Ydieresis" xMin="100" yMin="0" xMax="1454" yMax="1898">
      <contour>
        <pt x="100" y="1421" on="1"/>
        <pt x="398" y="1421" on="1"/>
        <pt x="778" y="870" on="1"/>
        <pt x="1166" y="1421" on="1"/>
        <pt x="1454" y="1421" on="1"/>
        <pt x="909" y="664" on="1"/>
        <pt x="909" y="0" on="1"/>
        <pt x="626" y="0" on="1"/>
        <pt x="626" y="664" on="1"/>
      </contour>
      <contour>
        <pt x="877" y="1898" on="1"/>
        <pt x="1175" y="1898" on="1"/>
        <pt x="1175" y="1631" on="1"/>
        <pt x="877" y="1631" on="1"/>
      </contour>
      <contour>
        <pt x="376" y="1898" on="1"/>
        <pt x="672" y="1898" on="1"/>
        <pt x="672" y="1631" on="1"/>
        <pt x="376" y="1631" on="1"/>
      </contour>
    </TTGlyph>
    <TTGlyph name="Ygrave" xMin="100" yMin="0" xMax="1454" yMax="1944">
      <contour>
        <pt x="100" y="1421" on="1"/>
        <pt x="398" y="1421" on="1"/>
        <pt x="778" y="870" on="1"/>
        <pt x="1166" y="1421" on="1"/>
        <pt x="1454" y="1421" on="1"/>
        <pt x="909" y="664" on="1"/>
        <pt x="909" y="0" on="1"/>
        <pt x="626" y="0" on="1"/>
        <pt x="626" y="664" on="1"/>
      </contour>
      <contour>
        <pt x="534" y="1944" on="1"/>
        <pt x="1176" y="1591" on="1"/>
        <pt x="1062" y="1414" on="1"/>
        <pt x="409" y="1749" on="1"/>
      </contour>
    </TTGlyph>
    <TTGlyph name="Z" xMin="155" yMin="0" xMax="1462" yMax="1421">
      <contour>
        <pt x="185" y="1421" on="1"/>
        <pt x="1435" y="1421" on="1"/>
        <pt x="1435" y="1268" on="1"/>
        <pt x="517" y="232" on="1"/>
        <pt x="1462" y="232" on="1"/>
        <pt x="1462" y="0" on="1"/>
        <pt x="155" y="0" on="1"/>
        <pt x="155" y="155" on="1"/>
        <pt x="1052" y="1189" on="1"/>
        <pt x="185" y="1189" on="1"/>
      </contour>
    </TTGlyph>
    <TTGlyph name="Zacute" xMin="155" yMin="0" xMax="1462" yMax="1992">
      <contour>
        <pt x="185" y="1421" on="1"/>
        <pt x="1435" y="1421" on="1"/>
        <pt x="1435" y="1268" on="1"/>
        <pt x="517" y="232" on="1"/>
        <pt x="1462" y="232" on="1"/>
        <pt x="1462" y="0" on="1"/>
        <pt x="155" y="0" on="1"/>
        <pt x="155" y="155" on="1"/>
        <pt x="1052" y="1189" on="1"/>
        <pt x="185" y="1189" on="1"/>
      </contour>
      <contour>
        <pt x="1086" y="1992" on="1"/>
        <pt x="1209" y="1797" on="1"/>
        <pt x="561" y="1461" on="1"/>
        <pt x="447" y="1639" on="1"/>
      </contour>
    </TTGlyph>
    <TTGlyph name="Zcaron" xMin="155" yMin="0" xMax="1462" yMax="1950">
      <contour>
        <pt x="185" y="1421" on="1"/>
        <pt x="1435" y="1421" on="1"/>
        <pt x="1435" y="1268" on="1"/>
        <pt x="517" y="232" on="1"/>
        <pt x="1462" y="232" on="1"/>
        <pt x="1462" y="0" on="1"/>
        <pt x="155" y="0" on="1"/>
        <pt x="155" y="155" on="1"/>
        <pt x="1052" y="1189" on="1"/>
        <pt x="185" y="1189" on="1"/>
      </contour>
      <contour>
        <pt x="797" y="1457" on="1"/>
        <pt x="450" y="1805" on="1"/>
        <pt x="619" y="1950" on="1"/>
        <pt x="813" y="1756" on="1"/>
        <pt x="1011" y="1947" on="1"/>
        <pt x="1177" y="1814" on="1"/>
      </contour>
    </TTGlyph>
    <TTGlyph name="Zdotaccent" xMin="155" yMin="0" xMax="1462" yMax="1829">
      <contour>
        <pt x="185" y="1421" on="1"/>
        <pt x="1435" y="1421" on="1"/>
        <pt x="1435" y="1268" on="1"/>
        <pt x="517" y="232" on="1"/>
        <pt x="1462" y="232" on="1"/>
        <pt x="1462" y="0" on="1"/>
        <pt x="155" y="0" on="1"/>
        <pt x="155" y="155" on="1"/>
        <pt x="1052" y="1189" on="1"/>
        <pt x="185" y="1189" on="1"/>
      </contour>
      <contour>
        <pt x="629" y="1829" on="1"/>
        <pt x="954" y="1829" on="1"/>
        <pt x="954" y="1537" on="1"/>
        <pt x="629" y="1537" on="1"/>
      </contour>
    </TTGlyph>
    <TTGlyph name="a" xMin="123" yMin="-20" xMax="1053" yMax="1007">
      <contour>
        <pt x="597" y="1007" on="1"/>
        <pt x="705" y="1007" on="0"/>
        <pt x="868" y="968" on="0"/>
        <pt x="968" y="904" on="0"/>
        <pt x="1030" y="808" on="0"/>
        <pt x="1053" y="709" on="0"/>
        <pt x="1053" y="648" on="1"/>
        <pt x="1053" y="0" on="1"/>
        <pt x="869" y="0" on="1"/>
        <pt x="841" y="65" on="1"/>
        <pt x="708" y="-20" on="0"/>
        <pt x="538" y="-20" on="1"/>
        <pt x="353" y="-20" on="0"/>
        <pt x="123" y="154" on="0"/>
        <pt x="123" y="273" on="1"/>
        <pt x="123" y="347" on="0"/>
        <pt x="198" y="457" on="0"/>
        <pt x="320" y="523" on="0"/>
        <pt x="504" y="565" on="0"/>
        <pt x="689" y="581" on="0"/>
        <pt x="806" y="582" on="1"/>
        <pt x="806" y="616" on="1"/>
        <pt x="806" y="654" on="0"/>
        <pt x="793" y="704" on="0"/>
        <pt x="749" y="760" on="0"/>
        <pt x="646" y="789" on="0"/>
        <pt x="566" y="789" on="1"/>
        <pt x="454" y="789" on="0"/>
        <pt x="269" y="745" on="1"/>
        <pt x="229" y="734" on="1"/>
        <pt x="178" y="931" on="1"/>
        <pt x="213" y="943" on="1"/>
        <pt x="398" y="1007" on="0"/>
      </contour>
      <contour>
        <pt x="806" y="255" on="1"/>
        <pt x="806" y="396" on="1"/>
        <pt x="782" y="396" on="1"/>
        <pt x="580" y="396" on="0"/>
        <pt x="383" y="348" on="0"/>
        <pt x="383" y="291" on="1"/>
        <pt x="383" y="255" on="0"/>
        <pt x="503" y="191" on="0"/>
        <pt x="590" y="191" on="1"/>
        <pt x="713" y="191" on="0"/>
      </contour>
    </TTGlyph>
    <TTGlyph name="aacute" xMin="123" yMin="-20" xMax="1053" yMax="1567">
      <contour>
        <pt x="802" y="1567" on="1"/>
        <pt x="949" y="1394" on="1"/>
        <pt x="441" y="1026" on="1"/>
        <pt x="297" y="1189" on="1"/>
      </contour>
      <contour>
        <pt x="806" y="255" on="1"/>
        <pt x="806" y="396" on="1"/>
        <pt x="781" y="396" on="1"/>
        <pt x="572" y="396" on="0"/>
        <pt x="369" y="348" on="0"/>
        <pt x="369" y="291" on="1"/>
        <pt x="369" y="254" on="0"/>
        <pt x="492" y="191" on="0"/>
        <pt x="582" y="191" on="1"/>
        <pt x="709" y="191" on="0"/>
      </contour>
      <contour>
        <pt x="589" y="1006" on="1"/>
        <pt x="700" y="1006" on="0"/>
        <pt x="866" y="967" on="0"/>
        <pt x="968" y="902" on="0"/>
        <pt x="1030" y="806" on="0"/>
        <pt x="1053" y="706" on="0"/>
        <pt x="1053" y="644" on="1"/>
        <pt x="1053" y="0" on="1"/>
        <pt x="869" y="0" on="1"/>
        <pt x="841" y="65" on="1"/>
        <pt x="707" y="-20" on="0"/>
        <pt x="528" y="-20" on="1"/>
        <pt x="350" y="-20" on="0"/>
        <pt x="123" y="155" on="0"/>
        <pt x="123" y="273" on="1"/>
        <pt x="123" y="347" on="0"/>
        <pt x="196" y="457" on="0"/>
        <pt x="315" y="523" on="0"/>
        <pt x="498" y="564" on="0"/>
        <pt x="685" y="580" on="0"/>
        <pt x="806" y="581" on="1"/>
        <pt x="806" y="616" on="1"/>
        <pt x="806" y="645" on="0"/>
        <pt x="799" y="687" on="0"/>
        <pt x="771" y="737" on="0"/>
        <pt x="720" y="768" on="0"/>
        <pt x="624" y="789" on="0"/>
        <pt x="557" y="789" on="1"/>
        <pt x="435" y="789" on="0"/>
        <pt x="269" y="745" on="1"/>
        <pt x="229" y="734" on="1"/>
        <pt x="178" y="931" on="1"/>
        <pt x="213" y="943" on="1"/>
        <pt x="382" y="1006" on="0"/>
      </contour>
    </TTGlyph>
    <TTGlyph name="abreve" xMin="123" yMin="-20" xMax="1137" yMax="1463">
      <contour>
        <pt x="162" y="1360" on="1"/>
        <pt x="354" y="1463" on="1"/>
        <pt x="374" y="1425" on="1"/>
        <pt x="383" y="1409" on="0"/>
        <pt x="405" y="1378" on="0"/>
        <pt x="453" y="1326" on="0"/>
        <pt x="506" y="1289" on="0"/>
        <pt x="586" y="1261" on="0"/>
        <pt x="629" y="1261" on="1"/>
        <pt x="714" y="1261" on="0"/>
        <pt x="879" y="1365" on="0"/>
        <pt x="932" y="1432" on="1"/>
        <pt x="956" y="1463" on="1"/>
        <pt x="1137" y="1340" on="1"/>
        <pt x="1111" y="1305" on="1"/>
        <pt x="1024" y="1190" on="0"/>
        <pt x="763" y="1041" on="0"/>
        <pt x="610" y="1041" on="1"/>
        <pt x="521" y="1041" on="0"/>
        <pt x="370" y="1091" on="0"/>
        <pt x="265" y="1175" on="0"/>
        <pt x="194" y="1272" on="0"/>
        <pt x="174" y="1327" on="1"/>
      </contour>
      <contour>
        <pt x="794" y="255" on="1"/>
        <pt x="794" y="396" on="1"/>
        <pt x="770" y="396" on="1"/>
        <pt x="566" y="396" on="0"/>
        <pt x="369" y="348" on="0"/>
        <pt x="369" y="291" on="1"/>
        <pt x="369" y="254" on="0"/>
        <pt x="489" y="191" on="0"/>
        <pt x="576" y="191" on="1"/>
        <pt x="700" y="191" on="0"/>
      </contour>
      <contour>
        <pt x="581" y="1006" on="1"/>
        <pt x="694" y="1006" on="0"/>
        <pt x="864" y="967" on="0"/>
        <pt x="967" y="902" on="0"/>
        <pt x="1030" y="806" on="0"/>
        <pt x="1053" y="706" on="0"/>
        <pt x="1053" y="644" on="1"/>
        <pt x="1053" y="0" on="1"/>
        <pt x="869" y="0" on="1"/>
        <pt x="836" y="65" on="1"/>
        <pt x="692" y="-20" on="0"/>
        <pt x="523" y="-20" on="1"/>
        <pt x="348" y="-20" on="0"/>
        <pt x="123" y="155" on="0"/>
        <pt x="123" y="273" on="1"/>
        <pt x="123" y="347" on="0"/>
        <pt x="195" y="457" on="0"/>
        <pt x="312" y="523" on="0"/>
        <pt x="491" y="564" on="0"/>
        <pt x="673" y="580" on="0"/>
        <pt x="790" y="581" on="1"/>
        <pt x="790" y="616" on="1"/>
        <pt x="790" y="640" on="0"/>
        <pt x="785" y="675" on="0"/>
        <pt x="771" y="719" on="0"/>
        <pt x="738" y="748" on="0"/>
        <pt x="687" y="776" on="0"/>
        <pt x="605" y="789" on="0"/>
        <pt x="551" y="789" on="1"/>
        <pt x="433" y="789" on="0"/>
        <pt x="269" y="745" on="1"/>
        <pt x="229" y="734" on="1"/>
        <pt x="178" y="931" on="1"/>
        <pt x="213" y="943" on="1"/>
        <pt x="382" y="1006" on="0"/>
      </contour>
    </TTGlyph>
    <TTGlyph name="acircumflex" xMin="123" yMin="-20" xMax="1053" yMax="1509">
      <contour>
        <pt x="636" y="1509" on="1"/>
        <pt x="980" y="1161" on="1"/>
        <pt x="828" y="1016" on="1"/>
        <pt x="619" y="1210" on="1"/>
        <pt x="399" y="1019" on="1"/>
        <pt x="244" y="1152" on="1"/>
      </contour>
      <contour>
        <pt x="806" y="255" on="1"/>
        <pt x="806" y="396" on="1"/>
        <pt x="781" y="396" on="1"/>
        <pt x="572" y="396" on="0"/>
        <pt x="369" y="348" on="0"/>
        <pt x="369" y="291" on="1"/>
        <pt x="369" y="254" on="0"/>
        <pt x="492" y="191" on="0"/>
        <pt x="582" y="191" on="1"/>
        <pt x="709" y="191" on="0"/>
      </contour>
      <contour>
        <pt x="589" y="1006" on="1"/>
        <pt x="700" y="1006" on="0"/>
        <pt x="866" y="967" on="0"/>
        <pt x="968" y="902" on="0"/>
        <pt x="1030" y="806" on="0"/>
        <pt x="1053" y="706" on="0"/>
        <pt x="1053" y="644" on="1"/>
        <pt x="1053" y="0" on="1"/>
        <pt x="869" y="0" on="1"/>
        <pt x="841" y="65" on="1"/>
        <pt x="707" y="-20" on="0"/>
        <pt x="528" y="-20" on="1"/>
        <pt x="350" y="-20" on="0"/>
        <pt x="123" y="155" on="0"/>
        <pt x="123" y="273" on="1"/>
        <pt x="123" y="347" on="0"/>
        <pt x="196" y="457" on="0"/>
        <pt x="315" y="523" on="0"/>
        <pt x="498" y="564" on="0"/>
        <pt x="685" y="580" on="0"/>
        <pt x="806" y="581" on="1"/>
        <pt x="806" y="616" on="1"/>
        <pt x="806" y="645" on="0"/>
        <pt x="799" y="687" on="0"/>
        <pt x="771" y="737" on="0"/>
        <pt x="720" y="768" on="0"/>
        <pt x="624" y="789" on="0"/>
        <pt x="557" y="789" on="1"/>
        <pt x="435" y="789" on="0"/>
        <pt x="269" y="745" on="1"/>
        <pt x="229" y="734" on="1"/>
        <pt x="178" y="931" on="1"/>
        <pt x="213" y="943" on="1"/>
        <pt x="382" y="1006" on="0"/>
      </contour>
    </TTGlyph>
    <TTGlyph name="acute" xMin="219" yMin="1111" xMax="904" yMax="1642">
      <contour>
        <pt x="793" y="1642" on="1"/>
        <pt x="904" y="1447" on="1"/>
        <pt x="321" y="1111" on="1"/>
        <pt x="219" y="1289" on="1"/>
      </contour>
    </TTGlyph>
    <TTGlyph name="adieresis" xMin="123" yMin="-20" xMax="1057" yMax="1421">
      <contour>
        <pt x="785" y="1421" on="1"/>
        <pt x="1057" y="1421" on="1"/>
        <pt x="1057" y="1153" on="1"/>
        <pt x="785" y="1153" on="1"/>
      </contour>
      <contour>
        <pt x="259" y="1421" on="1"/>
        <pt x="562" y="1421" on="1"/>
        <pt x="562" y="1153" on="1"/>
        <pt x="259" y="1153" on="1"/>
      </contour>
      <contour>
        <pt x="805" y="255" on="1"/>
        <pt x="805" y="396" on="1"/>
        <pt x="780" y="396" on="1"/>
        <pt x="571" y="396" on="0"/>
        <pt x="369" y="348" on="0"/>
        <pt x="369" y="291" on="1"/>
        <pt x="369" y="254" on="0"/>
        <pt x="492" y="191" on="0"/>
        <pt x="581" y="191" on="1"/>
        <pt x="708" y="191" on="0"/>
      </contour>
      <contour>
        <pt x="589" y="1006" on="1"/>
        <pt x="700" y="1006" on="0"/>
        <pt x="867" y="967" on="0"/>
        <pt x="968" y="902" on="0"/>
        <pt x="1030" y="806" on="0"/>
        <pt x="1053" y="706" on="0"/>
        <pt x="1053" y="644" on="1"/>
        <pt x="1053" y="0" on="1"/>
        <pt x="869" y="0" on="1"/>
        <pt x="841" y="65" on="1"/>
        <pt x="705" y="-20" on="0"/>
        <pt x="349" y="-20" on="0"/>
        <pt x="123" y="155" on="0"/>
        <pt x="123" y="273" on="1"/>
        <pt x="123" y="335" on="0"/>
        <pt x="171" y="432" on="0"/>
        <pt x="265" y="497" on="0"/>
        <pt x="384" y="543" on="0"/>
        <pt x="545" y="568" on="0"/>
        <pt x="706" y="580" on="0"/>
        <pt x="805" y="581" on="1"/>
        <pt x="805" y="616" on="1"/>
        <pt x="805" y="646" on="0"/>
        <pt x="798" y="687" on="0"/>
        <pt x="770" y="737" on="0"/>
        <pt x="719" y="768" on="0"/>
        <pt x="624" y="789" on="0"/>
        <pt x="557" y="789" on="1"/>
        <pt x="435" y="789" on="0"/>
        <pt x="269" y="745" on="1"/>
        <pt x="229" y="734" on="1"/>
        <pt x="178" y="931" on="1"/>
        <pt x="213" y="943" on="1"/>
        <pt x="382" y="1006" on="0"/>
      </contour>
    </TTGlyph>
    <TTGlyph name="ae" xMin="123" yMin="-20" xMax="1707" yMax="1006">
      <contour>
        <pt x="368" y="315" on="1"/>
        <pt x="368" y="268" on="0"/>
        <pt x="484" y="193" on="0"/>
        <pt x="561" y="193" on="1"/>
        <pt x="671" y="193" on="0"/>
        <pt x="753" y="265" on="1"/>
        <pt x="753" y="436" on="1"/>
        <pt x="651" y="435" on="0"/>
        <pt x="505" y="419" on="0"/>
        <pt x="425" y="397" on="0"/>
        <pt x="380" y="364" on="0"/>
        <pt x="368" y="335" on="0"/>
      </contour>
      <contour>
        <pt x="1272" y="782" on="1"/>
        <pt x="1172" y="782" on="0"/>
        <pt x="1044" y="679" on="0"/>
        <pt x="1031" y="601" on="1"/>
        <pt x="1467" y="601" on="1"/>
        <pt x="1464" y="636" on="0"/>
        <pt x="1442" y="695" on="0"/>
        <pt x="1400" y="750" on="0"/>
        <pt x="1324" y="782" on="0"/>
      </contour>
      <contour>
        <pt x="213" y="946" on="1"/>
        <pt x="388" y="1006" on="0"/>
        <pt x="578" y="1006" on="1"/>
        <pt x="815" y="1006" on="0"/>
        <pt x="926" y="860" on="1"/>
        <pt x="1001" y="928" on="0"/>
        <pt x="1196" y="1006" on="0"/>
        <pt x="1302" y="1006" on="1"/>
        <pt x="1388" y="1006" on="0"/>
        <pt x="1522" y="958" on="0"/>
        <pt x="1608" y="870" on="0"/>
        <pt x="1666" y="765" on="0"/>
        <pt x="1696" y="628" on="0"/>
        <pt x="1707" y="507" on="0"/>
        <pt x="1707" y="436" on="1"/>
        <pt x="1707" y="395" on="1"/>
        <pt x="1023" y="395" on="1"/>
        <pt x="1041" y="308" on="0"/>
        <pt x="1232" y="194" on="0"/>
        <pt x="1369" y="194" on="1"/>
        <pt x="1458" y="194" on="0"/>
        <pt x="1570" y="228" on="1"/>
        <pt x="1612" y="241" on="1"/>
        <pt x="1657" y="51" on="1"/>
        <pt x="1623" y="39" on="1"/>
        <pt x="1462" y="-20" on="0"/>
        <pt x="1301" y="-20" on="1"/>
        <pt x="1055" y="-20" on="0"/>
        <pt x="904" y="111" on="1"/>
        <pt x="767" y="-20" on="0"/>
        <pt x="526" y="-20" on="1"/>
        <pt x="363" y="-20" on="0"/>
        <pt x="123" y="153" on="0"/>
        <pt x="123" y="283" on="1"/>
        <pt x="123" y="404" on="0"/>
        <pt x="333" y="568" on="0"/>
        <pt x="532" y="586" on="1"/>
        <pt x="607" y="593" on="0"/>
        <pt x="753" y="595" on="1"/>
        <pt x="753" y="604" on="1"/>
        <pt x="753" y="644" on="0"/>
        <pt x="733" y="711" on="0"/>
        <pt x="685" y="770" on="0"/>
        <pt x="595" y="804" on="0"/>
        <pt x="532" y="804" on="1"/>
        <pt x="436" y="804" on="0"/>
        <pt x="279" y="765" on="1"/>
        <pt x="242" y="755" on="1"/>
        <pt x="175" y="933" on="1"/>
      </contour>
    </TTGlyph>
    <TTGlyph name="afii00208" xMin="0" yMin="548" xMax="1682" yMax="769">
      <contour>
        <pt x="0" y="769" on="1"/>
        <pt x="1682" y="769" on="1"/>
        <pt x="1682" y="548" on="1"/>
        <pt x="0" y="548" on="1"/>
      </contour>
    </TTGlyph>
    <TTGlyph name="agrave" xMin="123" yMin="-20" xMax="1053" yMax="1557">
      <contour>
        <pt x="589" y="1006" on="1"/>
        <pt x="700" y="1006" on="0"/>
        <pt x="866" y="967" on="0"/>
        <pt x="968" y="902" on="0"/>
        <pt x="1030" y="806" on="0"/>
        <pt x="1053" y="706" on="0"/>
        <pt x="1053" y="644" on="1"/>
        <pt x="1053" y="0" on="1"/>
        <pt x="869" y="0" on="1"/>
        <pt x="841" y="65" on="1"/>
        <pt x="707" y="-20" on="0"/>
        <pt x="528" y="-20" on="1"/>
        <pt x="350" y="-20" on="0"/>
        <pt x="123" y="155" on="0"/>
        <pt x="123" y="273" on="1"/>
        <pt x="123" y="347" on="0"/>
        <pt x="196" y="457" on="0"/>
        <pt x="315" y="523" on="0"/>
        <pt x="498" y="564" on="0"/>
        <pt x="685" y="580" on="0"/>
        <pt x="806" y="581" on="1"/>
        <pt x="806" y="616" on="1"/>
        <pt x="806" y="645" on="0"/>
        <pt x="799" y="687" on="0"/>
        <pt x="771" y="737" on="0"/>
        <pt x="720" y="768" on="0"/>
        <pt x="624" y="789" on="0"/>
        <pt x="557" y="789" on="1"/>
        <pt x="435" y="789" on="0"/>
        <pt x="269" y="745" on="1"/>
        <pt x="229" y="734" on="1"/>
        <pt x="178" y="931" on="1"/>
        <pt x="213" y="943" on="1"/>
        <pt x="382" y="1006" on="0"/>
      </contour>
      <contour>
        <pt x="806" y="255" on="1"/>
        <pt x="806" y="396" on="1"/>
        <pt x="781" y="396" on="1"/>
        <pt x="572" y="396" on="0"/>
        <pt x="369" y="348" on="0"/>
        <pt x="369" y="291" on="1"/>
        <pt x="369" y="254" on="0"/>
        <pt x="492" y="191" on="0"/>
        <pt x="582" y="191" on="1"/>
        <pt x="709" y="191" on="0"/>
      </contour>
      <contour>
        <pt x="508" y="1557" on="1"/>
        <pt x="988" y="1179" on="1"/>
        <pt x="858" y="1016" on="1"/>
        <pt x="336" y="1384" on="1"/>
      </contour>
    </TTGlyph>
    <TTGlyph name="amacron" xMin="123" yMin="-20" xMax="1053" yMax="1333">
      <contour>
        <pt x="265" y="1333" on="1"/>
        <pt x="961" y="1333" on="1"/>
        <pt x="961" y="1122" on="1"/>
        <pt x="265" y="1122" on="1"/>
      </contour>
      <contour>
        <pt x="806" y="255" on="1"/>
        <pt x="806" y="396" on="1"/>
        <pt x="781" y="396" on="1"/>
        <pt x="572" y="396" on="0"/>
        <pt x="368" y="348" on="0"/>
        <pt x="368" y="291" on="1"/>
        <pt x="368" y="255" on="0"/>
        <pt x="492" y="191" on="0"/>
        <pt x="582" y="191" on="1"/>
        <pt x="709" y="191" on="0"/>
      </contour>
      <contour>
        <pt x="589" y="1007" on="1"/>
        <pt x="721" y="1007" on="0"/>
        <pt x="906" y="955" on="0"/>
        <pt x="1008" y="855" on="0"/>
        <pt x="1053" y="729" on="0"/>
        <pt x="1053" y="645" on="1"/>
        <pt x="1053" y="0" on="1"/>
        <pt x="869" y="0" on="1"/>
        <pt x="841" y="65" on="1"/>
        <pt x="707" y="-20" on="0"/>
        <pt x="528" y="-20" on="1"/>
        <pt x="350" y="-20" on="0"/>
        <pt x="123" y="155" on="0"/>
        <pt x="123" y="273" on="1"/>
        <pt x="123" y="335" on="0"/>
        <pt x="171" y="432" on="0"/>
        <pt x="265" y="498" on="0"/>
        <pt x="384" y="544" on="0"/>
        <pt x="545" y="569" on="0"/>
        <pt x="707" y="581" on="0"/>
        <pt x="806" y="582" on="1"/>
        <pt x="806" y="616" on="1"/>
        <pt x="806" y="645" on="0"/>
        <pt x="799" y="687" on="0"/>
        <pt x="771" y="737" on="0"/>
        <pt x="720" y="768" on="0"/>
        <pt x="624" y="789" on="0"/>
        <pt x="557" y="789" on="1"/>
        <pt x="435" y="789" on="0"/>
        <pt x="269" y="745" on="1"/>
        <pt x="229" y="734" on="1"/>
        <pt x="178" y="931" on="1"/>
        <pt x="213" y="943" on="1"/>
        <pt x="385" y="1007" on="0"/>
      </contour>
    </TTGlyph>
    <TTGlyph name="ampersand" xMin="139" yMin="-88" xMax="1548" yMax="1481">
      <contour>
        <pt x="1081" y="1175" on="1"/>
        <pt x="1081" y="1132" on="0"/>
        <pt x="1059" y="1050" on="0"/>
        <pt x="1007" y="972" on="0"/>
        <pt x="964" y="917" on="0"/>
        <pt x="878" y="840" on="0"/>
        <pt x="837" y="806" on="0"/>
        <pt x="788" y="768" on="1"/>
        <pt x="1076" y="461" on="1"/>
        <pt x="1398" y="813" on="1"/>
        <pt x="1548" y="661" on="1"/>
        <pt x="1226" y="302" on="1"/>
        <pt x="1548" y="-41" on="1"/>
        <pt x="1233" y="-41" on="1"/>
        <pt x="1055" y="143" on="1"/>
        <pt x="1007" y="97" on="0"/>
        <pt x="919" y="29" on="0"/>
        <pt x="788" y="-47" on="0"/>
        <pt x="626" y="-88" on="0"/>
        <pt x="536" y="-88" on="1"/>
        <pt x="352" y="-88" on="0"/>
        <pt x="139" y="122" on="0"/>
        <pt x="139" y="282" on="1"/>
        <pt x="139" y="354" on="0"/>
        <pt x="184" y="492" on="0"/>
        <pt x="244" y="590" on="0"/>
        <pt x="338" y="690" on="0"/>
        <pt x="400" y="743" on="0"/>
        <pt x="442" y="775" on="1"/>
        <pt x="356" y="864" on="0"/>
        <pt x="261" y="1022" on="0"/>
        <pt x="261" y="1123" on="1"/>
        <pt x="261" y="1281" on="0"/>
        <pt x="520" y="1481" on="0"/>
        <pt x="707" y="1481" on="1"/>
        <pt x="874" y="1481" on="0"/>
        <pt x="1081" y="1307" on="0"/>
      </contour>
      <contour>
        <pt x="690" y="1256" on="1"/>
        <pt x="615" y="1256" on="0"/>
        <pt x="510" y="1169" on="0"/>
        <pt x="510" y="1114" on="1"/>
        <pt x="510" y="1100" on="0"/>
        <pt x="515" y="1075" on="0"/>
        <pt x="531" y="1046" on="0"/>
        <pt x="543" y="1027" on="0"/>
        <pt x="573" y="994" on="0"/>
        <pt x="588" y="977" on="0"/>
        <pt x="630" y="935" on="0"/>
        <pt x="639" y="926" on="1"/>
        <pt x="757" y="1016" on="0"/>
        <pt x="784" y="1044" on="1"/>
        <pt x="833" y="1094" on="0"/>
        <pt x="833" y="1143" on="1"/>
        <pt x="833" y="1187" on="0"/>
        <pt x="756" y="1256" on="0"/>
      </contour>
      <contour>
        <pt x="597" y="616" on="1"/>
        <pt x="555" y="583" on="0"/>
        <pt x="507" y="542" on="0"/>
        <pt x="445" y="479" on="0"/>
        <pt x="412" y="428" on="0"/>
        <pt x="388" y="362" on="0"/>
        <pt x="388" y="327" on="1"/>
        <pt x="388" y="250" on="0"/>
        <pt x="504" y="141" on="0"/>
        <pt x="593" y="141" on="1"/>
        <pt x="677" y="141" on="0"/>
        <pt x="826" y="228" on="0"/>
        <pt x="902" y="300" on="1"/>
      </contour>
    </TTGlyph>
    <TTGlyph name="aogonek" xMin="123" yMin="-543" xMax="1059" yMax="994">
      <contour>
        <pt x="369" y="310" on="1"/>
        <pt x="369" y="267" on="0"/>
        <pt x="478" y="199" on="0"/>
        <pt x="568" y="199" on="1"/>
        <pt x="691" y="199" on="0"/>
        <pt x="804" y="262" on="1"/>
        <pt x="804" y="437" on="1"/>
        <pt x="619" y="437" on="0"/>
        <pt x="446" y="413" on="0"/>
        <pt x="402" y="375" on="1"/>
        <pt x="369" y="347" on="0"/>
      </contour>
      <contour>
        <pt x="557" y="777" on="1"/>
        <pt x="435" y="777" on="0"/>
        <pt x="269" y="733" on="1"/>
        <pt x="229" y="722" on="1"/>
        <pt x="178" y="919" on="1"/>
        <pt x="213" y="931" on="1"/>
        <pt x="382" y="994" on="0"/>
        <pt x="589" y="994" on="1"/>
        <pt x="700" y="994" on="0"/>
        <pt x="867" y="955" on="0"/>
        <pt x="968" y="890" on="0"/>
        <pt x="1030" y="794" on="0"/>
        <pt x="1053" y="694" on="0"/>
        <pt x="1053" y="632" on="1"/>
        <pt x="1053" y="-29" on="1"/>
        <pt x="1031" y="-40" on="1"/>
        <pt x="1007" y="-52" on="0"/>
        <pt x="923" y="-93" on="0"/>
        <pt x="874" y="-118" on="0"/>
        <pt x="805" y="-156" on="0"/>
        <pt x="766" y="-185" on="0"/>
        <pt x="726" y="-222" on="0"/>
        <pt x="708" y="-259" on="0"/>
        <pt x="708" y="-279" on="1"/>
        <pt x="708" y="-307" on="0"/>
        <pt x="752" y="-340" on="0"/>
        <pt x="788" y="-340" on="1"/>
        <pt x="842" y="-340" on="0"/>
        <pt x="936" y="-289" on="1"/>
        <pt x="971" y="-270" on="1"/>
        <pt x="1059" y="-421" on="1"/>
        <pt x="1026" y="-442" on="1"/>
        <pt x="872" y="-543" on="0"/>
        <pt x="727" y="-543" on="1"/>
        <pt x="597" y="-543" on="0"/>
        <pt x="430" y="-411" on="0"/>
        <pt x="430" y="-311" on="1"/>
        <pt x="430" y="-129" on="0"/>
        <pt x="723" y="16" on="1"/>
        <pt x="616" y="-17" on="0"/>
        <pt x="511" y="-17" on="1"/>
        <pt x="343" y="-17" on="0"/>
        <pt x="123" y="156" on="0"/>
        <pt x="123" y="273" on="1"/>
        <pt x="123" y="313" on="0"/>
        <pt x="153" y="393" on="0"/>
        <pt x="219" y="473" on="0"/>
        <pt x="344" y="538" on="0"/>
        <pt x="429" y="555" on="1"/>
        <pt x="567" y="579" on="0"/>
        <pt x="804" y="581" on="1"/>
        <pt x="804" y="604" on="1"/>
        <pt x="804" y="642" on="0"/>
        <pt x="791" y="692" on="0"/>
        <pt x="746" y="748" on="0"/>
        <pt x="640" y="777" on="0"/>
      </contour>
    </TTGlyph>
    <TTGlyph name="aring" xMin="123" yMin="-20" xMax="1053" yMax="1573">
      <contour>
        <pt x="643" y="1400" on="1"/>
        <pt x="596" y="1400" on="0"/>
        <pt x="534" y="1346" on="0"/>
        <pt x="534" y="1270" on="0"/>
        <pt x="595" y="1215" on="0"/>
        <pt x="643" y="1215" on="1"/>
        <pt x="687" y="1215" on="0"/>
        <pt x="749" y="1271" on="0"/>
        <pt x="749" y="1345" on="0"/>
        <pt x="687" y="1400" on="0"/>
      </contour>
      <contour>
        <pt x="642" y="1573" on="1"/>
        <pt x="770" y="1573" on="0"/>
        <pt x="934" y="1421" on="0"/>
        <pt x="934" y="1308" on="1"/>
        <pt x="934" y="1196" on="0"/>
        <pt x="771" y="1042" on="0"/>
        <pt x="643" y="1042" on="1"/>
        <pt x="512" y="1042" on="0"/>
        <pt x="331" y="1197" on="0"/>
        <pt x="331" y="1308" on="1"/>
        <pt x="331" y="1418" on="0"/>
        <pt x="511" y="1573" on="0"/>
      </contour>
      <contour>
        <pt x="806" y="255" on="1"/>
        <pt x="806" y="396" on="1"/>
        <pt x="781" y="396" on="1"/>
        <pt x="572" y="396" on="0"/>
        <pt x="369" y="348" on="0"/>
        <pt x="369" y="291" on="1"/>
        <pt x="369" y="254" on="0"/>
        <pt x="492" y="191" on="0"/>
        <pt x="582" y="191" on="1"/>
        <pt x="709" y="191" on="0"/>
      </contour>
      <contour>
        <pt x="589" y="1006" on="1"/>
        <pt x="700" y="1006" on="0"/>
        <pt x="866" y="967" on="0"/>
        <pt x="968" y="902" on="0"/>
        <pt x="1030" y="806" on="0"/>
        <pt x="1053" y="706" on="0"/>
        <pt x="1053" y="644" on="1"/>
        <pt x="1053" y="0" on="1"/>
        <pt x="869" y="0" on="1"/>
        <pt x="841" y="65" on="1"/>
        <pt x="707" y="-20" on="0"/>
        <pt x="528" y="-20" on="1"/>
        <pt x="350" y="-20" on="0"/>
        <pt x="123" y="155" on="0"/>
        <pt x="123" y="273" on="1"/>
        <pt x="123" y="347" on="0"/>
        <pt x="196" y="457" on="0"/>
        <pt x="315" y="523" on="0"/>
        <pt x="498" y="564" on="0"/>
        <pt x="685" y="580" on="0"/>
        <pt x="806" y="581" on="1"/>
        <pt x="806" y="616" on="1"/>
        <pt x="806" y="645" on="0"/>
        <pt x="799" y="687" on="0"/>
        <pt x="771" y="737" on="0"/>
        <pt x="720" y="768" on="0"/>
        <pt x="624" y="789" on="0"/>
        <pt x="557" y="789" on="1"/>
        <pt x="435" y="789" on="0"/>
        <pt x="269" y="745" on="1"/>
        <pt x="229" y="734" on="1"/>
        <pt x="178" y="931" on="1"/>
        <pt x="213" y="943" on="1"/>
        <pt x="382" y="1006" on="0"/>
      </contour>
    </TTGlyph>
    <TTGlyph name="asciicircum" xMin="384" yMin="1108" xMax="1038" yMax="1601">
      <contour>
        <pt x="726" y="1601" on="1"/>
        <pt x="1038" y="1253" on="1"/>
        <pt x="886" y="1108" on="1"/>
        <pt x="712" y="1302" on="1"/>
        <pt x="534" y="1109" on="1"/>
        <pt x="384" y="1244" on="1"/>
      </contour>
    </TTGlyph>
    <TTGlyph name="asciitilde" xMin="307" yMin="1195" xMax="1133" yMax="1592">
      <contour>
        <pt x="876" y="1401" on="1"/>
        <pt x="898" y="1401" on="0"/>
        <pt x="922" y="1471" on="0"/>
        <pt x="933" y="1534" on="1"/>
        <pt x="935" y="1547" on="0"/>
        <pt x="936" y="1553" on="1"/>
        <pt x="943" y="1592" on="1"/>
        <pt x="1133" y="1562" on="1"/>
        <pt x="1124" y="1520" on="1"/>
        <pt x="1122" y="1512" on="0"/>
        <pt x="1110" y="1448" on="0"/>
        <pt x="1103" y="1418" on="0"/>
        <pt x="1087" y="1356" on="0"/>
        <pt x="1070" y="1321" on="0"/>
        <pt x="1044" y="1270" on="0"/>
        <pt x="1011" y="1241" on="0"/>
        <pt x="969" y="1211" on="0"/>
        <pt x="914" y="1198" on="0"/>
        <pt x="882" y="1198" on="1"/>
        <pt x="819" y="1201" on="0"/>
        <pt x="706" y="1259" on="0"/>
        <pt x="641" y="1326" on="0"/>
        <pt x="580" y="1381" on="0"/>
        <pt x="564" y="1381" on="1"/>
        <pt x="552" y="1381" on="0"/>
        <pt x="533" y="1358" on="0"/>
        <pt x="520" y="1315" on="0"/>
        <pt x="511" y="1274" on="0"/>
        <pt x="506" y="1246" on="1"/>
        <pt x="505" y="1238" on="0"/>
        <pt x="504" y="1234" on="1"/>
        <pt x="497" y="1195" on="1"/>
        <pt x="307" y="1221" on="1"/>
        <pt x="316" y="1264" on="1"/>
        <pt x="318" y="1273" on="0"/>
        <pt x="328" y="1327" on="0"/>
        <pt x="334" y="1355" on="0"/>
        <pt x="348" y="1410" on="0"/>
        <pt x="360" y="1442" on="0"/>
        <pt x="382" y="1490" on="0"/>
        <pt x="405" y="1519" on="0"/>
        <pt x="439" y="1553" on="0"/>
        <pt x="478" y="1571" on="0"/>
        <pt x="529" y="1584" on="0"/>
        <pt x="558" y="1584" on="1"/>
        <pt x="621" y="1581" on="0"/>
        <pt x="734" y="1523" on="0"/>
        <pt x="800" y="1456" on="0"/>
        <pt x="860" y="1401" on="0"/>
      </contour>
    </TTGlyph>
    <TTGlyph name="asterisk" xMin="123" yMin="511" xMax="1073" yMax="1462">
      <contour>
        <pt x="470" y="1462" on="1"/>
        <pt x="726" y="1462" on="1"/>
        <pt x="711" y="1181" on="1"/>
        <pt x="945" y="1335" on="1"/>
        <pt x="1073" y="1112" on="1"/>
        <pt x="823" y="987" on="1"/>
        <pt x="1073" y="860" on="1"/>
        <pt x="945" y="637" on="1"/>
        <pt x="711" y="791" on="1"/>
        <pt x="726" y="511" on="1"/>
        <pt x="470" y="511" on="1"/>
        <pt x="485" y="791" on="1"/>
        <pt x="251" y="637" on="1"/>
        <pt x="123" y="860" on="1"/>
        <pt x="374" y="987" on="1"/>
        <pt x="123" y="1112" on="1"/>
        <pt x="251" y="1335" on="1"/>
        <pt x="485" y="1181" on="1"/>
      </contour>
    </TTGlyph>
    <TTGlyph name="at" xMin="140" yMin="-468" xMax="2004" yMax="1440">
      <contour>
        <pt x="1276" y="959" on="1"/>
        <pt x="1294" y="1009" on="1"/>
        <pt x="1477" y="1009" on="1"/>
        <pt x="1477" y="252" on="1"/>
        <pt x="1477" y="149" on="0"/>
        <pt x="1511" y="61" on="0"/>
        <pt x="1565" y="61" on="1"/>
        <pt x="1583" y="61" on="0"/>
        <pt x="1627" y="83" on="0"/>
        <pt x="1681" y="145" on="0"/>
        <pt x="1724" y="240" on="0"/>
        <pt x="1754" y="406" on="0"/>
        <pt x="1754" y="510" on="1"/>
        <pt x="1754" y="629" on="0"/>
        <pt x="1719" y="822" on="0"/>
        <pt x="1629" y="1002" on="0"/>
        <pt x="1484" y="1124" on="0"/>
        <pt x="1253" y="1197" on="0"/>
        <pt x="1100" y="1197" on="1"/>
        <pt x="981" y="1197" on="0"/>
        <pt x="780" y="1144" on="0"/>
        <pt x="637" y="1054" on="0"/>
        <pt x="524" y="929" on="0"/>
        <pt x="454" y="795" on="0"/>
        <pt x="408" y="642" on="0"/>
        <pt x="390" y="506" on="0"/>
        <pt x="390" y="438" on="1"/>
        <pt x="390" y="306" on="0"/>
        <pt x="459" y="82" on="0"/>
        <pt x="578" y="-77" on="0"/>
        <pt x="738" y="-190" on="0"/>
        <pt x="920" y="-244" on="0"/>
        <pt x="1017" y="-244" on="1"/>
        <pt x="1163" y="-244" on="0"/>
        <pt x="1291" y="-181" on="1"/>
        <pt x="1327" y="-164" on="1"/>
        <pt x="1428" y="-354" on="1"/>
        <pt x="1391" y="-373" on="1"/>
        <pt x="1208" y="-468" on="0"/>
        <pt x="992" y="-468" on="1"/>
        <pt x="926" y="-468" on="0"/>
        <pt x="789" y="-450" on="0"/>
        <pt x="617" y="-399" on="0"/>
        <pt x="464" y="-319" on="0"/>
        <pt x="314" y="-182" on="0"/>
        <pt x="206" y="-6" on="0"/>
        <pt x="140" y="251" on="0"/>
        <pt x="140" y="404" on="1"/>
        <pt x="140" y="511" on="0"/>
        <pt x="167" y="712" on="0"/>
        <pt x="234" y="922" on="0"/>
        <pt x="336" y="1102" on="0"/>
        <pt x="495" y="1262" on="0"/>
        <pt x="698" y="1375" on="0"/>
        <pt x="977" y="1440" on="0"/>
        <pt x="1142" y="1440" on="1"/>
        <pt x="1295" y="1440" on="0"/>
        <pt x="1546" y="1382" on="0"/>
        <pt x="1722" y="1285" on="0"/>
        <pt x="1856" y="1142" on="0"/>
        <pt x="1936" y="988" on="0"/>
        <pt x="1986" y="799" on="0"/>
        <pt x="2004" y="627" on="0"/>
        <pt x="2004" y="530" on="1"/>
        <pt x="2004" y="411" on="0"/>
        <pt x="1969" y="212" on="0"/>
        <pt x="1912" y="73" on="0"/>
        <pt x="1833" y="-35" on="0"/>
        <pt x="1750" y="-99" on="0"/>
        <pt x="1658" y="-141" on="0"/>
        <pt x="1582" y="-156" on="0"/>
        <pt x="1545" y="-156" on="1"/>
        <pt x="1458" y="-156" on="0"/>
        <pt x="1317" y="-73" on="0"/>
        <pt x="1279" y="-1" on="1"/>
        <pt x="1158" y="-61" on="0"/>
        <pt x="1029" y="-61" on="1"/>
        <pt x="825" y="-61" on="0"/>
        <pt x="560" y="219" on="0"/>
        <pt x="560" y="452" on="1"/>
        <pt x="560" y="695" on="0"/>
        <pt x="833" y="1003" on="0"/>
        <pt x="1054" y="1003" on="1"/>
        <pt x="1166" y="1003" on="0"/>
      </contour>
      <contour>
        <pt x="1077" y="799" on="1"/>
        <pt x="950" y="799" on="0"/>
        <pt x="794" y="629" on="0"/>
        <pt x="794" y="475" on="1"/>
        <pt x="794" y="320" on="0"/>
        <pt x="956" y="150" on="0"/>
        <pt x="1082" y="150" on="1"/>
        <pt x="1162" y="150" on="0"/>
        <pt x="1240" y="186" on="1"/>
        <pt x="1240" y="767" on="1"/>
        <pt x="1154" y="799" on="0"/>
      </contour>
    </TTGlyph>
    <TTGlyph name="atilde" xMin="123" yMin="-20" xMax="1082" yMax="1450">
      <contour>
        <pt x="892" y="1450" on="1"/>
        <pt x="1082" y="1420" on="1"/>
        <pt x="1056" y="1293" on="1"/>
        <pt x="1012" y="1058" on="0"/>
        <pt x="830" y="1058" on="1"/>
        <pt x="768" y="1060" on="0"/>
        <pt x="654" y="1099" on="0"/>
        <pt x="576" y="1152" on="0"/>
        <pt x="513" y="1203" on="0"/>
        <pt x="462" y="1239" on="0"/>
        <pt x="445" y="1239" on="1"/>
        <pt x="404" y="1239" on="0"/>
        <pt x="385" y="1146" on="1"/>
        <pt x="384" y="1143" on="0"/>
        <pt x="384" y="1141" on="1"/>
        <pt x="364" y="1053" on="1"/>
        <pt x="174" y="1079" on="1"/>
        <pt x="200" y="1207" on="1"/>
        <pt x="219" y="1296" on="0"/>
        <pt x="250" y="1344" on="1"/>
        <pt x="313" y="1442" on="0"/>
        <pt x="437" y="1442" on="1"/>
        <pt x="512" y="1439" on="0"/>
        <pt x="650" y="1381" on="0"/>
        <pt x="730" y="1315" on="0"/>
        <pt x="804" y="1260" on="0"/>
        <pt x="822" y="1260" on="1"/>
        <pt x="832" y="1260" on="0"/>
        <pt x="848" y="1273" on="0"/>
        <pt x="858" y="1292" on="0"/>
        <pt x="867" y="1318" on="0"/>
        <pt x="871" y="1337" on="0"/>
        <pt x="875" y="1358" on="0"/>
        <pt x="875" y="1359" on="1"/>
      </contour>
      <contour>
        <pt x="800" y="255" on="1"/>
        <pt x="800" y="396" on="1"/>
        <pt x="775" y="396" on="1"/>
        <pt x="569" y="396" on="0"/>
        <pt x="369" y="348" on="0"/>
        <pt x="369" y="291" on="1"/>
        <pt x="369" y="254" on="0"/>
        <pt x="490" y="191" on="0"/>
        <pt x="579" y="191" on="1"/>
        <pt x="705" y="191" on="0"/>
      </contour>
      <contour>
        <pt x="586" y="1006" on="1"/>
        <pt x="697" y="1006" on="0"/>
        <pt x="865" y="967" on="0"/>
        <pt x="967" y="902" on="0"/>
        <pt x="1030" y="806" on="0"/>
        <pt x="1053" y="706" on="0"/>
        <pt x="1053" y="644" on="1"/>
        <pt x="1053" y="0" on="1"/>
        <pt x="869" y="0" on="1"/>
        <pt x="841" y="65" on="1"/>
        <pt x="696" y="-20" on="0"/>
        <pt x="526" y="-20" on="1"/>
        <pt x="350" y="-20" on="0"/>
        <pt x="123" y="155" on="0"/>
        <pt x="123" y="273" on="1"/>
        <pt x="123" y="335" on="0"/>
        <pt x="171" y="432" on="0"/>
        <pt x="265" y="497" on="0"/>
        <pt x="383" y="543" on="0"/>
        <pt x="542" y="568" on="0"/>
        <pt x="702" y="580" on="0"/>
        <pt x="800" y="581" on="1"/>
        <pt x="800" y="616" on="1"/>
        <pt x="800" y="640" on="0"/>
        <pt x="795" y="675" on="0"/>
        <pt x="780" y="719" on="0"/>
        <pt x="746" y="749" on="0"/>
        <pt x="695" y="775" on="0"/>
        <pt x="610" y="789" on="0"/>
        <pt x="555" y="789" on="1"/>
        <pt x="435" y="789" on="0"/>
        <pt x="269" y="745" on="1"/>
        <pt x="229" y="734" on="1"/>
        <pt x="178" y="931" on="1"/>
        <pt x="213" y="943" on="1"/>
        <pt x="382" y="1006" on="0"/>
      </contour>
    </TTGlyph>
    <TTGlyph name="b" xMin="190" yMin="-20" xMax="1218" yMax="1511">
      <contour>
        <pt x="190" y="1511" on="1"/>
        <pt x="436" y="1511" on="1"/>
        <pt x="436" y="964" on="1"/>
        <pt x="565" y="1008" on="0"/>
        <pt x="699" y="1008" on="1"/>
        <pt x="775" y="1008" on="0"/>
        <pt x="916" y="979" on="0"/>
        <pt x="1054" y="905" on="0"/>
        <pt x="1155" y="794" on="0"/>
        <pt x="1218" y="617" on="0"/>
        <pt x="1218" y="505" on="1"/>
        <pt x="1218" y="259" on="0"/>
        <pt x="920" y="-20" on="0"/>
        <pt x="665" y="-20" on="1"/>
        <pt x="514" y="-20" on="0"/>
        <pt x="386" y="32" on="1"/>
        <pt x="372" y="0" on="1"/>
        <pt x="190" y="0" on="1"/>
      </contour>
      <contour>
        <pt x="633" y="790" on="1"/>
        <pt x="534" y="790" on="0"/>
        <pt x="436" y="757" on="1"/>
        <pt x="436" y="220" on="1"/>
        <pt x="537" y="191" on="0"/>
        <pt x="637" y="191" on="1"/>
        <pt x="683" y="191" on="0"/>
        <pt x="769" y="205" on="0"/>
        <pt x="862" y="244" on="0"/>
        <pt x="931" y="306" on="0"/>
        <pt x="976" y="411" on="0"/>
        <pt x="976" y="479" on="1"/>
        <pt x="976" y="554" on="0"/>
        <pt x="930" y="670" on="0"/>
        <pt x="860" y="735" on="0"/>
        <pt x="764" y="777" on="0"/>
        <pt x="679" y="790" on="0"/>
      </contour>
    </TTGlyph>
    <TTGlyph name="backslash" xMin="-37" yMin="-131" xMax="743" yMax="1462">
      <contour>
        <pt x="-37" y="1462" on="1"/>
        <pt x="220" y="1462" on="1"/>
        <pt x="743" y="-131" on="1"/>
        <pt x="486" y="-131" on="1"/>
      </contour>
    </TTGlyph>
    <TTGlyph name="bar" xMin="319" yMin="-349" xMax="565" yMax="1642">
      <contour>
        <pt x="319" y="1642" on="1"/>
        <pt x="565" y="1642" on="1"/>
        <pt x="565" y="-349" on="1"/>
        <pt x="319" y="-349" on="1"/>
      </contour>
    </TTGlyph>
</ttFont>
